<svg width="17" height="16" viewBox="0 0 17 16" fill="none" xmlns="http://www.w3.org/2000/svg">
<path d="M9.3644 7.83091C9.72472 7.57399 10.0593 7.3366 10.3919 7.09699C10.5641 6.96446 10.7837 6.88908 11.0125 6.88389C11.2414 6.87871 11.4651 6.94404 11.6449 7.0686C11.7256 7.12085 11.7908 7.18935 11.8352 7.26836C11.8796 7.34736 11.9017 7.43457 11.8999 7.52267C11.898 7.61077 11.8721 7.69718 11.8244 7.77467C11.7767 7.85216 11.7086 7.91846 11.6257 7.96802C10.7971 8.57858 9.96594 9.18692 9.13227 9.79304C8.9561 9.92656 8.73126 10 8.49869 10C8.26611 10 8.04127 9.92656 7.86511 9.79304C7.0311 9.18485 6.20028 8.57562 5.37267 7.96536C5.28989 7.91575 5.2219 7.84936 5.17445 7.77178C5.127 7.69421 5.10147 7.60773 5.10004 7.51965C5.0986 7.43158 5.1213 7.34449 5.1662 7.26575C5.21111 7.18702 5.2769 7.11894 5.35803 7.06726C5.53541 6.94435 5.75576 6.87929 5.98156 6.88317C6.20737 6.88706 6.42465 6.95964 6.59643 7.08856C6.9295 7.32817 7.25953 7.57 7.59159 7.8105C7.59563 7.8136 7.6042 7.81316 7.61632 7.81493C7.65972 7.76746 7.63499 7.71332 7.63499 7.66363C7.63499 5.35628 7.63499 3.04981 7.63499 0.744239C7.61715 0.580203 7.66891 0.416159 7.78033 0.283656C7.89509 0.171056 8.04184 0.0873084 8.20554 0.040994C8.36923 -0.00532035 8.54399 -0.0125361 8.7119 0.0200861C8.86889 0.0399557 9.01493 0.102406 9.12963 0.19873C9.24434 0.295054 9.322 0.420449 9.35179 0.557432C9.36086 0.625018 9.3649 0.693052 9.3639 0.7611C9.3639 3.06283 9.3639 5.36441 9.3639 7.66584L9.3644 7.83091Z" fill="#42BE40"/>
<path d="M8.49803 15.9985C6.66178 15.9985 4.82537 15.9985 2.9888 15.9985C2.48336 16.0186 1.98561 15.8401 1.56581 15.488C1.14601 15.1359 0.825351 14.628 0.649107 14.0361C0.549816 13.6995 0.500019 13.3432 0.502113 12.9845C0.499296 12.0097 0.499296 11.0338 0.502113 10.0597C0.489559 9.83158 0.540875 9.60513 0.647278 9.41907C0.75368 9.23302 0.908555 9.09894 1.08539 9.03977C1.24813 8.98058 1.42172 8.98761 1.58104 9.05984C1.74037 9.13207 1.87715 9.26574 1.97159 9.44151C2.07385 9.64812 2.12196 9.88943 2.10919 10.1318C2.10919 11.037 2.10919 11.9417 2.10919 12.8461C2.09111 13.0022 2.10256 13.1615 2.14263 13.3111C2.18269 13.4608 2.25026 13.5966 2.33991 13.7078C2.42957 13.8189 2.53882 13.9023 2.65892 13.9513C2.77902 14.0003 2.90663 14.0134 3.03154 13.9897C6.67962 13.9897 10.3271 13.9897 13.9739 13.9897C14.0988 14.0125 14.2263 13.9985 14.3461 13.9487C14.4659 13.899 14.5747 13.8149 14.6638 13.7033C14.753 13.5916 14.8199 13.4555 14.8594 13.3057C14.8989 13.1559 14.9097 12.9967 14.8911 12.8408C14.8911 11.92 14.8878 10.9998 14.8911 10.0796C14.8816 9.93518 14.8974 9.7899 14.9375 9.65389C14.9775 9.51788 15.0409 9.39441 15.123 9.29207C15.2052 9.18974 15.3042 9.11101 15.4133 9.06135C15.5223 9.0117 15.6387 8.99233 15.7543 9.00458C15.933 9.01844 16.1025 9.10837 16.2345 9.25938C16.3665 9.4104 16.4531 9.61337 16.4799 9.83446C16.4955 10.0438 16.5014 10.2541 16.4977 10.4643C16.4977 11.2854 16.5029 12.1024 16.4977 12.9212C16.5072 13.3294 16.4496 13.7357 16.3286 14.1151C16.2075 14.4945 16.0255 14.8389 15.7938 15.1271C15.5621 15.4153 15.2856 15.6412 14.9813 15.7908C14.6771 15.9405 14.3515 16.0108 14.0246 15.9973C12.1818 16.0032 10.3394 15.9973 8.49662 15.9973" fill="#42BE40"/>
</svg>
