<?xml version="1.0" encoding="UTF-8"?>
<svg id="Layer_2" data-name="Layer 2" xmlns="http://www.w3.org/2000/svg" viewBox="0 0 840.1 561.42">
  <defs>
    <style>
      .cls-1 {
        fill: #032146;
        stroke-width: 0px;
      }
    </style>
  </defs>
  <g id="Layer_1-2" data-name="Layer 1">
    <g>
      <g>
        <path class="cls-1" d="M332.71,490.88c.29-1.33,2.59-7.74,2.96-9.05,8.87-31.81,44.82-56.59,101.01-93.53,76.53-50.32,109.2-94.71,109.24-155.25.06-77.04-59.37-137.21-150.73-137.21-56.84,0-101.74,33.61-124.05,71.5l39.33,72.95c7.93-43.78,41.12-74.69,83.15-74.87,39.45-.18,71.03,26.29,71.03,68.17-1.7,36.92-21.08,68.09-89.07,110.05-103.52,63.88-135,127.18-129.46,217.8h314.09l-38.37-71.12h-167.95l-21.19.59Z"/>
        <polygon class="cls-1" points="334.48 329.37 299.42 264.42 179.29 264.42 269.49 73.79 229.61 0 217.9 0 0 460.36 86.54 460.36 148.5 329.37 334.48 329.37"/>
        <path class="cls-1" d="M660.71,153.83l82.01-91.85-.02-61.98h-260.73l36.37,67.36h114.73l19.39-.92-12.73,11.38-74.32,84.13,26.33,48.72c4.19-1.18,11.73-2.86,20.72-2.74,56.3.74,97.55,42.78,97.55,93.77s-42.66,97.04-100.58,97.04c-30.87,0-59.06-14.01-79.27-36.22l-52.5,50.48c33.63,34.36,81.37,53.3,132.3,54.26,104.64,1.98,178.5-73.49,178.5-165.3,0-63.45-38.18-129.69-127.75-148.12"/>
      </g>
      <g>
        <path class="cls-1" d="M795.26,50.71V17.97h12.39c4.6,0,7.83.73,9.7,2.19,1.86,1.46,2.8,3.82,2.8,7.08,0,2.49-.54,4.46-1.61,5.92-1.08,1.46-2.62,2.41-4.63,2.85l7.4,14.71h-7.76l-6.4-13.7h-4.68v13.7h-7.2ZM802.46,33.94h2.82c2.65,0,4.56-.54,5.72-1.61,1.16-1.07,1.74-2.7,1.74-4.89,0-2.32-.57-3.92-1.71-4.81-1.14-.89-3.06-1.33-5.74-1.33h-2.82v12.64Z"/>
        <path class="cls-1" d="M806.55,67.46c-18.5,0-33.55-15.05-33.55-33.55S788.05.36,806.55.36s33.55,15.05,33.55,33.55-15.05,33.55-33.55,33.55ZM806.55,6.36c-15.19,0-27.55,12.36-27.55,27.55s12.36,27.55,27.55,27.55,27.55-12.36,27.55-27.55-12.36-27.55-27.55-27.55Z"/>
      </g>
    </g>
  </g>
</svg>