<svg width="30" height="30" viewBox="0 0 30 30" fill="none" xmlns="http://www.w3.org/2000/svg">
<g id="Group 25286">
<g id="Group">
<g id="Path 18362">
<path d="M16.6085 11.64C17.2568 11.6853 17.6608 12.1908 17.7167 13.026C17.7215 13.1 17.7503 13.1705 17.7988 13.2267C17.8473 13.2829 17.9128 13.3217 17.9854 13.3373C18.058 13.3529 18.1336 13.3443 18.2009 13.3129C18.2682 13.2816 18.3234 13.2291 18.3581 13.1635C18.7089 12.5046 19.2009 12.1911 19.7547 12.2989C20.0749 12.3798 20.3622 12.5579 20.5772 12.8087C20.7921 13.0594 20.9242 13.3706 20.9552 13.6995C20.9675 13.7885 21.0138 13.8693 21.0845 13.9248C21.1552 13.9803 21.2447 14.0062 21.3341 13.997C21.3785 13.9917 21.4214 13.9777 21.4604 13.9557C21.4994 13.9338 21.5337 13.9044 21.5613 13.8692C21.589 13.834 21.6094 13.7937 21.6215 13.7507C21.6335 13.7076 21.637 13.6625 21.6316 13.6181C21.5821 13.1454 21.3869 12.6998 21.0729 12.343C20.759 11.9862 20.3419 11.7358 19.8793 11.6264C19.5809 11.5722 19.2736 11.5944 18.986 11.6909C18.6985 11.7875 18.44 11.9552 18.2348 12.1786C18.1233 11.8407 17.9134 11.5437 17.6321 11.3258C17.3508 11.1078 17.0108 10.9788 16.6557 10.9553C16.0889 10.9375 15.5342 11.1223 15.0913 11.4765C14.6484 11.8307 14.3461 12.3312 14.2389 12.8881C13.9608 14.1861 14.715 15.5496 15.408 16.5911C15.4579 16.6666 15.5357 16.7193 15.6244 16.7374C15.7131 16.7555 15.8054 16.7377 15.8809 16.6878C15.9565 16.6379 16.0091 16.56 16.0272 16.4713C16.0454 16.3826 16.0275 16.2904 15.9776 16.2148C15.3607 15.2838 14.6826 14.0807 14.9074 13.0319C14.9811 12.6364 15.1921 12.2797 15.5032 12.0247C15.8143 11.7696 16.2055 11.6327 16.6078 11.638" fill="url(#paint0_linear_2660_211)"/>
<path d="M16.6085 11.64C17.2568 11.6853 17.6608 12.1908 17.7167 13.026C17.7215 13.1 17.7503 13.1705 17.7988 13.2267C17.8473 13.2829 17.9128 13.3217 17.9854 13.3373C18.058 13.3529 18.1336 13.3443 18.2009 13.3129C18.2682 13.2816 18.3234 13.2291 18.3581 13.1635C18.7089 12.5046 19.2009 12.1911 19.7547 12.2989C20.0749 12.3798 20.3622 12.5579 20.5772 12.8087C20.7921 13.0594 20.9242 13.3706 20.9552 13.6995C20.9675 13.7885 21.0138 13.8693 21.0845 13.9248C21.1552 13.9803 21.2447 14.0062 21.3341 13.997C21.3785 13.9917 21.4214 13.9777 21.4604 13.9557C21.4994 13.9338 21.5337 13.9044 21.5613 13.8692C21.589 13.834 21.6094 13.7937 21.6215 13.7507C21.6335 13.7076 21.637 13.6625 21.6316 13.6181C21.5821 13.1454 21.3869 12.6998 21.0729 12.343C20.759 11.9862 20.3419 11.7358 19.8793 11.6264C19.5809 11.5722 19.2736 11.5944 18.986 11.6909C18.6985 11.7875 18.44 11.9552 18.2348 12.1786C18.1233 11.8407 17.9134 11.5437 17.6321 11.3258C17.3508 11.1078 17.0108 10.9788 16.6557 10.9553C16.0889 10.9375 15.5342 11.1223 15.0913 11.4765C14.6484 11.8307 14.3461 12.3312 14.2389 12.8881C13.9608 14.1861 14.715 15.5496 15.408 16.5911C15.4579 16.6666 15.5357 16.7193 15.6244 16.7374C15.7131 16.7555 15.8054 16.7377 15.8809 16.6878C15.9565 16.6379 16.0091 16.56 16.0272 16.4713C16.0454 16.3826 16.0275 16.2904 15.9776 16.2148C15.3607 15.2838 14.6826 14.0807 14.9074 13.0319C14.9811 12.6364 15.1921 12.2797 15.5032 12.0247C15.8143 11.7696 16.2055 11.6327 16.6078 11.638" stroke="url(#paint1_linear_2660_211)" stroke-width="0.5"/>
</g>
</g>
<g id="Group_2">
<g id="Path 18363">
<path d="M10.0202 2.89031C10.0006 2.80223 9.94727 2.72535 9.8716 2.6762C9.79593 2.62705 9.70399 2.60955 9.61555 2.62746L2.35175 4.17082C1.90862 4.26727 1.52154 4.53491 1.27483 4.91545C1.02812 5.29598 0.941755 5.75858 1.03455 6.2025L5.5955 27.6441C5.64204 27.8642 5.73156 28.0729 5.85891 28.2583C5.98627 28.4437 6.14896 28.6022 6.33767 28.7246C6.52637 28.847 6.73738 28.931 6.95861 28.9718C7.17983 29.0125 7.40692 29.0092 7.62685 28.962L8.96522 28.6753C9.00917 28.6661 9.05086 28.6482 9.08789 28.6228C9.12492 28.5973 9.15656 28.5648 9.18098 28.5271C9.20541 28.4894 9.22214 28.4473 9.23022 28.4031C9.2383 28.3589 9.23757 28.3135 9.22806 28.2696C9.2191 28.2256 9.20142 28.1838 9.17607 28.1467C9.15071 28.1096 9.1182 28.0779 9.08044 28.0536C9.04268 28.0292 9.00042 28.0126 8.95617 28.0048C8.91191 27.997 8.86654 27.9981 8.82272 28.0081L7.487 28.2934C7.2203 28.3506 6.94181 28.2998 6.71252 28.1521C6.48323 28.0043 6.32184 27.7717 6.26369 27.5052L1.7034 6.0643C1.67397 5.93209 1.67103 5.79536 1.69476 5.66202C1.71849 5.52867 1.76841 5.40135 1.84165 5.28741C1.91488 5.17348 2.00997 5.07519 2.12141 4.99822C2.23286 4.92125 2.35846 4.86714 2.49095 4.83901L9.7564 3.29565C9.80039 3.28661 9.84215 3.26895 9.87929 3.2437C9.91642 3.21844 9.9482 3.18609 9.97278 3.14851C9.99736 3.11093 10.0143 3.06886 10.0225 3.02471C10.0308 2.98057 10.0302 2.93523 10.0209 2.8913" fill="url(#paint2_linear_2660_211)"/>
<path d="M10.0202 2.89031C10.0006 2.80223 9.94727 2.72535 9.8716 2.6762C9.79593 2.62705 9.70399 2.60955 9.61555 2.62746L2.35175 4.17082C1.90862 4.26727 1.52154 4.53491 1.27483 4.91545C1.02812 5.29598 0.941755 5.75858 1.03455 6.2025L5.5955 27.6441C5.64204 27.8642 5.73156 28.0729 5.85891 28.2583C5.98627 28.4437 6.14896 28.6022 6.33767 28.7246C6.52637 28.847 6.73738 28.931 6.95861 28.9718C7.17983 29.0125 7.40692 29.0092 7.62685 28.962L8.96522 28.6753C9.00917 28.6661 9.05086 28.6482 9.08789 28.6228C9.12492 28.5973 9.15656 28.5648 9.18098 28.5271C9.20541 28.4894 9.22214 28.4473 9.23022 28.4031C9.2383 28.3589 9.23757 28.3135 9.22806 28.2696C9.21909 28.2256 9.20142 28.1838 9.17606 28.1467C9.15071 28.1096 9.1182 28.0779 9.08044 28.0536C9.04268 28.0292 9.00042 28.0126 8.95617 28.0048C8.91191 27.997 8.86654 27.9981 8.82272 28.0081L7.487 28.2934C7.2203 28.3506 6.94181 28.2998 6.71252 28.1521C6.48323 28.0043 6.32184 27.7717 6.26369 27.5052L1.7034 6.0643C1.67397 5.93209 1.67103 5.79536 1.69476 5.66202C1.71849 5.52867 1.76841 5.40135 1.84165 5.28741C1.91488 5.17348 2.00997 5.07519 2.12141 4.99822C2.23286 4.92125 2.35846 4.86714 2.49095 4.83901L9.7564 3.29565C9.80039 3.28661 9.84215 3.26895 9.87929 3.2437C9.91642 3.21844 9.9482 3.18609 9.97278 3.14851C9.99737 3.11093 10.0143 3.06886 10.0225 3.02471C10.0308 2.98057 10.0302 2.93523 10.0209 2.8913" stroke="url(#paint3_linear_2660_211)" stroke-width="0.5"/>
</g>
</g>
<g id="Group_3">
<g id="Path 18364">
<path d="M7.22192 7.3336C7.31052 7.31475 7.38801 7.26147 7.43734 7.18548C7.48666 7.1095 7.50378 7.01703 7.48493 6.92842C7.46607 6.83981 7.41279 6.76232 7.33681 6.713C7.26082 6.66368 7.16835 6.64656 7.07975 6.66541C6.6582 6.75501 5.14461 5.77273 5.05501 5.35019C5.04671 5.30533 5.0295 5.26259 5.00441 5.22449C4.97932 5.18639 4.94685 5.1537 4.90892 5.12836C4.87099 5.10301 4.82836 5.08553 4.78356 5.07693C4.73876 5.06833 4.69269 5.06879 4.64807 5.07828C4.60345 5.08778 4.56118 5.10613 4.52376 5.13223C4.48635 5.15833 4.45454 5.19166 4.43022 5.23026C4.4059 5.26885 4.38956 5.31193 4.38216 5.35695C4.37476 5.40196 4.37646 5.44801 4.38715 5.49236C4.47675 5.9139 3.49446 7.42783 3.07226 7.51743C2.98365 7.53624 2.90614 7.58947 2.85679 7.66543C2.80743 7.74138 2.79027 7.83383 2.80908 7.92244C2.82789 8.01105 2.88113 8.08856 2.95708 8.13791C3.03304 8.18727 3.12549 8.20443 3.21409 8.18562C3.63564 8.09602 5.14924 9.0783 5.23883 9.50084C5.24714 9.5457 5.26434 9.58844 5.28943 9.62654C5.31452 9.66464 5.34699 9.69733 5.38492 9.72267C5.42286 9.74802 5.46548 9.7655 5.51028 9.7741C5.55508 9.7827 5.60116 9.78224 5.64578 9.77274C5.6904 9.76325 5.73266 9.7449 5.77008 9.7188C5.80749 9.6927 5.8393 9.65937 5.86362 9.62077C5.88794 9.58217 5.90428 9.5391 5.91168 9.49408C5.91908 9.44906 5.91738 9.40302 5.90669 9.35867C5.8171 8.93712 6.79938 7.4232 7.22158 7.3336M5.39852 8.61014C4.9785 8.21693 4.49228 7.90106 3.9623 7.67712C4.35541 7.25697 4.67117 6.77063 4.89499 6.24056C5.31502 6.63376 5.80124 6.94962 6.33122 7.17358C5.93811 7.59375 5.62236 8.08008 5.39852 8.61014Z" fill="url(#paint4_linear_2660_211)"/>
<path d="M7.22192 7.3336C7.31052 7.31475 7.38801 7.26147 7.43734 7.18548C7.48666 7.1095 7.50378 7.01703 7.48493 6.92842C7.46607 6.83981 7.41279 6.76232 7.33681 6.713C7.26082 6.66368 7.16835 6.64656 7.07975 6.66541C6.6582 6.75501 5.14461 5.77273 5.05501 5.35019C5.04671 5.30533 5.0295 5.26259 5.00441 5.22449C4.97932 5.18639 4.94685 5.1537 4.90892 5.12836C4.87099 5.10301 4.82836 5.08553 4.78356 5.07693C4.73876 5.06833 4.69269 5.06879 4.64807 5.07828C4.60345 5.08778 4.56118 5.10613 4.52376 5.13223C4.48635 5.15833 4.45454 5.19166 4.43022 5.23026C4.4059 5.26885 4.38956 5.31193 4.38216 5.35695C4.37476 5.40196 4.37646 5.44801 4.38715 5.49236C4.47675 5.9139 3.49446 7.42783 3.07226 7.51743C2.98365 7.53624 2.90614 7.58947 2.85679 7.66543C2.80743 7.74138 2.79027 7.83383 2.80908 7.92244C2.82789 8.01105 2.88113 8.08856 2.95708 8.13791C3.03304 8.18727 3.12549 8.20443 3.21409 8.18562C3.63564 8.09602 5.14924 9.0783 5.23883 9.50084C5.24714 9.5457 5.26434 9.58844 5.28943 9.62654C5.31452 9.66464 5.34699 9.69733 5.38492 9.72267C5.42286 9.74802 5.46548 9.7655 5.51028 9.7741C5.55508 9.7827 5.60116 9.78224 5.64578 9.77274C5.6904 9.76325 5.73266 9.7449 5.77008 9.7188C5.80749 9.6927 5.8393 9.65937 5.86362 9.62077C5.88794 9.58217 5.90428 9.5391 5.91168 9.49408C5.91908 9.44906 5.91738 9.40302 5.90669 9.35867C5.8171 8.93712 6.79938 7.4232 7.22158 7.3336M5.39852 8.61014C4.9785 8.21693 4.49228 7.90106 3.9623 7.67712C4.35541 7.25697 4.67117 6.77063 4.89499 6.24056C5.31502 6.63376 5.80124 6.94962 6.33122 7.17358C5.93811 7.59375 5.62236 8.08008 5.39852 8.61014Z" stroke="url(#paint5_linear_2660_211)" stroke-width="0.5"/>
</g>
</g>
<g id="Group_4">
<g id="Path 18365">
<path d="M23.2775 19.1108C23.0011 19.0701 22.7188 19.1077 22.4627 19.2194C22.2066 19.3311 21.987 19.5123 21.8287 19.7426C21.6706 19.5119 21.4507 19.3304 21.1943 19.2187C20.9379 19.1071 20.6552 19.0698 20.3786 19.1111C19.9166 19.191 19.4986 19.4343 19.2009 19.7966C18.9033 20.1589 18.7457 20.6161 18.7569 21.0849C18.7569 22.3767 19.9157 23.471 20.7608 24.2715C21.0468 24.5197 21.3092 24.794 21.5444 25.0908C21.5757 25.1374 21.6181 25.1756 21.6677 25.202C21.7172 25.2284 21.7725 25.2422 21.8287 25.2422C21.8847 25.2414 21.9398 25.2272 21.9892 25.2008C22.0386 25.1744 22.081 25.1366 22.1127 25.0904C22.3485 24.7943 22.6107 24.5202 22.896 24.2715C23.742 23.4717 24.9012 22.3763 24.9012 21.0856C24.9121 20.6164 24.7542 20.159 24.4562 19.7964C24.1582 19.4339 23.7399 19.1905 23.2775 19.1104M22.4268 23.7752C22.203 23.9865 21.997 24.1809 21.8287 24.3617C21.6604 24.1799 21.4545 23.9858 21.2306 23.7742C20.4322 23.0201 19.4393 22.0814 19.4387 21.0846C19.432 20.7923 19.5241 20.5063 19.7001 20.2728C19.8762 20.0393 20.1258 19.8721 20.4087 19.7981C20.944 19.6946 21.3275 20.0276 21.4998 20.6336C21.5201 20.7049 21.5631 20.7676 21.6222 20.8122C21.6814 20.8569 21.7535 20.881 21.8276 20.881C21.9017 20.881 21.9738 20.8569 22.0329 20.8122C22.0921 20.7676 22.1351 20.7049 22.1554 20.6336C22.3293 20.0273 22.7036 19.7158 23.1803 19.7869C23.4782 19.8464 23.7456 20.0092 23.9352 20.2465C24.1248 20.4839 24.2246 20.7806 24.2168 21.0843C24.2168 22.0814 23.2223 23.0201 22.4242 23.7749" fill="url(#paint6_linear_2660_211)"/>
<path d="M23.2775 19.1108C23.0011 19.0701 22.7188 19.1077 22.4627 19.2194C22.2066 19.3311 21.987 19.5123 21.8287 19.7426C21.6706 19.5119 21.4507 19.3304 21.1943 19.2187C20.9379 19.1071 20.6552 19.0698 20.3786 19.1111C19.9166 19.191 19.4986 19.4343 19.2009 19.7966C18.9033 20.1589 18.7457 20.6161 18.7569 21.0849C18.7569 22.3767 19.9157 23.471 20.7608 24.2715C21.0468 24.5197 21.3092 24.794 21.5444 25.0908C21.5757 25.1374 21.6181 25.1756 21.6677 25.202C21.7172 25.2284 21.7725 25.2422 21.8287 25.2422C21.8847 25.2414 21.9398 25.2272 21.9892 25.2008C22.0386 25.1744 22.081 25.1366 22.1127 25.0904C22.3485 24.7943 22.6107 24.5202 22.896 24.2715C23.742 23.4717 24.9012 22.3763 24.9012 21.0856C24.9121 20.6164 24.7542 20.159 24.4562 19.7964C24.1582 19.4339 23.7399 19.1905 23.2775 19.1104M22.4268 23.7752C22.203 23.9865 21.997 24.1809 21.8287 24.3617C21.6604 24.1799 21.4545 23.9858 21.2306 23.7742C20.4322 23.0201 19.4393 22.0814 19.4387 21.0846C19.432 20.7923 19.5241 20.5063 19.7001 20.2728C19.8762 20.0393 20.1258 19.8721 20.4087 19.7981C20.944 19.6946 21.3275 20.0276 21.4998 20.6336C21.5201 20.7049 21.5631 20.7676 21.6222 20.8122C21.6814 20.8569 21.7535 20.881 21.8276 20.881C21.9017 20.881 21.9738 20.8569 22.0329 20.8122C22.0921 20.7676 22.1351 20.7049 22.1554 20.6336C22.3293 20.0273 22.7036 19.7158 23.1803 19.7869C23.4782 19.8464 23.7456 20.0092 23.9352 20.2465C24.1248 20.4839 24.2246 20.7806 24.2168 21.0843C24.2168 22.0814 23.2223 23.0201 22.4242 23.7749" stroke="url(#paint7_linear_2660_211)" stroke-width="0.5"/>
</g>
</g>
<g id="Group_5">
<g id="Path 18366">
<path d="M15.7005 3.04237C15.5062 2.97168 15.2972 2.95174 15.093 2.98442C14.8889 3.01711 14.6965 3.10135 14.5341 3.22917C14.4376 3.04657 14.2962 2.89153 14.1232 2.77862C13.9503 2.66572 13.7515 2.59867 13.5455 2.58379C13.1722 2.5687 12.806 2.6883 12.5136 2.92075C12.2212 3.15321 12.022 3.48304 11.9526 3.85008C11.7429 4.83567 12.4372 5.84076 12.9444 6.57475C13.1116 6.79735 13.2588 7.03434 13.3842 7.28294C13.4049 7.33509 13.4383 7.3813 13.4812 7.41747C13.5242 7.45363 13.5754 7.47863 13.6303 7.49024C13.6852 7.50185 13.7422 7.49972 13.7961 7.48404C13.85 7.46835 13.8992 7.43959 13.9393 7.40031C14.1547 7.22415 14.3853 7.06738 14.6283 6.93182C15.3887 6.46895 16.4318 5.83217 16.6398 4.84658C16.7271 4.48326 16.6802 4.10062 16.5077 3.76915C16.3353 3.43767 16.0488 3.17968 15.7012 3.0427M15.9729 4.70507C15.8248 5.40203 14.9645 5.92838 14.2732 6.3486C14.1049 6.45109 13.9482 6.54698 13.8103 6.63988C13.7214 6.4987 13.6176 6.34827 13.5055 6.1866C13.0456 5.52039 12.4723 4.68986 12.6197 3.99125C12.6553 3.7852 12.7633 3.59864 12.9244 3.46525C13.0854 3.33187 13.2888 3.26045 13.4979 3.26388C13.8645 3.28438 14.017 3.62922 14.0408 3.96943C14.0457 4.04343 14.0747 4.11378 14.1233 4.16982C14.1718 4.22586 14.2374 4.26454 14.3099 4.27998C14.3824 4.29542 14.458 4.28679 14.5252 4.25539C14.5924 4.22399 14.6475 4.17153 14.6822 4.10598C14.8862 3.72312 15.1646 3.57335 15.4661 3.68278C15.6559 3.76766 15.8103 3.91599 15.9027 4.1023C15.995 4.28861 16.0196 4.50127 15.9723 4.70375" fill="url(#paint8_linear_2660_211)"/>
<path d="M15.7005 3.04237C15.5062 2.97168 15.2972 2.95174 15.093 2.98442C14.8889 3.01711 14.6965 3.10135 14.5341 3.22917C14.4376 3.04657 14.2962 2.89153 14.1232 2.77862C13.9503 2.66572 13.7515 2.59867 13.5455 2.58379C13.1722 2.5687 12.806 2.6883 12.5136 2.92075C12.2212 3.15321 12.022 3.48304 11.9526 3.85008C11.7429 4.83567 12.4372 5.84076 12.9444 6.57475C13.1116 6.79735 13.2588 7.03434 13.3842 7.28294C13.4049 7.33509 13.4383 7.3813 13.4812 7.41747C13.5242 7.45363 13.5754 7.47863 13.6303 7.49024C13.6852 7.50185 13.7422 7.49972 13.7961 7.48404C13.85 7.46835 13.8992 7.43959 13.9393 7.40032C14.1547 7.22415 14.3853 7.06738 14.6283 6.93182C15.3887 6.46895 16.4318 5.83217 16.6398 4.84658C16.7271 4.48326 16.6802 4.10062 16.5077 3.76915C16.3353 3.43767 16.0488 3.17968 15.7012 3.0427M15.9729 4.70507C15.8248 5.40203 14.9645 5.92838 14.2732 6.3486C14.1049 6.45109 13.9482 6.54698 13.8103 6.63988C13.7214 6.4987 13.6176 6.34827 13.5055 6.1866C13.0456 5.52039 12.4723 4.68986 12.6197 3.99125C12.6553 3.7852 12.7633 3.59864 12.9244 3.46525C13.0854 3.33187 13.2888 3.26045 13.4979 3.26388C13.8645 3.28438 14.017 3.62922 14.0408 3.96943C14.0457 4.04343 14.0747 4.11378 14.1233 4.16982C14.1718 4.22586 14.2374 4.26454 14.3099 4.27998C14.3824 4.29542 14.458 4.28679 14.5252 4.25539C14.5924 4.22399 14.6475 4.17153 14.6822 4.10598C14.8862 3.72312 15.1646 3.57335 15.4661 3.68278C15.6559 3.76766 15.8103 3.91599 15.9027 4.1023C15.995 4.28861 16.0196 4.50127 15.9723 4.70375" stroke="url(#paint9_linear_2660_211)" stroke-width="0.5"/>
</g>
</g>
<g id="Group_6">
<path id="Path 18367" d="M27.6498 4.1734L12.8977 1.03247C12.4551 0.9457 11.9961 1.0344 11.6176 1.27982C11.2392 1.52524 10.971 1.90817 10.8697 2.34769L6.32226 23.789C6.27459 24.0088 6.27079 24.2358 6.31107 24.4571C6.35136 24.6783 6.43493 24.8895 6.55701 25.0783C6.67908 25.2672 6.83725 25.4301 7.02244 25.5578C7.20763 25.6854 7.41619 25.7752 7.63616 25.822C7.63616 25.822 8.5305 26.0326 8.85517 26.0756C8.93935 26.0753 9.02048 26.044 9.08296 25.9876C9.14544 25.9312 9.18486 25.8537 9.19364 25.7699C9.20242 25.6862 9.17994 25.6022 9.13052 25.5341C9.0811 25.4659 9.00823 25.4184 8.92593 25.4008L7.77635 25.1541C7.64446 25.1258 7.51946 25.0717 7.40851 24.995C7.29757 24.9183 7.20286 24.8204 7.12981 24.707C7.05677 24.5936 7.00683 24.4669 6.98286 24.3342C6.95889 24.2014 6.96136 24.0652 6.99012 23.9334L11.5372 2.49019C11.5989 2.22627 11.7603 1.99647 11.9877 1.84897C12.2151 1.70147 12.4907 1.64773 12.7569 1.69901L27.5103 4.84192C27.6424 4.86988 27.7676 4.92372 27.8788 5.00033C27.99 5.07695 28.0849 5.17482 28.158 5.2883C28.2312 5.40179 28.2812 5.52864 28.305 5.66153C28.3289 5.79442 28.3262 5.93073 28.2972 6.06258L26.3574 15.1732C26.3479 15.2171 26.3471 15.2624 26.3552 15.3065C26.3633 15.3506 26.38 15.3927 26.4044 15.4303C26.4289 15.4679 26.4605 15.5003 26.4976 15.5255C26.5346 15.5508 26.5763 15.5685 26.6202 15.5776C26.6641 15.5883 26.7097 15.59 26.7542 15.5824C26.7988 15.5748 26.8413 15.5582 26.8791 15.5336C26.917 15.509 26.9494 15.4768 26.9743 15.4392C26.9993 15.4016 27.0163 15.3592 27.0243 15.3148L28.9663 6.20012C29.0577 5.75703 28.9707 5.29579 28.7243 4.9164C28.4778 4.53701 28.0918 4.27005 27.6498 4.1734Z" fill="url(#paint10_linear_2660_211)" stroke="url(#paint11_linear_2660_211)" stroke-width="0.5"/>
</g>
<g id="Group_7">
<g id="Path 18368">
<path d="M21.8266 14.6553C20.4083 14.6551 19.0217 15.0755 17.8423 15.8634C16.6628 16.6512 15.7435 17.7711 15.2006 19.0815C14.6577 20.3919 14.5155 21.8338 14.7921 23.2249C15.0687 24.6161 15.7516 25.894 16.7545 26.897C17.7574 27.9 19.0351 28.5831 20.4262 28.8599C21.8174 29.1366 23.2593 28.9947 24.5697 28.452C25.8802 27.9092 27.0002 26.99 27.7882 25.8107C28.5763 24.6314 28.9969 23.2449 28.9969 21.8265C28.9947 19.9254 28.2386 18.1028 26.8944 16.7584C25.5502 15.4141 23.7277 14.6577 21.8266 14.6553ZM22.1682 15.3473C23.6511 15.4247 25.0621 16.0104 26.1638 17.006L25.1931 17.9757C24.3538 17.2295 23.289 16.7857 22.1682 16.7151V15.3473ZM17.0055 17.4891L17.9752 18.4598C17.2291 19.2992 16.7854 20.3641 16.7149 21.485H15.3471C15.4244 20.002 16.01 18.591 17.0055 17.4891ZM21.4841 28.3057C20.0013 28.2283 18.5905 27.6425 17.4889 26.647L18.4592 25.6776C19.2985 26.4238 20.3633 26.8676 21.4841 26.9383V28.3057ZM26.6452 26.164L25.6758 25.1932C26.4219 24.3539 26.8656 23.2889 26.9361 22.168H28.3036C28.2262 23.651 27.6404 25.0621 26.6448 26.164M26.6051 21.485C26.5146 21.4851 26.4278 21.5212 26.3638 21.5852C26.2998 21.6492 26.2638 21.736 26.2636 21.8265C26.2648 22.4088 26.1502 22.9855 25.9262 23.523C25.7023 24.0605 25.3736 24.548 24.9593 24.9572C24.9272 24.9888 24.9017 25.0265 24.8843 25.0681C24.8669 25.1097 24.8579 25.1543 24.8579 25.1994C24.8579 25.2444 24.8669 25.2891 24.8843 25.3306C24.9017 25.3722 24.9272 25.4099 24.9593 25.4415L26.1634 26.647C25.0617 27.6426 23.6507 28.2283 22.1678 28.3057V26.6073C22.1677 26.5168 22.1316 26.43 22.0676 26.366C22.0036 26.302 21.9168 26.266 21.8263 26.2658C21.2441 26.267 20.6674 26.1522 20.1299 25.9283C19.5925 25.7043 19.105 25.3755 18.696 24.9612C18.6643 24.9291 18.6267 24.9036 18.5851 24.8862C18.5436 24.8689 18.499 24.8599 18.4539 24.8599C18.4089 24.8599 18.3643 24.8689 18.3228 24.8862C18.2812 24.9036 18.2436 24.9291 18.2119 24.9612L17.0055 26.164C16.0099 25.0621 15.4241 23.651 15.3467 22.168H17.0452C17.1357 22.1679 17.2225 22.1318 17.2865 22.0678C17.3505 22.0038 17.3865 21.917 17.3867 21.8265C17.3857 21.2445 17.5006 20.668 17.7247 20.1308C17.9487 19.5936 18.2774 19.1064 18.6917 18.6975C18.7238 18.6659 18.7493 18.6282 18.7667 18.5866C18.7841 18.545 18.7931 18.5004 18.7931 18.4553C18.7931 18.4102 18.7841 18.3656 18.7667 18.324C18.7493 18.2824 18.7238 18.2447 18.6917 18.2131L17.4875 17.0077C18.5892 16.0119 20.0002 15.426 21.4831 15.3486V17.0473C21.4833 17.1379 21.5193 17.2246 21.5833 17.2886C21.6474 17.3527 21.7341 17.3887 21.8247 17.3889C22.4069 17.3877 22.9836 17.5024 23.521 17.7264C24.0585 17.9504 24.546 18.2791 24.955 18.6935C24.9866 18.7256 25.0243 18.751 25.0659 18.7684C25.1074 18.7858 25.152 18.7948 25.197 18.7948C25.2421 18.7948 25.2866 18.7858 25.3282 18.7684C25.3697 18.751 25.4074 18.7256 25.439 18.6935L26.6445 17.4891C27.64 18.5909 28.2256 20.002 28.3029 21.485H26.6051Z" fill="url(#paint12_linear_2660_211)"/>
<path d="M26.6452 26.164L25.6758 25.1932C26.4219 24.3539 26.8656 23.2889 26.9361 22.168H28.3036C28.2262 23.651 27.6404 25.0621 26.6448 26.164M21.8266 14.6553C20.4083 14.6551 19.0217 15.0755 17.8423 15.8634C16.6628 16.6512 15.7435 17.7711 15.2006 19.0815C14.6577 20.3919 14.5155 21.8338 14.7921 23.2249C15.0687 24.6161 15.7516 25.894 16.7545 26.897C17.7574 27.9 19.0351 28.5831 20.4262 28.8599C21.8174 29.1366 23.2593 28.9947 24.5697 28.452C25.8802 27.9092 27.0002 26.99 27.7882 25.8107C28.5763 24.6314 28.9969 23.2449 28.9969 21.8265C28.9947 19.9254 28.2386 18.1028 26.8944 16.7584C25.5502 15.4141 23.7277 14.6577 21.8266 14.6553ZM22.1682 15.3473C23.6511 15.4247 25.0621 16.0104 26.1638 17.006L25.1931 17.9757C24.3538 17.2295 23.289 16.7857 22.1682 16.7151V15.3473ZM17.0055 17.4891L17.9752 18.4598C17.2291 19.2992 16.7854 20.3641 16.7149 21.485H15.3471C15.4244 20.002 16.01 18.591 17.0055 17.4891ZM21.4841 28.3057C20.0013 28.2283 18.5905 27.6425 17.4889 26.647L18.4592 25.6776C19.2985 26.4238 20.3633 26.8676 21.4841 26.9383V28.3057ZM26.6051 21.485C26.5146 21.4851 26.4278 21.5212 26.3638 21.5852C26.2998 21.6492 26.2638 21.736 26.2636 21.8265C26.2648 22.4088 26.1502 22.9855 25.9262 23.523C25.7023 24.0605 25.3736 24.548 24.9593 24.9572C24.9272 24.9888 24.9017 25.0265 24.8843 25.0681C24.8669 25.1097 24.8579 25.1543 24.8579 25.1994C24.8579 25.2444 24.8669 25.2891 24.8843 25.3306C24.9017 25.3722 24.9272 25.4099 24.9593 25.4415L26.1634 26.647C25.0617 27.6426 23.6507 28.2283 22.1678 28.3057V26.6073C22.1677 26.5168 22.1316 26.43 22.0676 26.366C22.0036 26.302 21.9168 26.266 21.8263 26.2658C21.2441 26.267 20.6674 26.1522 20.1299 25.9283C19.5925 25.7043 19.105 25.3755 18.696 24.9612C18.6643 24.9291 18.6267 24.9036 18.5851 24.8862C18.5436 24.8689 18.499 24.8599 18.4539 24.8599C18.4089 24.8599 18.3643 24.8689 18.3228 24.8862C18.2812 24.9036 18.2436 24.9291 18.2119 24.9612L17.0055 26.164C16.0099 25.0621 15.4241 23.651 15.3467 22.168H17.0452C17.1357 22.1679 17.2225 22.1318 17.2865 22.0678C17.3505 22.0038 17.3865 21.917 17.3867 21.8265C17.3857 21.2445 17.5006 20.668 17.7247 20.1308C17.9487 19.5936 18.2774 19.1064 18.6917 18.6975C18.7238 18.6659 18.7493 18.6282 18.7667 18.5866C18.7841 18.545 18.7931 18.5004 18.7931 18.4553C18.7931 18.4102 18.7841 18.3656 18.7667 18.324C18.7493 18.2824 18.7238 18.2447 18.6917 18.2131L17.4875 17.0077C18.5892 16.0119 20.0002 15.426 21.4831 15.3486V17.0473C21.4833 17.1379 21.5193 17.2246 21.5833 17.2886C21.6474 17.3527 21.7341 17.3887 21.8247 17.3889C22.4069 17.3877 22.9836 17.5024 23.521 17.7264C24.0585 17.9504 24.546 18.2791 24.955 18.6935C24.9866 18.7256 25.0243 18.751 25.0659 18.7684C25.1074 18.7858 25.152 18.7948 25.197 18.7948C25.2421 18.7948 25.2866 18.7858 25.3282 18.7684C25.3697 18.751 25.4074 18.7256 25.439 18.6935L26.6445 17.4891C27.64 18.5909 28.2256 20.002 28.3029 21.485H26.6051Z" stroke="url(#paint13_linear_2660_211)" stroke-width="0.5"/>
</g>
</g>
<g id="Group_8">
<path id="Path 18369" d="M9.87719 27.9741C9.87564 28.1091 9.9011 28.2431 9.95205 28.3681C10.003 28.4932 10.0785 28.6068 10.1739 28.7022C10.2694 28.7977 10.383 28.8732 10.5081 28.9241C10.6331 28.9751 10.7671 29.0005 10.9021 28.999H17.3063C17.3969 28.999 17.4838 28.963 17.5478 28.899C17.6119 28.8349 17.6478 28.748 17.6478 28.6575C17.6478 28.5669 17.6119 28.48 17.5478 28.416C17.4838 28.3519 17.3969 28.3159 17.3063 28.3159H10.9015C10.8563 28.317 10.8115 28.3088 10.7695 28.292C10.7276 28.2752 10.6896 28.2501 10.6576 28.2182C10.6257 28.1863 10.6006 28.1482 10.5838 28.1063C10.567 28.0644 10.5589 28.0195 10.5599 27.9744V27.2913C10.5589 27.2462 10.567 27.2013 10.5838 27.1594C10.6006 27.1175 10.6257 27.0794 10.6576 27.0475C10.6896 27.0156 10.7276 26.9905 10.7695 26.9737C10.8115 26.9569 10.8563 26.9487 10.9015 26.9498H15.1761C15.2667 26.9498 15.3536 26.9138 15.4176 26.8498C15.4817 26.7857 15.5176 26.6988 15.5176 26.6083C15.5176 26.5177 15.4817 26.4308 15.4176 26.3668C15.3536 26.3027 15.2667 26.2667 15.1761 26.2667H10.9015C10.8563 26.2678 10.8115 26.2596 10.7695 26.2428C10.7276 26.226 10.6896 26.2009 10.6576 26.169C10.6257 26.1371 10.6006 26.099 10.5838 26.0571C10.567 26.0152 10.5589 25.9703 10.5599 25.9252V25.2421C10.5589 25.197 10.567 25.1521 10.5838 25.1102C10.6006 25.0683 10.6257 25.0302 10.6576 24.9983C10.6896 24.9664 10.7276 24.9413 10.7695 24.9245C10.8115 24.9077 10.8563 24.8995 10.9015 24.9006H14.1112C14.2017 24.9006 14.2886 24.8646 14.3527 24.8005C14.4167 24.7365 14.4527 24.6496 14.4527 24.559C14.4527 24.4685 14.4167 24.3816 14.3527 24.3175C14.2886 24.2535 14.2017 24.2175 14.1112 24.2175H10.9015C10.8563 24.2185 10.8115 24.2104 10.7695 24.1936C10.7276 24.1768 10.6896 24.1517 10.6576 24.1198C10.6257 24.0879 10.6006 24.0498 10.5838 24.0079C10.567 23.966 10.5589 23.9211 10.5599 23.876V23.1929C10.5589 23.1478 10.567 23.1029 10.5838 23.061C10.6006 23.0191 10.6257 22.981 10.6576 22.9491C10.6896 22.9172 10.7276 22.8921 10.7695 22.8753C10.8115 22.8585 10.8563 22.8503 10.9015 22.8514H13.6602C13.7508 22.8514 13.8376 22.8154 13.9017 22.7513C13.9657 22.6873 14.0017 22.6004 14.0017 22.5098C14.0017 22.4193 13.9657 22.3324 13.9017 22.2683C13.8376 22.2043 13.7508 22.1683 13.6602 22.1683H10.9015C10.8563 22.1693 10.8115 22.1612 10.7695 22.1444C10.7276 22.1276 10.6896 22.1025 10.6576 22.0706C10.6257 22.0387 10.6006 22.0006 10.5838 21.9587C10.567 21.9168 10.5589 21.8719 10.5599 21.8268V21.1437C10.5589 21.0986 10.567 21.0537 10.5838 21.0118C10.6006 20.9699 10.6257 20.9318 10.6576 20.8999C10.6896 20.868 10.7276 20.8428 10.7695 20.826C10.8115 20.8092 10.8563 20.8011 10.9015 20.8022H13.7557C13.8006 20.8022 13.845 20.7933 13.8864 20.7762C13.9279 20.759 13.9655 20.7339 13.9972 20.7021C14.029 20.6704 14.0541 20.6328 14.0713 20.5913C14.0884 20.5499 14.0973 20.5055 14.0973 20.4606C14.0973 20.4158 14.0884 20.3714 14.0713 20.3299C14.0541 20.2885 14.029 20.2508 13.9972 20.2191C13.9655 20.1874 13.9279 20.1623 13.8864 20.1451C13.845 20.1279 13.8006 20.1191 13.7557 20.1191H10.9015C10.8563 20.1201 10.8115 20.112 10.7695 20.0952C10.7276 20.0784 10.6896 20.0533 10.6576 20.0214C10.6257 19.9895 10.6006 19.9514 10.5838 19.9095C10.567 19.8676 10.5589 19.8227 10.5599 19.7776V19.0945C10.5589 19.0494 10.567 19.0045 10.5838 18.9626C10.6006 18.9207 10.6257 18.8826 10.6576 18.8507C10.6896 18.8188 10.7276 18.7936 10.7695 18.7768C10.8115 18.76 10.8563 18.7519 10.9015 18.753H14.3839C14.4745 18.753 14.5614 18.717 14.6254 18.6529C14.6895 18.5889 14.7255 18.502 14.7255 18.4114C14.7255 18.3208 14.6895 18.234 14.6254 18.1699C14.5614 18.1059 14.4745 18.0699 14.3839 18.0699H10.9015C10.7664 18.0683 10.6325 18.0938 10.5074 18.1447C10.3824 18.1957 10.2688 18.2711 10.1733 18.3666C10.0778 18.4621 10.0024 18.5757 9.95139 18.7008C9.90043 18.8258 9.87498 18.9598 9.87653 19.0948V19.7779C9.87575 20.0299 9.96832 20.2732 10.1364 20.461C9.96832 20.6487 9.87575 20.892 9.87653 21.144V21.8271C9.87575 22.0791 9.96832 22.3224 10.1364 22.5102C9.96832 22.6979 9.87575 22.9413 9.87653 23.1932V23.8763C9.87578 24.1283 9.96835 24.3716 10.1364 24.5594C9.9683 24.7471 9.87571 24.9905 9.87653 25.2424V25.9255C9.87575 26.1775 9.96832 26.4208 10.1364 26.6086C9.96832 26.7963 9.87575 27.0397 9.87653 27.2916L9.87719 27.9741Z" fill="url(#paint14_linear_2660_211)" stroke="url(#paint15_linear_2660_211)" stroke-width="0.5"/>
</g>
</g>
<defs>
<linearGradient id="paint0_linear_2660_211" x1="15.0742" y1="9.00859" x2="19.2681" y2="22.2859" gradientUnits="userSpaceOnUse">
<stop stop-color="#3463AF"/>
<stop offset="0.228" stop-color="#2C5391"/>
<stop offset="0.561" stop-color="#223655"/>
<stop offset="1" stop-color="#032146"/>
</linearGradient>
<linearGradient id="paint1_linear_2660_211" x1="15.0742" y1="9.00859" x2="19.2681" y2="22.2859" gradientUnits="userSpaceOnUse">
<stop stop-color="#3463AF"/>
<stop offset="0.228" stop-color="#2C5391"/>
<stop offset="0.561" stop-color="#223655"/>
<stop offset="1" stop-color="#032146"/>
</linearGradient>
<linearGradient id="paint2_linear_2660_211" x1="2.08179" y1="-6.24288" x2="34.8571" y2="21.3471" gradientUnits="userSpaceOnUse">
<stop stop-color="#3463AF"/>
<stop offset="0.228" stop-color="#2C5391"/>
<stop offset="0.561" stop-color="#223655"/>
<stop offset="1" stop-color="#032146"/>
</linearGradient>
<linearGradient id="paint3_linear_2660_211" x1="2.08179" y1="-6.24288" x2="34.8571" y2="21.3471" gradientUnits="userSpaceOnUse">
<stop stop-color="#3463AF"/>
<stop offset="0.228" stop-color="#2C5391"/>
<stop offset="0.561" stop-color="#223655"/>
<stop offset="1" stop-color="#032146"/>
</linearGradient>
<linearGradient id="paint4_linear_2660_211" x1="3.36453" y1="3.48843" x2="7.52061" y2="13.6681" gradientUnits="userSpaceOnUse">
<stop stop-color="#3463AF"/>
<stop offset="0.228" stop-color="#2C5391"/>
<stop offset="0.561" stop-color="#223655"/>
<stop offset="1" stop-color="#032146"/>
</linearGradient>
<linearGradient id="paint5_linear_2660_211" x1="3.36453" y1="3.48843" x2="7.52061" y2="13.6681" gradientUnits="userSpaceOnUse">
<stop stop-color="#3463AF"/>
<stop offset="0.228" stop-color="#2C5391"/>
<stop offset="0.561" stop-color="#223655"/>
<stop offset="1" stop-color="#032146"/>
</linearGradient>
<linearGradient id="paint6_linear_2660_211" x1="19.4938" y1="17.0292" x2="24.9049" y2="30.331" gradientUnits="userSpaceOnUse">
<stop stop-color="#3463AF"/>
<stop offset="0.228" stop-color="#2C5391"/>
<stop offset="0.561" stop-color="#223655"/>
<stop offset="1" stop-color="#032146"/>
</linearGradient>
<linearGradient id="paint7_linear_2660_211" x1="19.4938" y1="17.0292" x2="24.9049" y2="30.331" gradientUnits="userSpaceOnUse">
<stop stop-color="#3463AF"/>
<stop offset="0.228" stop-color="#2C5391"/>
<stop offset="0.561" stop-color="#223655"/>
<stop offset="1" stop-color="#032146"/>
</linearGradient>
<linearGradient id="paint8_linear_2660_211" x1="12.4864" y1="0.931048" x2="16.9055" y2="11.4739" gradientUnits="userSpaceOnUse">
<stop stop-color="#3463AF"/>
<stop offset="0.228" stop-color="#2C5391"/>
<stop offset="0.561" stop-color="#223655"/>
<stop offset="1" stop-color="#032146"/>
</linearGradient>
<linearGradient id="paint9_linear_2660_211" x1="12.4864" y1="0.931048" x2="16.9055" y2="11.4739" gradientUnits="userSpaceOnUse">
<stop stop-color="#3463AF"/>
<stop offset="0.228" stop-color="#2C5391"/>
<stop offset="0.561" stop-color="#223655"/>
<stop offset="1" stop-color="#032146"/>
</linearGradient>
<linearGradient id="paint10_linear_2660_211" x1="9.00965" y1="-7.42539" x2="32.634" y2="45.2078" gradientUnits="userSpaceOnUse">
<stop stop-color="#3463AF"/>
<stop offset="0.228" stop-color="#2C5391"/>
<stop offset="0.561" stop-color="#223655"/>
<stop offset="1" stop-color="#032146"/>
</linearGradient>
<linearGradient id="paint11_linear_2660_211" x1="9.00965" y1="-7.42539" x2="32.634" y2="45.2078" gradientUnits="userSpaceOnUse">
<stop stop-color="#3463AF"/>
<stop offset="0.228" stop-color="#2C5391"/>
<stop offset="0.561" stop-color="#223655"/>
<stop offset="1" stop-color="#032146"/>
</linearGradient>
<linearGradient id="paint12_linear_2660_211" x1="16.3755" y1="9.83621" x2="28.9969" y2="40.8733" gradientUnits="userSpaceOnUse">
<stop stop-color="#3463AF"/>
<stop offset="0.228" stop-color="#2C5391"/>
<stop offset="0.561" stop-color="#223655"/>
<stop offset="1" stop-color="#032146"/>
</linearGradient>
<linearGradient id="paint13_linear_2660_211" x1="16.3755" y1="9.83621" x2="28.9969" y2="40.8733" gradientUnits="userSpaceOnUse">
<stop stop-color="#3463AF"/>
<stop offset="0.228" stop-color="#2C5391"/>
<stop offset="0.561" stop-color="#223655"/>
<stop offset="1" stop-color="#032146"/>
</linearGradient>
<linearGradient id="paint14_linear_2660_211" x1="10.809" y1="14.3976" x2="22.6868" y2="35.1667" gradientUnits="userSpaceOnUse">
<stop stop-color="#3463AF"/>
<stop offset="0.228" stop-color="#2C5391"/>
<stop offset="0.561" stop-color="#223655"/>
<stop offset="1" stop-color="#032146"/>
</linearGradient>
<linearGradient id="paint15_linear_2660_211" x1="10.809" y1="14.3976" x2="22.6868" y2="35.1667" gradientUnits="userSpaceOnUse">
<stop stop-color="#3463AF"/>
<stop offset="0.228" stop-color="#2C5391"/>
<stop offset="0.561" stop-color="#223655"/>
<stop offset="1" stop-color="#032146"/>
</linearGradient>
</defs>
</svg>
