<svg width="30" height="28" viewBox="0 0 30 28" fill="none" xmlns="http://www.w3.org/2000/svg">
<g id="Group 25614">
<g id="Group 25612">
<g id="Clip path group">
<mask id="mask0_2660_172" style="mask-type:luminance" maskUnits="userSpaceOnUse" x="0" y="1" width="30" height="28">
<g id="clip-path">
<path id="Rectangle 8322" d="M29.0828 1.29004H0.917114V28.0003H29.0828V1.29004Z" fill="white"/>
</g>
</mask>
<g mask="url(#mask0_2660_172)">
<g id="Group 25580">
<path id="Path 18458" d="M29.0828 17.8365C28.9496 17.9568 28.8082 18.0677 28.6596 18.1683C27.7351 18.7108 26.8057 19.2433 25.8766 19.7772C25.505 19.9909 25.3048 19.9345 25.0872 19.5629C24.9904 19.3977 24.8955 19.2311 24.7842 19.0385L22.3699 20.4263C22.5517 20.6939 22.6563 21.0063 22.6724 21.3294C22.6885 21.6524 22.6154 21.9737 22.4612 22.258C22.3069 22.5423 22.0774 22.7787 21.7978 22.9413C21.5181 23.1039 21.1992 23.1865 20.8758 23.18C20.6268 24.4628 20.1873 24.9012 19.0311 25.0083C19.0363 25.2727 18.9833 25.535 18.8762 25.7768C18.769 26.0185 18.6101 26.2338 18.4108 26.4075C18.2093 26.577 17.9727 26.6997 17.718 26.7666C17.4634 26.8336 17.1971 26.8431 16.9383 26.7947C16.9068 26.8869 16.8819 26.9642 16.8539 27.0404C16.7764 27.2595 16.6469 27.4566 16.4765 27.6147C16.3061 27.7727 16.1 27.8872 15.8757 27.9481C15.6514 28.0091 15.4157 28.0148 15.1887 27.9647C14.9618 27.9146 14.7504 27.8102 14.5726 27.6605C14.5156 27.6047 14.4448 27.5649 14.3675 27.5453C14.2901 27.5258 14.209 27.527 14.1323 27.549C13.8009 27.6147 13.457 27.561 13.1614 27.3974C12.8659 27.2338 12.6377 26.9709 12.5174 26.6552C12.4851 26.5706 12.4607 26.483 12.4263 26.3772C12.165 26.4252 11.8962 26.4144 11.6396 26.3457C11.3829 26.277 11.1448 26.1519 10.9424 25.9798C10.7475 25.8073 10.5919 25.5951 10.486 25.3575C10.3801 25.1198 10.3264 24.8622 10.3285 24.602C9.04408 24.3611 8.65997 23.9745 8.48771 22.7522C8.21414 22.7608 7.94237 22.705 7.69427 22.5894C7.44618 22.4738 7.22868 22.3016 7.05927 22.0866C6.88986 21.8716 6.77328 21.6199 6.71889 21.3517C6.66451 21.0834 6.67385 20.8061 6.74616 20.5422L4.96988 19.504L4.84076 19.6828C4.81395 19.7343 4.77672 19.7797 4.73143 19.8162C4.68614 19.8526 4.63377 19.8791 4.57766 19.8942C4.52155 19.9093 4.46291 19.9126 4.40547 19.9039C4.34802 19.8951 4.29303 19.8745 4.24397 19.8434C3.20157 19.25 2.1626 18.65 1.12708 18.0435C1.04869 17.9836 0.97815 17.914 0.917114 17.8365L0.917114 17.5064C0.968656 17.4342 1.02562 17.3659 1.0712 17.2894C2.36316 15.053 3.65432 12.816 4.94466 10.5784C5.20073 10.1349 5.36729 10.0901 5.80648 10.3419C6.71921 10.8674 7.63158 11.3934 8.54359 11.9199C9.01967 12.1952 9.05439 12.3219 8.80374 12.8194C8.7902 12.8528 8.7794 12.8873 8.77146 12.9225C9.63464 12.9225 10.4848 12.9268 11.3347 12.9173C11.4529 12.9031 11.5668 12.864 11.6689 12.8026C11.9648 12.6577 12.2597 12.5093 12.5486 12.3512C12.7944 12.1942 13.0807 12.1123 13.3723 12.1153C13.6639 12.1184 13.9484 12.2062 14.1909 12.3683C14.6832 12.6965 15.1184 12.7497 15.6332 12.4092C15.8189 12.3059 16.026 12.2472 16.2383 12.2378C16.4505 12.2284 16.662 12.2685 16.8561 12.355C17.8886 12.7014 18.9316 13.0198 19.9518 13.3985C20.1946 13.4885 20.4547 13.5215 20.7123 13.495C20.9698 13.4685 21.2177 13.3831 21.437 13.2455C21.3285 13.0535 21.216 12.8658 21.1142 12.6759C21.0766 12.6228 21.0512 12.5621 21.0399 12.4981C21.0286 12.4341 21.0315 12.3684 21.0486 12.3057C21.0657 12.243 21.0965 12.1848 21.1388 12.1354C21.181 12.086 21.2337 12.0466 21.293 12.0199C22.2978 11.434 23.3048 10.852 24.3141 10.2741C24.6196 10.0996 24.8203 10.1791 25.0257 10.5345C26.3229 12.7786 27.6198 15.0228 28.9165 17.2671C28.9653 17.3515 29.0272 17.4282 29.0828 17.5085V17.8365ZM17.6561 19.9633C17.6473 19.6181 17.7378 19.2777 17.9169 18.9825C18.0959 18.6873 18.3559 18.4497 18.666 18.2979C17.9336 17.747 17.2185 17.2337 16.5325 16.6855C16.2146 16.4214 15.814 16.2774 15.4007 16.2786C15.2593 16.2647 15.1168 16.2924 14.9909 16.3584C14.8649 16.4244 14.761 16.5257 14.6919 16.65C14.4871 16.9969 14.2755 17.3401 14.0647 17.6835C13.9659 17.8668 13.8115 18.0139 13.6236 18.1037C13.4357 18.1935 13.2242 18.2212 13.0195 18.1829C12.7211 18.1422 12.4195 18.1105 12.12 18.0695C11.38 17.9689 11.029 17.4331 11.2294 16.7107C11.3689 16.2081 11.5365 15.7117 11.6461 15.2028C11.7029 14.8764 11.8449 14.5708 12.0578 14.317C12.2706 14.0632 12.5467 13.87 12.8581 13.7572C13.2151 13.6137 13.5515 13.4192 13.9188 13.2371C13.7921 13.1124 13.6266 13.0346 13.4498 13.0165C13.2729 12.9984 13.0951 13.0411 12.9458 13.1376C12.7016 13.2822 12.4385 13.3926 12.1914 13.5312C11.8467 13.7247 11.4567 13.823 11.0615 13.8158C10.2092 13.8103 9.35686 13.8309 8.50453 13.8258C8.41542 13.8164 8.32562 13.8352 8.24777 13.8795C8.16991 13.9239 8.10791 13.9915 8.0705 14.0729C7.232 15.5451 6.38184 17.0102 5.53575 18.4781C5.49126 18.5554 5.45193 18.6359 5.40012 18.7328L7.19945 19.7891C7.73005 19.2544 8.23461 18.7225 8.7644 18.2174C8.97779 18.0111 9.24079 17.8634 9.52798 17.7886C9.81516 17.7137 10.1168 17.7142 10.4037 17.7901C10.6906 17.866 10.9531 18.0146 11.1658 18.2216C11.3784 18.4286 11.5341 18.687 11.6176 18.9718C11.6631 19.164 11.6985 19.3585 11.7234 19.5545C11.9605 19.5504 12.1961 19.5933 12.4166 19.6806C12.6371 19.7679 12.8381 19.898 13.0081 20.0634C13.1799 20.2379 13.3148 20.4453 13.4048 20.6731C13.4948 20.9009 13.5381 21.1445 13.532 21.3893C13.7782 21.382 14.0233 21.4246 14.2527 21.5145C14.482 21.6045 14.6907 21.7399 14.8663 21.9126C14.8943 21.9315 14.9258 21.9445 14.9589 21.9507C14.992 21.9569 15.0261 21.9562 15.0589 21.9487C15.3069 21.8966 15.5518 21.8304 15.8047 21.7678C16.0149 20.547 16.4828 20.0786 17.6542 19.9635M21.7577 19.7612L24.3432 18.2738L21.8993 14.042C21.7699 14.0878 21.6551 14.1179 21.5483 14.1681C21.2503 14.3096 20.9261 14.3873 20.5964 14.3962C20.2667 14.4051 19.9388 14.3449 19.6336 14.2197C18.6299 13.8521 17.6089 13.5282 16.5873 13.2116C16.3816 13.1469 16.16 13.1538 15.9587 13.2312C14.9472 13.7026 13.9478 14.2001 12.9547 14.709C12.7957 14.7954 12.6728 14.9356 12.608 15.1046C12.41 15.7127 12.2554 16.335 12.075 16.9492C12.024 17.1231 12.0869 17.1833 12.2483 17.2007C12.5123 17.2291 12.7773 17.2549 13.038 17.3024C13.1034 17.3208 13.1733 17.3144 13.2343 17.2844C13.2952 17.2543 13.3429 17.2027 13.3681 17.1396C13.5746 16.7832 13.787 16.4297 14.0118 16.0849C14.1305 15.8871 14.2964 15.7219 14.4947 15.6041C14.693 15.4863 14.9175 15.4196 15.1479 15.41C15.819 15.378 16.4682 15.4466 16.9926 15.9414C17.0918 16.035 17.2134 16.1042 17.3211 16.1899C18.7976 17.3583 20.429 18.3348 21.7116 19.7435C21.717 19.7498 21.7281 19.7509 21.7569 19.7628M7.92211 12.5834L5.58377 11.2314L1.95987 17.5123L4.29768 18.863L7.92428 12.5817M28.0414 17.5134L24.4137 11.2297L22.0762 12.5836L25.7022 18.8611L28.0414 17.5134ZM10.3527 23.6908C10.5058 23.6509 10.6502 23.583 10.7786 23.4906C11.3445 22.9554 11.8995 22.4074 12.4333 21.8407C12.5763 21.6812 12.6514 21.4722 12.6426 21.2581C12.6339 21.0441 12.5419 20.8419 12.3864 20.6946C12.2371 20.5414 12.0345 20.4516 11.8207 20.444C11.6069 20.4363 11.3983 20.5113 11.2384 20.6534C10.6794 21.1827 10.1348 21.7271 9.60453 22.2864C9.48747 22.4064 9.41211 22.5608 9.38959 22.7269C9.36707 22.893 9.39859 23.0619 9.47947 23.2087C9.63111 23.5307 9.89967 23.6799 10.3519 23.6911M19.5262 19.0366C19.052 19.0491 18.781 19.201 18.6346 19.5225C18.554 19.6744 18.5244 19.8483 18.5503 20.0184C18.5762 20.1884 18.6561 20.3456 18.7783 20.4667C19.2937 21.0009 19.8173 21.5282 20.3517 22.0434C20.4301 22.1214 20.5231 22.1831 20.6255 22.2251C20.7278 22.267 20.8375 22.2882 20.9481 22.2875C21.0587 22.2869 21.168 22.2643 21.2699 22.2212C21.3717 22.1781 21.464 22.1153 21.5415 22.0363C21.7007 21.8741 21.7893 21.6555 21.7878 21.4283C21.7863 21.201 21.6949 20.9836 21.5336 20.8235C21.0277 20.3053 20.5196 19.7883 19.9923 19.2927C19.8508 19.1843 19.6938 19.0981 19.5265 19.0369M20.0018 23.2356C19.9498 23.0553 19.8697 22.8844 19.7644 22.7291C19.2219 22.1595 18.6695 21.5977 18.0942 21.0614C17.9324 20.9315 17.7283 20.866 17.5211 20.8775C17.3139 20.889 17.1183 20.9767 16.9719 21.1238C16.8255 21.2708 16.7386 21.4667 16.728 21.6739C16.7173 21.8812 16.7836 22.085 16.9142 22.2463C17.4521 22.82 18.0101 23.3767 18.5811 23.9176C18.7001 24.0286 18.8513 24.0989 19.0129 24.1184C19.1745 24.1379 19.3381 24.1056 19.4801 24.0261C19.6302 23.9536 19.7579 23.842 19.8497 23.7029C19.9416 23.5639 19.9942 23.4026 20.002 23.2361M8.43129 21.899C8.60487 21.8554 8.76992 21.7829 8.91957 21.6847C9.50334 21.1308 10.0795 20.5677 10.6286 19.9804C10.7557 19.817 10.8182 19.6126 10.8043 19.4061C10.7905 19.1996 10.7011 19.0055 10.5533 18.8606C10.4055 18.7157 10.2096 18.6302 10.0029 18.6205C9.79615 18.6107 9.59305 18.6773 9.43227 18.8077C8.85935 19.3464 8.30487 19.9055 7.76233 20.4752C7.65092 20.5937 7.57981 20.7444 7.55916 20.9057C7.5385 21.0671 7.56936 21.2308 7.64732 21.3736C7.71858 21.5237 7.82907 21.6518 7.96712 21.7443C8.10516 21.8367 8.26536 21.8902 8.43129 21.899ZM13.6006 22.233C13.4126 22.2888 13.2344 22.3734 13.0722 22.4836C12.5128 23.011 11.9689 23.5554 11.4375 24.1113C11.2931 24.2684 11.2144 24.475 11.2176 24.6884C11.2208 24.9019 11.3057 25.106 11.4549 25.2587C11.6018 25.4125 11.8012 25.5055 12.0135 25.5192C12.2258 25.5329 12.4354 25.4664 12.601 25.3328C12.7174 25.2302 12.8283 25.1215 12.9333 25.0073C13.3497 24.5949 13.768 24.1848 14.1811 23.77C14.3145 23.649 14.407 23.4896 14.4458 23.3138C14.4847 23.138 14.468 22.9545 14.3981 22.7885C14.3273 22.6326 14.2156 22.4988 14.075 22.4012C13.9343 22.3036 13.7698 22.2458 13.599 22.2341M15.3367 23.4819C16.259 23.7646 16.6451 24.3907 16.4761 25.3019C16.4655 25.3599 16.4489 25.441 16.4793 25.4784C16.5692 25.6233 16.6958 25.7418 16.8462 25.822C16.9967 25.9023 17.1656 25.9413 17.336 25.9353C17.4932 25.9313 17.6457 25.8811 17.7746 25.791C17.9034 25.7009 18.0029 25.5748 18.0605 25.4285C18.1327 25.2829 18.1576 25.1183 18.1317 24.9578C18.1059 24.7973 18.0305 24.6489 17.9162 24.5333C17.3818 23.9794 16.8387 23.4331 16.2797 22.9044C16.1569 22.7835 15.997 22.7077 15.8257 22.6891C15.6545 22.6705 15.482 22.7104 15.3362 22.8021L15.3367 23.4819ZM15.1384 24.2957C14.9934 24.3362 14.8551 24.3975 14.7277 24.4777C14.285 24.9009 13.8475 25.3301 13.4278 25.7758C13.3407 25.8821 13.2957 26.0167 13.3013 26.154C13.3069 26.2914 13.3628 26.4218 13.4583 26.5207C13.5538 26.6195 13.6823 26.6799 13.8193 26.6902C13.9564 26.7006 14.0925 26.6602 14.2017 26.5768C14.6561 26.1536 15.0931 25.7107 15.522 25.2612C15.5998 25.1865 15.6484 25.0864 15.6589 24.979C15.6694 24.8717 15.6411 24.7641 15.5792 24.6758C15.4487 24.5313 15.3006 24.4038 15.1384 24.296M15.146 26.9816C15.2503 27.0742 15.3866 27.1225 15.526 27.116C15.6653 27.1095 15.7966 27.0488 15.8917 26.9468C15.9918 26.8478 16.0496 26.7139 16.053 26.5732C16.0564 26.4324 16.0051 26.2959 15.9099 26.1922L15.146 26.9816Z" fill="url(#paint0_linear_2660_172)"/>
</g>
</g>
</g>
</g>
<g id="Clip path group_2">
<mask id="mask1_2660_172" style="mask-type:luminance" maskUnits="userSpaceOnUse" x="7" y="1" width="20" height="12">
<g id="clip-path-2">
<path id="Path 18469" d="M8.4858 12.1686C8.4858 12.1686 16.3748 10.3225 23.1378 11.9108C29.9009 13.4992 24.3478 5.09255 21.0703 2.82475C17.7928 0.556945 7.38234 1.06657 7.38234 1.06657L8.4858 12.1686Z" fill="white"/>
</g>
</mask>
<g mask="url(#mask1_2660_172)">
<g id="Mask Group 24569">
<g id="Group 25598">
<g id="Path 18362">
<path d="M16.18 7.87634C16.4884 7.94744 16.6444 8.22153 16.6075 8.62767C16.6042 8.66369 16.6126 8.69984 16.6317 8.7306C16.6507 8.76137 16.6793 8.78507 16.7131 8.7981C16.7468 8.81113 16.7839 8.81277 16.8187 8.80277C16.8535 8.79278 16.884 8.77169 16.9057 8.74273C17.1247 8.4525 17.3855 8.33917 17.6435 8.43333C17.7914 8.49669 17.916 8.60427 18.0003 8.7413C18.0846 8.87832 18.1244 9.03808 18.1142 9.19862C18.1132 9.24247 18.1292 9.28501 18.159 9.31724C18.1887 9.34948 18.2298 9.36888 18.2736 9.37136C18.2954 9.37222 18.3172 9.36878 18.3376 9.36123C18.3581 9.35369 18.3769 9.34218 18.3929 9.32737C18.4089 9.31257 18.4218 9.29475 18.431 9.27494C18.4401 9.25512 18.4452 9.23371 18.4461 9.21191C18.4583 8.98072 18.3983 8.75145 18.2744 8.55586C18.1505 8.36028 17.9689 8.20804 17.7547 8.12025C17.6152 8.07141 17.4656 8.05867 17.3199 8.08324C17.1742 8.1078 17.0371 8.16886 16.9214 8.26072C16.8933 8.08973 16.8149 7.93098 16.6961 7.80482C16.5773 7.67866 16.4236 7.59081 16.2546 7.55254C15.9832 7.50078 15.7023 7.54743 15.4622 7.68411C15.2221 7.8208 15.0385 8.03857 14.9445 8.29835C14.7116 8.90167 14.9708 9.61507 15.2251 10.1684C15.244 10.2074 15.2774 10.2376 15.3182 10.2523C15.359 10.2671 15.404 10.2653 15.4435 10.2473C15.483 10.2294 15.5139 10.1967 15.5297 10.1563C15.5454 10.1159 15.5448 10.0709 15.5278 10.031C15.3019 9.53595 15.0672 8.90554 15.2554 8.41817C15.3211 8.23367 15.4499 8.07831 15.619 7.97948C15.7881 7.88065 15.9867 7.84469 16.1797 7.87795" fill="url(#paint1_linear_2660_172)"/>
<path d="M16.18 7.87634C16.4884 7.94744 16.6444 8.22153 16.6075 8.62767C16.6042 8.66369 16.6126 8.69984 16.6317 8.7306C16.6507 8.76137 16.6793 8.78507 16.7131 8.7981C16.7468 8.81113 16.7839 8.81277 16.8187 8.80277C16.8535 8.79278 16.884 8.77169 16.9057 8.74273C17.1247 8.4525 17.3855 8.33917 17.6435 8.43333C17.7914 8.49669 17.916 8.60427 18.0003 8.7413C18.0846 8.87832 18.1244 9.03808 18.1142 9.19862C18.1132 9.24247 18.1292 9.28501 18.159 9.31724C18.1887 9.34948 18.2298 9.36888 18.2736 9.37136C18.2954 9.37222 18.3172 9.36878 18.3376 9.36123C18.3581 9.35369 18.3769 9.34218 18.3929 9.32737C18.4089 9.31257 18.4218 9.29475 18.431 9.27494C18.4401 9.25512 18.4452 9.23371 18.4461 9.21191C18.4583 8.98072 18.3983 8.75145 18.2744 8.55586C18.1505 8.36028 17.9689 8.20804 17.7547 8.12025C17.6152 8.07141 17.4656 8.05867 17.3199 8.08324C17.1742 8.1078 17.0371 8.16886 16.9214 8.26072C16.8933 8.08973 16.8149 7.93098 16.6961 7.80482C16.5773 7.67866 16.4236 7.59081 16.2546 7.55254C15.9832 7.50078 15.7023 7.54743 15.4622 7.68411C15.2221 7.8208 15.0385 8.03857 14.9445 8.29835C14.7116 8.90167 14.9708 9.61507 15.2251 10.1684C15.244 10.2074 15.2774 10.2376 15.3182 10.2523C15.359 10.2671 15.404 10.2653 15.4435 10.2473C15.483 10.2294 15.5139 10.1967 15.5297 10.1563C15.5454 10.1159 15.5448 10.0709 15.5278 10.031C15.3019 9.53595 15.0672 8.90554 15.2554 8.41817C15.3211 8.23367 15.4499 8.07831 15.619 7.97948C15.7881 7.88065 15.9867 7.84469 16.1797 7.87795" stroke="url(#paint2_linear_2660_172)" stroke-width="0.5"/>
</g>
<g id="Path 18363">
<path d="M13.6763 3.16536C13.6736 3.12139 13.6536 3.08025 13.6208 3.05084C13.588 3.02143 13.5449 3.00613 13.5009 3.00823L9.88886 3.19637C9.66833 3.20902 9.46173 3.30829 9.31405 3.47256C9.16637 3.63683 9.08958 3.85279 9.1004 4.07342L9.66096 14.7363C9.6665 14.8457 9.69359 14.953 9.74068 15.052C9.78777 15.151 9.85393 15.2397 9.93537 15.313C10.0168 15.3863 10.1119 15.4429 10.2153 15.4794C10.3186 15.5159 10.4281 15.5317 10.5376 15.5258L11.2025 15.4896C11.2243 15.4885 11.2457 15.4831 11.2655 15.4737C11.2852 15.4643 11.3029 15.4511 11.3175 15.4348C11.3321 15.4186 11.3434 15.3996 11.3507 15.3789C11.3579 15.3583 11.361 15.3364 11.3598 15.3146C11.3588 15.2927 11.3535 15.2713 11.3441 15.2515C11.3347 15.2318 11.3215 15.2141 11.3051 15.1995C11.2888 15.1849 11.2698 15.1738 11.2491 15.1666C11.2284 15.1595 11.2065 15.1566 11.1847 15.158L10.5199 15.1936C10.3873 15.2007 10.2572 15.155 10.1583 15.0664C10.0593 14.9778 9.99948 14.8537 9.99184 14.7211L9.43128 4.05826C9.42711 3.9924 9.43606 3.92637 9.4576 3.86399C9.47915 3.80162 9.51286 3.74414 9.55678 3.69489C9.60071 3.64564 9.65397 3.6056 9.71349 3.5771C9.77301 3.54859 9.83759 3.53218 9.90349 3.52882L13.5178 3.34048C13.5396 3.3394 13.561 3.33402 13.5807 3.32466C13.6004 3.3153 13.6181 3.30215 13.6328 3.28594C13.6474 3.26974 13.6587 3.25081 13.666 3.23023C13.6733 3.20966 13.6765 3.18784 13.6753 3.16604" fill="url(#paint3_linear_2660_172)"/>
<path d="M13.6763 3.16536C13.6736 3.12139 13.6536 3.08025 13.6208 3.05084C13.588 3.02143 13.5449 3.00613 13.5009 3.00823L9.88886 3.19637C9.66833 3.20902 9.46173 3.30829 9.31405 3.47256C9.16637 3.63683 9.08958 3.85279 9.1004 4.07342L9.66096 14.7363C9.6665 14.8457 9.69359 14.953 9.74068 15.052C9.78777 15.151 9.85393 15.2397 9.93537 15.313C10.0168 15.3863 10.1119 15.4429 10.2153 15.4794C10.3186 15.5159 10.4281 15.5317 10.5376 15.5258L11.2025 15.4896C11.2243 15.4885 11.2457 15.4831 11.2655 15.4737C11.2852 15.4643 11.3029 15.4511 11.3175 15.4348C11.3321 15.4186 11.3434 15.3996 11.3507 15.3789C11.3579 15.3583 11.361 15.3364 11.3598 15.3146C11.3588 15.2927 11.3535 15.2713 11.3441 15.2515C11.3347 15.2318 11.3215 15.2141 11.3051 15.1995C11.2888 15.1849 11.2698 15.1738 11.2491 15.1666C11.2284 15.1595 11.2065 15.1566 11.1847 15.158L10.5199 15.1936C10.3873 15.2007 10.2572 15.155 10.1583 15.0664C10.0593 14.9778 9.99948 14.8537 9.99184 14.7211L9.43128 4.05826C9.42711 3.9924 9.43606 3.92637 9.4576 3.86399C9.47915 3.80162 9.51286 3.74414 9.55678 3.69489C9.60071 3.64564 9.65397 3.6056 9.71349 3.5771C9.77301 3.54859 9.83759 3.53218 9.90349 3.52882L13.5178 3.34048C13.5396 3.3394 13.561 3.33402 13.5807 3.32466C13.6004 3.3153 13.6181 3.30215 13.6328 3.28594C13.6474 3.26974 13.6587 3.25081 13.666 3.23023C13.6733 3.20966 13.6765 3.18784 13.6753 3.16604" stroke="url(#paint4_linear_2660_172)" stroke-width="0.5"/>
</g>
<path id="Path 18364" d="M11.9919 5.08889C12.036 5.08658 12.0773 5.06686 12.1068 5.03406C12.1364 5.00127 12.1517 4.95809 12.1494 4.91402C12.1471 4.86995 12.1273 4.8286 12.0945 4.79907C12.0617 4.76954 12.0186 4.75424 11.9745 4.75655C11.7648 4.76756 11.1113 4.18039 11.1005 3.9694C11.0994 3.94758 11.094 3.9262 11.0846 3.90647C11.0751 3.88675 11.0619 3.86907 11.0457 3.85445C11.0295 3.83983 11.0105 3.82855 10.9899 3.82125C10.9693 3.81396 10.9475 3.81079 10.9257 3.81193C10.9038 3.81307 10.8825 3.8185 10.8627 3.82791C10.843 3.83731 10.8253 3.85051 10.8107 3.86675C10.7961 3.88299 10.7848 3.90195 10.7775 3.92255C10.7702 3.94314 10.7671 3.96498 10.7682 3.9868C10.7792 4.19646 10.192 4.85023 9.98131 4.8608C9.93724 4.86311 9.89589 4.88283 9.86636 4.91562C9.83683 4.94842 9.82154 4.9916 9.82385 5.03567C9.82615 5.07974 9.84587 5.12109 9.87867 5.15062C9.91146 5.18015 9.95464 5.19545 9.99871 5.19314C10.2084 5.18213 10.8619 5.76929 10.8727 5.98029C10.8738 6.00211 10.8792 6.02349 10.8887 6.04321C10.8981 6.06294 10.9113 6.08061 10.9275 6.09524C10.9437 6.10986 10.9627 6.12114 10.9833 6.12843C11.0039 6.13573 11.0257 6.1389 11.0475 6.13775C11.0694 6.13661 11.0907 6.13118 11.1105 6.12178C11.1302 6.11237 11.1479 6.09917 11.1625 6.08293C11.1771 6.06669 11.1884 6.04774 11.1957 6.02714C11.203 6.00654 11.2062 5.98471 11.205 5.96289C11.194 5.75323 11.7812 5.09946 11.9919 5.08889ZM11.0174 5.56405C10.8453 5.3429 10.6354 5.15391 10.3975 5.00582C10.6187 4.83361 10.8077 4.62365 10.9558 4.38564C11.1279 4.60678 11.3378 4.79576 11.5757 4.94387C11.3545 5.11608 11.1655 5.32604 11.0174 5.56405Z" fill="url(#paint5_linear_2660_172)" stroke="url(#paint6_linear_2660_172)" stroke-width="0.5"/>
<g id="Path 18366">
<path d="M16.3978 3.67057C16.3097 3.62177 16.2107 3.59624 16.11 3.59639C16.0094 3.59655 15.9104 3.62239 15.8225 3.67146C15.79 3.57626 15.7338 3.49089 15.6592 3.42339C15.5846 3.35589 15.4941 3.30848 15.3961 3.28561C15.2176 3.25001 15.0323 3.27967 14.8739 3.36921C14.7154 3.45874 14.5944 3.60218 14.5328 3.77343C14.3569 4.23171 14.6142 4.7682 14.8024 5.15972C14.8658 5.27959 14.9185 5.40484 14.9598 5.53401C14.9657 5.56084 14.9782 5.58578 14.9962 5.60659C15.0141 5.6274 15.037 5.64343 15.0626 5.65324C15.0883 5.66305 15.116 5.66633 15.1433 5.6628C15.1705 5.65926 15.1965 5.64902 15.2188 5.63298C15.3358 5.56466 15.4587 5.50683 15.5859 5.46015C15.9875 5.29497 16.5372 5.06866 16.7125 4.61029C16.7822 4.44213 16.7888 4.25447 16.731 4.08186C16.6733 3.90925 16.5551 3.76331 16.3983 3.67092M16.4023 4.4914C16.278 4.81529 15.824 5.00266 15.4594 5.15255C15.3712 5.18912 15.2881 5.22319 15.2145 5.25741C15.1824 5.18284 15.1441 5.10233 15.1025 5.0161C14.9321 4.65954 14.7196 4.21719 14.8438 3.89245C14.8769 3.79638 14.9432 3.71526 15.0308 3.66368C15.1183 3.61211 15.2214 3.59345 15.3215 3.61106C15.4962 3.6489 15.5434 3.82638 15.529 3.99191C15.5267 4.02743 15.5358 4.06275 15.5551 4.09266C15.5744 4.12256 15.6028 4.14548 15.6361 4.15802C15.6695 4.17056 15.7059 4.17206 15.7402 4.1623C15.7744 4.15254 15.8046 4.13203 15.8263 4.10381C15.9535 3.93501 16.0989 3.88415 16.2358 3.95993C16.3207 4.01524 16.3837 4.0984 16.4139 4.19511C16.4442 4.29183 16.4398 4.39606 16.4015 4.48989" fill="url(#paint7_linear_2660_172)"/>
<path d="M16.3978 3.67057C16.3097 3.62177 16.2107 3.59624 16.11 3.59639C16.0094 3.59655 15.9104 3.62239 15.8225 3.67146C15.79 3.57626 15.7338 3.49089 15.6592 3.42339C15.5846 3.35589 15.4941 3.30848 15.3961 3.28561C15.2176 3.25001 15.0323 3.27967 14.8739 3.36921C14.7154 3.45874 14.5944 3.60218 14.5328 3.77343C14.3569 4.23171 14.6142 4.7682 14.8024 5.15972C14.8658 5.27959 14.9185 5.40484 14.9598 5.53401C14.9657 5.56084 14.9782 5.58578 14.9962 5.60659C15.0141 5.6274 15.037 5.64343 15.0626 5.65324C15.0883 5.66305 15.116 5.66633 15.1433 5.6628C15.1705 5.65926 15.1965 5.64902 15.2188 5.63298C15.3358 5.56466 15.4587 5.50683 15.5859 5.46015C15.9875 5.29497 16.5372 5.06866 16.7125 4.61029C16.7822 4.44213 16.7888 4.25447 16.731 4.08186C16.6733 3.90925 16.5551 3.76331 16.3983 3.67092M16.4023 4.4914C16.278 4.81529 15.824 5.00266 15.4594 5.15255C15.3712 5.18912 15.2881 5.22319 15.2145 5.25741C15.1824 5.18284 15.1441 5.10233 15.1025 5.0161C14.9321 4.65954 14.7196 4.21719 14.8438 3.89245C14.8769 3.79638 14.9432 3.71526 15.0308 3.66368C15.1183 3.61211 15.2214 3.59345 15.3215 3.61106C15.4962 3.6489 15.5434 3.82638 15.529 3.99191C15.5267 4.02743 15.5358 4.06275 15.5551 4.09266C15.5744 4.12256 15.6028 4.14548 15.6361 4.15802C15.6695 4.17056 15.7059 4.17206 15.7402 4.1623C15.7744 4.15254 15.8046 4.13203 15.8263 4.10381C15.9535 3.93501 16.0989 3.88415 16.2358 3.95993C16.3207 4.01524 16.3837 4.0984 16.4139 4.19511C16.4442 4.29183 16.4398 4.39606 16.4015 4.48989" stroke="url(#paint8_linear_2660_172)" stroke-width="0.5"/>
</g>
<path id="Path 18367" d="M22.0592 5.12506L15.2023 2.48891C14.996 2.41341 14.7683 2.42109 14.5675 2.51035C14.3667 2.5996 14.2085 2.76343 14.1263 2.96721L10.3046 12.936C10.2649 13.0381 10.2459 13.147 10.2484 13.2565C10.2509 13.366 10.275 13.4739 10.3194 13.5741C10.3637 13.6742 10.4274 13.7646 10.5067 13.8401C10.5861 13.9156 10.6795 13.9747 10.7817 14.014C10.7817 14.014 11.196 14.1835 11.3489 14.2288C11.3894 14.235 11.4308 14.2261 11.465 14.2037C11.4993 14.1813 11.5241 14.147 11.5347 14.1074C11.5453 14.0679 11.5409 14.0258 11.5224 13.9893C11.5039 13.9527 11.4726 13.9243 11.4344 13.9095L10.8992 13.7041C10.8379 13.6804 10.782 13.6449 10.7344 13.5995C10.6869 13.5541 10.6488 13.4998 10.6223 13.4397C10.5958 13.3796 10.5815 13.3148 10.58 13.2492C10.5786 13.1835 10.5901 13.1182 10.6139 13.0569L14.4356 3.08816C14.4854 2.96586 14.5807 2.86761 14.7013 2.81401C14.822 2.76041 14.9588 2.75563 15.0829 2.80067L21.9416 5.43601C22.003 5.45952 22.0592 5.49496 22.1068 5.54029C22.1545 5.58563 22.1927 5.63995 22.2192 5.70013C22.2458 5.76031 22.2602 5.82515 22.2615 5.89091C22.2629 5.95668 22.2512 6.02205 22.2271 6.08328L20.5992 10.3187C20.5912 10.3391 20.5874 10.3608 20.5879 10.3826C20.5885 10.4045 20.5933 10.426 20.6022 10.446C20.6111 10.4659 20.6239 10.4839 20.6398 10.4989C20.6557 10.5139 20.6744 10.5256 20.6948 10.5333C20.7151 10.5419 20.7369 10.5463 20.759 10.5461C20.781 10.5459 20.8028 10.5412 20.8229 10.5322C20.8431 10.5232 20.8611 10.5102 20.876 10.4939C20.8909 10.4776 20.9022 10.4585 20.9094 10.4376L22.5382 6.20011C22.6161 5.99395 22.6094 5.7654 22.5197 5.56411C22.43 5.36282 22.2645 5.20505 22.0592 5.12506Z" fill="url(#paint9_linear_2660_172)" stroke="url(#paint10_linear_2660_172)" stroke-width="0.5"/>
</g>
</g>
</g>
</g>
</g>
<defs>
<linearGradient id="paint0_linear_2660_172" x1="8.09936" y1="3.16657" x2="14.8123" y2="30.1669" gradientUnits="userSpaceOnUse">
<stop stop-color="#3463AF"/>
<stop offset="0.444" stop-color="#2C5391"/>
<stop offset="0.766" stop-color="#223655"/>
<stop offset="1" stop-color="#032146"/>
</linearGradient>
<linearGradient id="paint1_linear_2660_172" x1="15.6418" y1="6.49673" x2="16.6437" y2="13.1963" gradientUnits="userSpaceOnUse">
<stop stop-color="#3463AF"/>
<stop offset="0.228" stop-color="#2C5391"/>
<stop offset="0.561" stop-color="#223655"/>
<stop offset="1" stop-color="#032146"/>
</linearGradient>
<linearGradient id="paint2_linear_2660_172" x1="15.6418" y1="6.49673" x2="16.6437" y2="13.1963" gradientUnits="userSpaceOnUse">
<stop stop-color="#3463AF"/>
<stop offset="0.228" stop-color="#2C5391"/>
<stop offset="0.561" stop-color="#223655"/>
<stop offset="1" stop-color="#032146"/>
</linearGradient>
<linearGradient id="paint3_linear_2660_172" x1="10.5523" y1="-1.8334" x2="24.2178" y2="13.9355" gradientUnits="userSpaceOnUse">
<stop stop-color="#3463AF"/>
<stop offset="0.228" stop-color="#2C5391"/>
<stop offset="0.561" stop-color="#223655"/>
<stop offset="1" stop-color="#032146"/>
</linearGradient>
<linearGradient id="paint4_linear_2660_172" x1="10.5523" y1="-1.8334" x2="24.2178" y2="13.9355" gradientUnits="userSpaceOnUse">
<stop stop-color="#3463AF"/>
<stop offset="0.228" stop-color="#2C5391"/>
<stop offset="0.561" stop-color="#223655"/>
<stop offset="1" stop-color="#032146"/>
</linearGradient>
<linearGradient id="paint5_linear_2660_172" x1="10.4278" y1="2.95194" x2="11.6407" y2="8.15111" gradientUnits="userSpaceOnUse">
<stop stop-color="#3463AF"/>
<stop offset="0.228" stop-color="#2C5391"/>
<stop offset="0.561" stop-color="#223655"/>
<stop offset="1" stop-color="#032146"/>
</linearGradient>
<linearGradient id="paint6_linear_2660_172" x1="10.4278" y1="2.95194" x2="11.6407" y2="8.15111" gradientUnits="userSpaceOnUse">
<stop stop-color="#3463AF"/>
<stop offset="0.228" stop-color="#2C5391"/>
<stop offset="0.561" stop-color="#223655"/>
<stop offset="1" stop-color="#032146"/>
</linearGradient>
<linearGradient id="paint7_linear_2660_172" x1="15.0122" y1="2.4095" x2="16.3353" y2="7.81995" gradientUnits="userSpaceOnUse">
<stop stop-color="#3463AF"/>
<stop offset="0.228" stop-color="#2C5391"/>
<stop offset="0.561" stop-color="#223655"/>
<stop offset="1" stop-color="#032146"/>
</linearGradient>
<linearGradient id="paint8_linear_2660_172" x1="15.0122" y1="2.4095" x2="16.3353" y2="7.81995" gradientUnits="userSpaceOnUse">
<stop stop-color="#3463AF"/>
<stop offset="0.228" stop-color="#2C5391"/>
<stop offset="0.561" stop-color="#223655"/>
<stop offset="1" stop-color="#032146"/>
</linearGradient>
<linearGradient id="paint9_linear_2660_172" x1="13.976" y1="-1.87642" x2="21.3312" y2="25.2448" gradientUnits="userSpaceOnUse">
<stop stop-color="#3463AF"/>
<stop offset="0.228" stop-color="#2C5391"/>
<stop offset="0.561" stop-color="#223655"/>
<stop offset="1" stop-color="#032146"/>
</linearGradient>
<linearGradient id="paint10_linear_2660_172" x1="13.976" y1="-1.87642" x2="21.3312" y2="25.2448" gradientUnits="userSpaceOnUse">
<stop stop-color="#3463AF"/>
<stop offset="0.228" stop-color="#2C5391"/>
<stop offset="0.561" stop-color="#223655"/>
<stop offset="1" stop-color="#032146"/>
</linearGradient>
</defs>
</svg>
