<svg width="28" height="28" viewBox="0 0 28 28" fill="none" xmlns="http://www.w3.org/2000/svg">
<g id="Group 25613">
<g id="Path 18464">
<path id="Vector" d="M21.6807 27.8578H16.1583C15.9339 27.7726 15.7762 27.6507 15.6768 27.4857C15.5781 27.3218 15.533 27.1103 15.5388 26.8388C15.5553 26.0732 15.5521 25.2952 15.5489 24.5429C15.5475 24.1926 15.546 23.8304 15.5465 23.4744C15.5472 22.922 15.6978 22.7212 16.2467 22.5402C16.3998 22.4897 16.4663 22.2737 16.4745 22.177C16.4924 21.9654 16.4992 21.7499 16.5057 21.5415C16.5185 21.1351 16.5305 20.7512 16.6172 20.3808C16.7838 19.6688 17.0587 19.066 17.4343 18.589C17.839 18.075 18.3776 17.6857 19.0351 17.432C19.9086 17.0951 20.701 16.6039 21.3902 15.9723C21.899 15.506 22.4065 15.2793 22.9416 15.2793C23.3004 15.2793 23.6814 15.3852 24.074 15.5939L24.2103 15.6664L24.2714 15.5246L24.4751 15.0515C24.6665 14.6068 24.8568 14.1649 25.0471 13.723C25.0692 13.6718 25.091 13.6205 25.1127 13.5691C25.1643 13.4475 25.2177 13.3218 25.2736 13.201C25.5198 12.6693 25.96 12.3765 26.513 12.3765C26.5473 12.3765 26.5825 12.3776 26.6176 12.3799C27.1748 12.4157 27.6194 12.7769 27.8068 13.346C27.8199 13.3857 27.8349 13.4231 27.8495 13.4592C27.8523 13.4662 27.8551 13.4731 27.8578 13.4801V13.9695C27.676 14.3735 27.4941 14.7776 27.3122 15.1817C26.8644 16.1766 26.4012 17.2054 25.9466 18.2177C25.6824 18.8061 25.3114 19.3393 24.8438 19.8025C24.1882 20.4521 23.5206 21.1187 22.875 21.7635C22.6029 22.0352 22.3295 22.3082 22.0542 22.5828L21.9622 22.6746L22.0453 22.7745C22.277 23.0526 22.2703 23.3856 22.2633 23.7381C22.2621 23.8015 22.2608 23.8671 22.2609 23.9321C22.2616 24.2362 22.2598 24.5458 22.2581 24.8452C22.2545 25.4698 22.2508 26.1158 22.2687 26.7517C22.285 27.3292 22.1089 27.6618 21.6807 27.8578ZM16.2184 23.2081V23.3503V27.0588V27.201H16.3605H21.4444H21.5866V27.0588V23.3503V23.2081H21.4444H16.3605H16.2184ZM22.94 15.9177C22.619 15.9177 22.3018 16.0486 22.0225 16.2962C21.1435 17.0757 20.1474 17.6934 19.0621 18.1323C18.6217 18.3103 18.2554 18.5978 17.9421 19.0112C17.2719 19.8957 17.0283 20.9418 17.1523 22.4032L17.1625 22.5234L17.2828 22.5329C17.3037 22.5346 17.3224 22.5364 17.3397 22.538C17.3763 22.5416 17.4109 22.5449 17.4471 22.5449C17.6772 22.5451 17.9075 22.5454 18.1378 22.5456C18.4459 22.546 18.7541 22.5464 19.0621 22.5464C19.8234 22.5464 20.4046 22.5439 20.9467 22.5382C21.1195 22.5364 21.2935 22.4243 21.39 22.3289C21.5045 22.2157 21.619 22.1025 21.7335 21.9893C22.6219 21.1113 23.5405 20.2034 24.4219 19.2881C24.7838 18.9124 25.0597 18.5303 25.242 18.1524C25.7885 17.0197 26.3116 15.8534 26.8175 14.7256C26.9176 14.5023 27.0178 14.279 27.1181 14.0559C27.1845 13.9082 27.2089 13.7251 27.1817 13.5779C27.1245 13.2677 26.9082 13.07 26.5884 13.0357C26.5571 13.0324 26.526 13.0307 26.496 13.0307C26.2082 13.0307 25.9815 13.1879 25.8578 13.4733L25.7945 13.6193C25.4877 14.3267 25.1704 15.0582 24.8678 15.782C24.5759 16.48 24.1523 17.1074 23.6087 17.6467C23.2552 17.9974 22.8976 18.3555 22.5518 18.7019C22.328 18.9261 22.0965 19.1579 21.8684 19.3855C21.8402 19.4136 21.8121 19.4422 21.7841 19.4709C21.6911 19.5658 21.6032 19.6555 21.506 19.731C21.4517 19.773 21.3881 19.7952 21.3219 19.7952C21.2383 19.7952 21.1581 19.7609 21.0959 19.6986C20.98 19.5825 20.9682 19.4196 21.0659 19.2836C21.1031 19.2318 21.152 19.1835 21.2037 19.1322C21.2144 19.1216 21.2251 19.111 21.2357 19.1003C21.4372 18.8986 21.6425 18.6938 21.8411 18.4958C22.2833 18.0547 22.7406 17.5986 23.1856 17.1449C23.3396 16.9879 23.4816 16.8175 23.619 16.6528C23.6809 16.5784 23.745 16.5016 23.809 16.4274L23.9092 16.3111L23.7857 16.22C23.5136 16.0194 23.229 15.9177 22.94 15.9177Z" fill="url(#paint0_linear_2660_189)"/>
<path id="Vector_2" d="M26.5131 12.5183C26.0115 12.5183 25.6275 12.7749 25.4027 13.2604C25.3477 13.379 25.2949 13.5037 25.2437 13.6242C25.2219 13.6758 25.2 13.7274 25.1778 13.7789C24.9875 14.2207 24.7972 14.6626 24.6057 15.1074L24.28 15.864L24.0074 15.719C23.6303 15.5186 23.2817 15.4211 22.9417 15.4211C22.4437 15.4212 21.9677 15.6356 21.4864 16.0767C20.784 16.7204 19.9765 17.2209 19.0864 17.5643C17.8556 18.0392 17.0932 18.9709 16.7558 20.4128C16.6723 20.7694 16.6605 21.1464 16.6479 21.5456C16.6413 21.7558 16.6345 21.9732 16.6163 22.1886C16.603 22.3454 16.5054 22.6043 16.2913 22.6748C16.0358 22.7591 15.8859 22.8444 15.8051 22.9514C15.725 23.0577 15.6891 23.2189 15.6887 23.4742C15.6882 23.8298 15.6897 24.1918 15.6912 24.5418C15.6943 25.2951 15.6976 26.074 15.6811 26.8415C15.671 27.3111 15.8177 27.5677 16.1852 27.7152H21.6489C22.0018 27.543 22.1409 27.2604 22.1267 26.7553C22.1087 26.117 22.1124 25.4698 22.116 24.844C22.1177 24.5449 22.1195 24.2356 22.1188 23.932C22.1187 23.8654 22.12 23.7991 22.1213 23.7349C22.128 23.3955 22.1339 23.1024 21.9362 22.8651L21.7698 22.6653L21.9539 22.4817C22.2293 22.2071 22.5027 21.934 22.7749 21.6622C23.4205 21.0175 24.0881 20.3508 24.7438 19.7011C25.1989 19.2502 25.56 18.7314 25.817 18.1591C26.272 17.146 26.7354 16.1165 27.1836 15.1209C27.361 14.7268 27.5384 14.3327 27.7157 13.9386V13.5072C27.7016 13.4719 27.6857 13.4322 27.6719 13.3901C27.5008 12.8704 27.1132 12.5538 26.6085 12.5214C26.5765 12.5193 26.5444 12.5183 26.5131 12.5183ZM19.062 22.6882C18.7541 22.6882 18.4461 22.6878 18.1382 22.6874C17.9078 22.6872 17.6774 22.6869 17.4472 22.6867C17.4042 22.6867 17.3663 22.6831 17.3261 22.6792C17.3096 22.6776 17.2917 22.6758 17.2717 22.6742L17.0311 22.6552L17.0107 22.4148C16.8836 20.9158 17.1359 19.8395 17.8289 18.9249C18.1535 18.4965 18.5505 18.1854 19.0088 18C20.0792 17.5673 21.0614 16.9581 21.9283 16.1895C22.234 15.9184 22.5838 15.7752 22.9401 15.7752C23.2602 15.7752 23.5731 15.8862 23.8701 16.1052L24.1173 16.2873L23.9168 16.5198C23.8535 16.5932 23.7898 16.6696 23.7282 16.7434C23.5891 16.9103 23.4452 17.0829 23.2872 17.244C22.8417 17.6983 22.3842 18.1546 21.9417 18.5959C21.7431 18.7939 21.5378 18.9987 21.3365 19.2004C21.3257 19.2112 21.3148 19.222 21.3038 19.2328C21.2565 19.2797 21.2117 19.3241 21.1815 19.3661C21.1249 19.445 21.1305 19.5316 21.1966 19.5978C21.2319 19.6332 21.2765 19.6526 21.322 19.6526C21.3568 19.6526 21.3895 19.6411 21.4189 19.6182C21.5085 19.5487 21.5931 19.4624 21.6826 19.371C21.711 19.342 21.7395 19.313 21.7681 19.2844C21.9961 19.057 22.2275 18.8252 22.4513 18.601C22.7972 18.2545 23.1549 17.8963 23.5087 17.5453C24.0389 17.0193 24.4521 16.4074 24.7367 15.7268C25.0397 15.0021 25.3572 14.2701 25.6642 13.5623L25.7274 13.4164C25.8751 13.0757 26.1481 12.8881 26.4961 12.8881C26.5311 12.8881 26.5673 12.8901 26.6037 12.894C26.9848 12.9348 27.2532 13.1807 27.3216 13.5517C27.3543 13.7284 27.3267 13.9385 27.2479 14.1138C27.1476 14.3369 27.0475 14.56 26.9474 14.7832C26.4411 15.912 25.9176 17.0792 25.3702 18.2138C25.1813 18.6053 24.8967 18.9998 24.5244 19.3863C23.6418 20.3029 22.7225 21.2115 21.8336 22.09C21.7191 22.2032 21.6046 22.3164 21.4901 22.4296C21.3691 22.5492 21.1633 22.6778 20.9483 22.68C20.4057 22.6857 19.8239 22.6882 19.062 22.6882ZM21.7289 27.3428H16.0763V23.0655H21.7289V27.3428ZM26.5131 12.2339C26.5506 12.2339 26.5884 12.2351 26.6268 12.2376C27.2454 12.2773 27.7355 12.674 27.942 13.3011C27.9589 13.3525 27.9806 13.4023 28.0001 13.4527V13.9996C27.3588 15.4249 26.7167 16.8498 26.0764 18.2756C25.8008 18.8894 25.4222 19.4293 24.944 19.9031C24.0184 20.8201 23.098 21.7423 22.1547 22.6831C22.4661 23.057 22.4023 23.5003 22.4032 23.9314C22.4052 24.8701 22.3845 25.8093 22.411 26.7473C22.4272 27.3238 22.263 27.7598 21.7111 27.9995H16.133C15.5859 27.802 15.3844 27.4094 15.3968 26.8354C15.4209 25.7153 15.4028 24.5943 15.4044 23.4738C15.4053 22.8512 15.6009 22.6031 16.2022 22.4048C16.2668 22.3835 16.3256 22.2504 16.3329 22.1646C16.3842 21.5585 16.342 20.9326 16.4789 20.348C16.8085 18.9393 17.5643 17.8467 18.984 17.299C19.8388 16.9692 20.619 16.4859 21.2943 15.8671C22.1545 15.0786 23.076 14.9018 24.1409 15.468C24.4015 14.8627 24.659 14.2645 24.9166 13.6664C24.9921 13.491 25.0644 13.314 25.1447 13.1409C25.4155 12.556 25.9061 12.2339 26.5131 12.2339ZM19.062 22.4039C19.6898 22.4039 20.3175 22.4022 20.9453 22.3956C21.0621 22.3944 21.2028 22.3138 21.2901 22.2274C22.307 21.2216 23.3277 20.2191 24.3196 19.189C24.6309 18.8658 24.9202 18.4919 25.114 18.0902C25.766 16.7389 26.3729 15.3658 26.9886 13.9971C27.0412 13.88 27.065 13.728 27.042 13.6033C26.9967 13.3578 26.8299 13.2042 26.5734 13.1767C26.2928 13.1467 26.0977 13.2772 25.9883 13.5295C25.6554 14.2972 25.3218 15.0646 24.999 15.8365C24.6961 16.5609 24.2655 17.195 23.709 17.7472C23.1269 18.3247 22.5494 18.9067 21.9689 19.4857C21.8465 19.6078 21.7291 19.7376 21.5932 19.8429C21.4068 19.9875 21.1562 19.9598 20.9954 19.7987C20.833 19.6361 20.8115 19.3939 20.9505 19.2003C21.0032 19.1269 21.071 19.0639 21.1352 18.9995C21.7852 18.3483 22.44 17.7018 23.0842 17.0449C23.3029 16.8219 23.4953 16.5731 23.7014 16.3341C23.1722 15.944 22.602 15.9721 22.1169 16.4022C21.2224 17.1954 20.2233 17.8157 19.1154 18.2637C18.6829 18.4386 18.3377 18.7244 18.0556 19.0967C17.3149 20.0742 17.1924 21.1925 17.2941 22.3908C17.3584 22.3958 17.4028 22.4024 17.4472 22.4024C17.9854 22.4027 18.5238 22.4039 19.062 22.4039ZM21.4445 27.0584V23.3499H16.3606V27.0584H21.4445Z" fill="url(#paint1_linear_2660_189)"/>
</g>
<g id="Path 18465">
<path id="Vector_3" d="M11.8393 27.858H6.31904C5.89289 27.663 5.71669 27.3304 5.73087 26.7519C5.74477 26.184 5.74263 25.6074 5.74057 25.0497C5.73878 24.5679 5.73694 24.0698 5.74548 23.5807C5.74874 23.3916 5.79054 23.2016 5.83478 23.0004C5.84683 22.9456 5.85911 22.8896 5.87066 22.8333H6.16282L5.93671 22.5936C5.91755 22.5733 5.89855 22.5528 5.87956 22.5323C5.83757 22.4871 5.79418 22.4404 5.74897 22.3951C5.52705 22.173 5.30527 21.9506 5.08349 21.7283C4.45373 21.097 3.8025 20.4442 3.1585 19.8053C2.68943 19.34 2.31439 18.7988 2.04385 18.197C1.72861 17.4959 1.40526 16.7845 1.09255 16.0965C0.842717 15.5468 0.584401 14.9785 0.33183 14.4189C0.280889 14.3061 0.239337 14.19 0.195339 14.067C0.178069 14.0188 0.160314 13.9691 0.141968 13.9198V13.5354C0.144658 13.5289 0.147383 13.5223 0.150091 13.5158C0.16526 13.4793 0.180933 13.4415 0.1931 13.3992C0.272506 13.1222 0.427325 12.8808 0.640827 12.7011C0.853218 12.5223 1.10928 12.4167 1.38131 12.3959C1.41892 12.3931 1.45689 12.3916 1.49417 12.3916C2.0349 12.3916 2.49203 12.6883 2.71704 13.1853C2.93559 13.668 3.14658 14.1648 3.35062 14.6453C3.43985 14.8554 3.53212 15.0727 3.62388 15.2861C3.64934 15.3454 3.67517 15.4046 3.69082 15.4405L3.70082 15.4634L3.74755 15.5709L3.86194 15.5455C3.99213 15.5167 4.12045 15.4843 4.24453 15.453C4.51913 15.3836 4.77848 15.3181 5.04058 15.2934C5.09097 15.2887 5.14184 15.2863 5.19179 15.2863C5.59877 15.2863 5.99512 15.4474 6.338 15.7522C7.15633 16.4797 8.11134 17.0749 9.25758 17.5716C10.358 18.0485 11.0531 18.9681 11.3827 20.383C11.4772 20.7887 11.4885 21.2288 11.4995 21.6544C11.5034 21.8071 11.5075 21.965 11.5153 22.12C11.5243 22.2987 11.5356 22.521 11.8783 22.5805C12.197 22.636 12.4398 22.9276 12.443 23.259C12.4559 24.585 12.4561 25.8892 12.4437 27.1354C12.4404 27.464 12.2538 27.6877 11.8393 27.858ZM6.41278 23.2081V23.3503V27.0479V27.1901H6.55497H11.6392H11.7814V27.0479V23.3503V23.2081H11.6392H6.55497H6.41278ZM1.49711 13.0223C1.40035 13.0223 1.30192 13.0446 1.20453 13.0886C1.03227 13.1664 0.908932 13.293 0.847907 13.4548C0.775843 13.6459 0.79464 13.8725 0.902267 14.1101C1.05697 14.4517 1.21297 14.7998 1.36383 15.1365C1.78399 16.0741 2.21846 17.0437 2.67532 17.9841C2.90419 18.4552 3.2172 18.9062 3.58052 19.2883C4.44852 20.2013 5.36173 21.0986 6.24488 21.9663C6.368 22.0873 6.49113 22.2083 6.61417 22.3293C6.73735 22.4505 6.94148 22.5365 7.11063 22.5385C7.76107 22.5463 8.40683 22.5473 8.89677 22.5473C9.15516 22.5473 9.41352 22.547 9.67189 22.5467C9.93016 22.5464 10.1884 22.5461 10.4467 22.5461H10.7814H10.9371L10.923 22.3911C10.9042 22.1828 10.8921 21.9748 10.8804 21.7737C10.8539 21.3176 10.8288 20.8869 10.7313 20.4615C10.4722 19.3313 9.90948 18.5693 9.05864 18.1969C7.79807 17.6451 6.76104 17.0005 5.88829 16.2264C5.66212 16.0258 5.38348 15.9198 5.0825 15.9198C4.7786 15.9198 4.47678 16.0271 4.20963 16.2302L4.08825 16.3224L4.18876 16.4371C4.25621 16.514 4.32246 16.5911 4.38651 16.6656C4.53213 16.835 4.66968 16.9951 4.81806 17.1511C5.00892 17.3517 5.20852 17.549 5.40156 17.7397C5.48954 17.8266 5.58054 17.9165 5.66927 18.0054C5.78698 18.1232 5.90511 18.2406 6.02324 18.358C6.30694 18.64 6.60032 18.9316 6.88205 19.2239C7.01268 19.3594 7.02194 19.5131 6.98706 19.6118C6.95255 19.7094 6.87329 19.7707 6.76387 19.7844C6.7559 19.7854 6.74717 19.7859 6.73792 19.7859C6.63389 19.7859 6.48341 19.7223 6.40249 19.6442C5.72514 18.9902 5.05114 18.309 4.39933 17.6501L4.25598 17.5052C3.79048 17.0348 3.42499 16.4778 3.13863 15.8025C2.81552 15.0405 2.48174 14.2673 2.16917 13.5453C2.02526 13.2129 1.7803 13.0223 1.49711 13.0223Z" fill="url(#paint2_linear_2660_189)"/>
<path id="Vector_4" d="M11.8109 27.7154C12.2388 27.5322 12.2999 27.3192 12.3017 27.1336C12.3141 25.8883 12.3139 24.585 12.3011 23.2599C12.2985 22.9961 12.1064 22.7641 11.8542 22.7202C11.3995 22.6412 11.3826 22.3066 11.3735 22.1268C11.3656 21.97 11.3615 21.8112 11.3576 21.6576C11.3463 21.2199 11.3357 20.8064 11.2444 20.4148C10.9258 19.0469 10.2574 18.1594 9.20124 17.7017C8.04095 17.1988 7.07353 16.5958 6.24374 15.8581C5.92278 15.5728 5.56892 15.4281 5.19201 15.4281C5.14648 15.4281 5.10009 15.4303 5.05413 15.4346C4.80291 15.4582 4.54871 15.5224 4.27956 15.5904C4.15449 15.622 4.02513 15.6547 3.89289 15.684L3.6641 15.7346L3.56071 15.4969C3.54499 15.4609 3.51904 15.4014 3.49347 15.3419C3.40159 15.1282 3.30927 14.9108 3.21997 14.7005C3.01626 14.2208 2.80558 13.7247 2.58774 13.2435C2.38641 12.7989 1.97768 12.5334 1.49439 12.5334C1.46072 12.5334 1.42639 12.5347 1.39237 12.5373C0.892902 12.5755 0.475896 12.929 0.329963 13.4381C0.316391 13.4853 0.29959 13.5266 0.284368 13.5633V13.894C0.299833 13.936 0.314811 13.9779 0.329425 14.0187C0.372435 14.1389 0.413049 14.2524 0.461629 14.36C0.714131 14.9194 0.972412 15.4877 1.22219 16.0372C1.53497 16.7254 1.85839 17.4369 2.17376 18.1383C2.44082 18.7324 2.79578 19.2446 3.25885 19.704C3.90312 20.3431 4.55447 20.996 5.18437 21.6275C5.40613 21.8498 5.62788 22.0721 5.84976 22.2942C5.89682 22.3413 5.94111 22.389 5.98395 22.4352C6.00271 22.4554 6.02145 22.4756 6.04036 22.4956L6.49256 22.9751H5.98601C5.98195 22.9937 5.97789 23.0121 5.97386 23.0305C5.93118 23.2246 5.89088 23.4079 5.88786 23.5828C5.87934 24.0703 5.88118 24.5677 5.88297 25.0487C5.88503 25.6074 5.88717 26.1851 5.87321 26.7549C5.86082 27.2612 6.00004 27.544 6.35118 27.7154H11.8109ZM6.27081 23.0656H11.9238V27.3319H6.27081V23.0656ZM1.49732 12.8797C1.83987 12.8797 2.13238 13.1015 2.29987 13.4884C2.61254 14.2107 2.94645 14.9841 3.26975 15.7466C3.54894 16.405 3.90468 16.9474 4.35727 17.4048L4.50063 17.5497C5.15186 18.208 5.82529 18.8887 6.50148 19.5415C6.55567 19.5938 6.67067 19.6433 6.73814 19.6433C6.74258 19.6433 6.74532 19.643 6.74645 19.6429C6.80199 19.636 6.83691 19.6102 6.85323 19.564C6.873 19.5081 6.86566 19.4112 6.77988 19.3222C6.49921 19.031 6.20641 18.7399 5.92322 18.4585C5.80497 18.3409 5.68672 18.2234 5.5689 18.1055C5.48049 18.017 5.38966 17.9272 5.30184 17.8404C5.10804 17.6489 4.90764 17.4509 4.71524 17.2487C4.5644 17.09 4.42572 16.9287 4.2789 16.7579C4.21507 16.6836 4.14906 16.6068 4.08206 16.5304L3.88104 16.3011L4.12381 16.1166C4.4159 15.8945 4.74747 15.7772 5.08271 15.7772C5.419 15.7772 5.73027 15.8956 5.98285 16.1197C6.84431 16.8838 7.86914 17.5205 9.11587 18.0662C10.0102 18.4577 10.6005 19.2528 10.8701 20.4293C10.9703 20.8663 10.9957 21.3028 11.0225 21.765C11.0342 21.9651 11.0462 22.1719 11.0648 22.3779L11.0929 22.6879H10.4469C10.1887 22.6879 9.93049 22.6882 9.67228 22.6885C9.41386 22.6888 9.15542 22.6891 8.89698 22.6891C8.40668 22.6891 7.76038 22.6881 7.10911 22.6803C6.90309 22.6778 6.66422 22.5773 6.51467 22.4303C6.39165 22.3093 6.26854 22.1883 6.14543 22.0673C5.26145 21.1988 4.34736 20.3006 3.47769 19.3859C3.10443 18.9933 2.78283 18.5299 2.54765 18.0459C2.08982 17.1034 1.65489 16.1329 1.23429 15.1942C1.08348 14.8577 0.927546 14.5097 0.772952 14.1684C0.649426 13.8956 0.629414 13.6314 0.715086 13.4043C0.789718 13.2064 0.93881 13.0522 1.1462 12.9586C1.26211 12.9062 1.38024 12.8797 1.49732 12.8797ZM11.8671 27.9998H6.28902C5.73717 27.7602 5.5748 27.3246 5.58893 26.748C5.61479 25.6918 5.58508 24.6344 5.60353 23.5779C5.60865 23.2814 5.70104 22.9864 5.75342 22.6908C5.78011 22.6908 5.80681 22.6907 5.83348 22.6907C5.77196 22.6255 5.71196 22.5586 5.64859 22.4952C4.78588 21.6315 3.92528 20.7656 3.05859 19.9059C2.57422 19.4253 2.1942 18.8774 1.91438 18.2549C1.34743 16.9939 0.771234 15.7371 0.202446 14.477C0.124515 14.3044 0.0669785 14.1227 0 13.9452V13.5077C0.0190747 13.4584 0.0421067 13.4102 0.0566514 13.3595C0.234329 12.7398 0.755162 12.3009 1.37067 12.2538C2.00437 12.2053 2.57682 12.5299 2.84679 13.1263C3.16169 13.8218 3.45307 14.528 3.75472 15.2296C3.7868 15.3042 3.81941 15.3787 3.83142 15.4063C4.24313 15.3152 4.63112 15.1888 5.02749 15.1515C5.55637 15.1017 6.03709 15.2939 6.43268 15.6456C7.292 16.4095 8.26012 16.9839 9.31432 17.4407C10.5818 17.99 11.2229 19.0688 11.5214 20.3503C11.6536 20.9178 11.6278 21.5234 11.6575 22.1125C11.6667 22.2939 11.6744 22.4003 11.9029 22.44C12.2902 22.5074 12.5816 22.8595 12.5854 23.2572C12.598 24.5501 12.599 25.8434 12.5861 27.1364C12.5815 27.599 12.2637 27.8423 11.8671 27.9998ZM6.55518 23.3499V27.0475H11.6395V23.3499H6.55518ZM1.49732 13.164C1.4217 13.164 1.34309 13.1817 1.26327 13.2177C0.953025 13.3579 0.861991 13.6757 1.032 14.0511C1.61743 15.3437 2.1836 16.6457 2.80343 17.9216C3.02622 18.3802 3.33247 18.8204 3.68378 19.19C4.66902 20.2262 5.69453 21.2245 6.7141 22.2276C6.81091 22.3228 6.97743 22.3943 7.11257 22.396C8.22385 22.4093 9.33539 22.4035 10.4469 22.4035H10.7816C10.721 21.7338 10.7313 21.0963 10.5929 20.4928C10.3796 19.562 9.92666 18.7316 9.00183 18.3267C7.83198 17.8146 6.75173 17.1817 5.79416 16.3324C5.37597 15.9615 4.77625 15.9778 4.29589 16.343C4.51306 16.5907 4.709 16.8294 4.9213 17.0527C5.19746 17.343 5.48677 17.6209 5.77008 17.9045C6.1757 18.3105 6.58641 18.7117 6.98463 19.1248C7.27133 19.4222 7.16221 19.8776 6.7817 19.9251C6.62971 19.944 6.41862 19.8568 6.30395 19.7461C5.57656 19.0438 4.8664 18.3236 4.15513 17.6049C3.65589 17.1003 3.28467 16.5102 3.00794 15.8577C2.68843 15.1041 2.36407 14.3525 2.0389 13.6014C1.91549 13.3163 1.71943 13.164 1.49732 13.164Z" fill="url(#paint3_linear_2660_189)"/>
</g>
<g id="Path 18466">
<path id="Vector_5" d="M14.0016 18.5262C13.844 18.5262 13.6805 18.459 13.4714 18.3083L13.456 18.2972C11.9425 17.2064 10.3775 16.0785 8.84011 14.9667C8.1298 14.4531 7.58756 13.8425 7.22846 13.152C6.86753 12.4579 6.68201 11.6646 6.67703 10.7939C6.66882 9.35308 6.67008 7.88785 6.6713 6.47086C6.6721 5.54919 6.67291 4.59616 6.67112 3.6587C6.67064 3.40998 6.75567 3.2805 6.98486 3.18099C8.91045 2.34479 10.8648 1.48706 12.7549 0.657574L13.6862 0.248882C13.7447 0.223203 13.796 0.191389 13.8455 0.16062C13.8555 0.154441 13.8652 0.148423 13.8747 0.142578H14.1331C14.3514 0.241041 14.5694 0.339986 14.7875 0.438931C15.2786 0.661744 15.7863 0.892147 16.2886 1.11321C17.954 1.84616 19.4555 2.50569 20.9674 3.15498C21.2331 3.2691 21.3314 3.42062 21.3303 3.71405C21.3248 5.15632 21.3252 6.62261 21.3256 8.04062C21.3259 8.91669 21.3261 9.82258 21.325 10.7135C21.3238 11.6088 21.1398 12.4213 20.778 13.1286C20.4156 13.837 19.8636 14.4616 19.1375 14.985C18.3912 15.5229 17.6328 16.0703 16.8994 16.5997C16.1223 17.1606 15.3188 17.7406 14.5281 18.3104C14.3238 18.4576 14.1565 18.5262 14.0016 18.5262ZM14.0048 0.894012C13.9108 0.894012 13.8184 0.911582 13.7445 0.943487C12.7122 1.38969 11.6643 1.84705 10.651 2.28935C9.67192 2.71669 8.6595 3.15858 7.6624 3.58983C7.41738 3.69577 7.31843 3.85246 7.32088 4.13064C7.32845 4.99609 7.32751 5.87646 7.32661 6.72784C7.3263 7.03744 7.32597 7.34703 7.32602 7.65663C7.32602 7.9798 7.32578 8.30298 7.32553 8.62616C7.32499 9.33012 7.32446 10.0581 7.32656 10.7741C7.33117 12.3031 7.9647 13.5344 9.20957 14.4338C9.70741 14.7935 10.214 15.1585 10.7039 15.5115C11.6891 16.2214 12.7078 16.9554 13.7059 17.6824C13.7803 17.7365 13.8811 17.7987 14.0018 17.7987C14.0955 17.7987 14.1856 17.7636 14.2937 17.6848C15.7202 16.6455 17.1767 15.5971 18.5853 14.5831L18.7676 14.4519C20.0284 13.5442 20.6692 12.3071 20.6721 10.7747C20.674 9.79079 20.674 8.7905 20.674 7.82315C20.674 6.5949 20.674 5.32484 20.6779 4.0758C20.6787 3.83808 20.585 3.69582 20.3648 3.60014C19.5428 3.24306 18.7075 2.87852 17.8998 2.52599C16.7067 2.00526 15.473 1.4668 14.2576 0.941743C14.1853 0.910523 14.0979 0.894012 14.0048 0.894012Z" fill="url(#paint4_linear_2660_189)"/>
<path id="Vector_6" d="M13.9153 0.284368C13.8653 0.315367 13.8088 0.349975 13.7434 0.378692L12.8121 0.78738C10.922 1.61692 8.96744 2.4747 7.0416 3.31102C6.86422 3.38803 6.81305 3.46587 6.81342 3.65804C6.8152 4.59572 6.81439 5.54889 6.81359 6.47068C6.81236 7.88741 6.81111 9.35238 6.8193 10.7927C6.82416 11.6406 7.00428 12.4121 7.35471 13.086C7.70351 13.7567 8.23132 14.3506 8.92353 14.8511C10.4609 15.9628 12.0258 17.0907 13.5392 18.1815L13.5546 18.1926C13.7355 18.3229 13.8775 18.3836 14.0017 18.3836C14.1253 18.3836 14.2662 18.3236 14.4451 18.1946C15.2349 17.6255 16.0375 17.0461 16.8137 16.4859C17.548 15.9558 18.3073 15.4078 19.0545 14.8692C19.7622 14.3592 20.2995 13.7516 20.6515 13.0634C21.003 12.3764 21.1818 11.5855 21.1829 10.7129C21.1841 9.82303 21.1838 8.91811 21.1835 8.04299C21.1832 6.62394 21.1828 5.15658 21.1883 3.71312C21.1892 3.47673 21.1245 3.37676 20.9114 3.28523C19.3995 2.63596 17.8975 1.97618 16.2315 1.24296C15.7284 1.02155 15.2202 0.790968 14.7288 0.567973C14.5201 0.473302 14.3114 0.378622 14.1026 0.284368H13.9153ZM14.0019 17.9405C13.8402 17.9405 13.7141 17.8638 13.6223 17.7969C12.6244 17.0701 11.6058 16.3361 10.6207 15.6263C10.1308 15.2733 9.62424 14.9083 9.12641 14.5487C7.8426 13.6211 7.18924 12.3512 7.18448 10.7742C7.18236 10.0579 7.18292 9.32998 7.18346 8.626C7.1837 8.30274 7.18394 7.97949 7.18394 7.65627C7.18389 7.34665 7.1842 7.03704 7.18455 6.72742C7.18545 5.87634 7.18637 4.99629 7.17882 4.1315C7.17585 3.7954 7.30764 3.58797 7.60607 3.45894C8.60287 3.02782 9.61508 2.58601 10.594 2.15875C11.6075 1.71636 12.6556 1.25892 13.6883 0.812568C13.8052 0.762039 13.925 0.75143 14.005 0.75143C14.0833 0.751435 14.2005 0.761749 14.3141 0.81082C15.5299 1.33605 16.7639 1.87462 17.9572 2.39547C18.7648 2.74792 19.5998 3.11237 20.4215 3.46934C20.6945 3.58791 20.8212 3.78064 20.8202 4.07586C20.8163 5.32355 20.8163 6.59238 20.8163 7.81943C20.8163 8.78794 20.8163 9.78942 20.8144 10.7745C20.8114 12.3551 20.1507 13.6311 18.8508 14.5669L18.672 14.6956C17.2624 15.7102 15.8049 16.7595 14.3776 17.7994C14.2944 17.86 14.1649 17.9405 14.0019 17.9405ZM13.8357 0C13.945 0 14.0544 0 14.1638 0C14.891 0.327907 15.6159 0.661333 16.346 0.982679C17.9031 1.66796 19.4605 2.35264 21.0236 3.02394C21.3461 3.16246 21.4739 3.36606 21.4726 3.71419C21.4637 6.0472 21.4703 8.38028 21.4673 10.7133C21.4649 12.5562 20.7183 14.0206 19.2208 15.0999C17.6838 16.2077 16.1484 17.3177 14.6113 18.4253C14.1611 18.7498 13.8398 18.7487 13.3883 18.4233C11.8439 17.3102 10.2995 16.1971 8.7569 15.0815C7.29724 14.026 6.54524 12.5945 6.53495 10.7943C6.52139 8.41582 6.5336 6.0372 6.52905 3.65858C6.52846 3.35692 6.64494 3.17323 6.92833 3.05018C9.16464 2.07904 11.3966 1.09785 13.6292 0.118284C13.7014 0.086574 13.767 0.039755 13.8357 0ZM14.0019 17.6561C14.066 17.6561 14.1304 17.6275 14.2102 17.5695C15.6974 16.4859 17.1911 15.4112 18.6846 14.3361C19.9019 13.4598 20.5271 12.2759 20.53 10.774C20.5344 8.54101 20.5288 6.30796 20.5358 4.07497C20.5364 3.88887 20.4728 3.80164 20.3082 3.73016C18.272 2.8456 16.2394 1.95228 14.2013 1.07187C14.0876 1.02271 13.9152 1.02429 13.801 1.07362C11.7715 1.9508 9.74827 2.84226 7.71895 3.71994C7.51621 3.8076 7.46131 3.91834 7.46317 4.129C7.47345 5.30467 7.46808 6.48044 7.46831 7.65622C7.46831 8.69528 7.46579 9.73428 7.46885 10.7733C7.47334 12.2645 8.08563 13.4459 9.29294 14.3182C10.7919 15.4011 12.2949 16.4784 13.7897 17.567C13.8709 17.6261 13.9362 17.6561 14.0019 17.6561Z" fill="url(#paint5_linear_2660_189)"/>
</g>
<g id="Path 18467">
<path id="Vector_7" d="M14.0015 16.317C13.9318 16.317 13.8457 16.2755 13.7043 16.1736C13.3851 15.9437 13.0658 15.7139 12.7465 15.4841C11.8102 14.8102 10.842 14.1134 9.89231 13.4247C9.45154 13.105 9.115 12.7267 8.89202 12.3001C8.66693 11.8695 8.55104 11.3772 8.54758 10.8368C8.54336 10.1838 8.54434 9.51945 8.54529 8.87702C8.54573 8.57364 8.54618 8.27026 8.54611 7.96689C8.54606 7.67656 8.54666 7.38128 8.54725 7.09573C8.54876 6.37717 8.55031 5.63415 8.54123 4.90295C8.53786 4.63229 8.62624 4.49778 8.87897 4.38889C10.6603 3.62134 12.4075 2.85074 13.7307 2.26515C13.8287 2.22177 13.918 2.20068 14.0035 2.20068C14.0872 2.20068 14.1734 2.22078 14.2669 2.26212C15.907 2.98702 17.5477 3.70517 19.1433 4.39659C19.3734 4.49628 19.4586 4.62562 19.4576 4.87383C19.4531 6.11184 19.4534 7.37042 19.4537 8.58757C19.4538 9.31508 19.454 10.0674 19.4532 10.8072C19.4525 11.3538 19.3386 11.8515 19.1145 12.2865C18.8918 12.7187 18.554 13.1014 18.1104 13.424C17.1074 14.1533 16.0837 14.8898 15.0937 15.602C14.8289 15.7925 14.564 15.983 14.2992 16.1737C14.1577 16.2755 14.0715 16.317 14.0015 16.317ZM14.0021 2.92718C13.9134 2.92718 13.8298 2.94292 13.7604 2.97272C13.0256 3.2885 12.2806 3.61381 11.5601 3.9284C10.8954 4.21863 10.208 4.51874 9.53077 4.81049C9.28757 4.91524 9.18894 5.06277 9.19027 5.31971C9.20117 7.39664 9.20194 9.11597 9.19267 10.7305C9.18729 11.6689 9.55752 12.3915 10.3246 12.9395C11.5317 13.802 12.64 14.6019 13.7128 15.385C13.7907 15.4419 13.886 15.5 14.0022 15.5C14.0022 15.5 14.0023 15.5 14.0022 15.5C14.0917 15.5 14.1802 15.4657 14.2807 15.3921C15.1594 14.7493 16.0582 14.1024 16.9274 13.4769C17.189 13.2886 17.4505 13.1004 17.712 12.912C18.4428 12.3853 18.8106 11.6635 18.8053 10.7666C18.8016 10.1607 18.8025 9.54432 18.8034 8.94825C18.8038 8.68904 18.8042 8.42982 18.8042 8.17059C18.8042 7.92372 18.8039 7.67686 18.8036 7.43001C18.8028 6.73229 18.8019 6.01083 18.8082 5.30163C18.8103 5.05591 18.722 4.91726 18.5034 4.82307C17.815 4.52654 17.1165 4.22145 16.4409 3.92641C15.7231 3.61289 14.9808 3.28869 14.2487 2.9739C14.1777 2.94333 14.0924 2.92718 14.0021 2.92718Z" fill="url(#paint6_linear_2660_189)"/>
<path id="Vector_8" d="M14.0036 2.34247C13.9374 2.34247 13.869 2.35909 13.7883 2.39478C12.465 2.98044 10.7175 3.75116 8.93532 4.51907C8.73734 4.60437 8.68086 4.68998 8.6835 4.90079C8.69259 5.63309 8.69103 6.37671 8.68954 7.09585C8.68893 7.38126 8.68832 7.67638 8.68837 7.96646C8.68844 8.27004 8.68801 8.57362 8.68756 8.87721C8.6866 9.51924 8.68563 10.1831 8.68985 10.8355C8.69315 11.353 8.8036 11.8235 9.01811 12.2338C9.23081 12.6407 9.55305 13.0025 9.97587 13.3092C10.9257 13.9979 11.894 14.6949 12.8306 15.3689C13.1496 15.5985 13.4686 15.8282 13.7875 16.0579C13.9212 16.1542 13.9777 16.1745 14.0015 16.1745C14.0256 16.1745 14.0824 16.1542 14.2162 16.0579C14.481 15.8673 14.7458 15.6767 15.0107 15.4862C16.0006 14.7741 17.0241 14.0378 18.0268 13.3086C18.4523 12.9992 18.7758 12.6333 18.9882 12.2209C19.2018 11.8063 19.3105 11.3304 19.3111 10.8067C19.3119 10.0669 19.3118 9.31467 19.3116 8.58721C19.3113 7.36993 19.311 6.1112 19.3155 4.87291C19.3162 4.6838 19.2628 4.6029 19.0869 4.52666C17.491 3.83512 15.85 3.11684 14.2096 2.39177C14.1334 2.35814 14.068 2.34247 14.0036 2.34247ZM14.0023 15.6418C13.8443 15.6418 13.7199 15.5657 13.6291 15.4995C12.5566 14.7166 11.4487 13.917 10.242 13.0548C9.44583 12.4859 9.04498 11.7035 9.05058 10.7293C9.05982 9.1153 9.05905 7.39646 9.04817 5.32006C9.04652 5.00479 9.17805 4.80724 9.4746 4.67952C10.1516 4.38791 10.8387 4.08786 11.5033 3.7977C12.2239 3.48303 12.9691 3.15764 13.7044 2.84167C13.7914 2.80433 13.8943 2.78459 14.0023 2.78459C14.0786 2.78459 14.193 2.79471 14.305 2.84288C15.0374 3.15781 15.7798 3.48207 16.4978 3.79565C17.1732 4.09064 17.8716 4.39568 18.5597 4.6921C18.9134 4.84447 18.9521 5.11343 18.9504 5.30249C18.9442 6.01097 18.9451 6.73208 18.9459 7.42944C18.9462 7.67635 18.9465 7.92327 18.9465 8.17022C18.9465 8.4293 18.9461 8.68838 18.9457 8.94746C18.9448 9.54347 18.9439 10.1598 18.9475 10.7654C18.9532 11.7109 18.5655 12.4718 17.7952 13.0269C17.5339 13.2153 17.2725 13.4034 17.011 13.5915C16.1419 14.217 15.2432 14.8638 14.3648 15.5065C14.2854 15.5646 14.1615 15.6418 14.0023 15.6418ZM14.0036 2.05811C14.1082 2.05811 14.2129 2.08234 14.3245 2.13167C15.9471 2.84884 17.5722 3.56038 19.1999 4.26573C19.4783 4.38638 19.6011 4.56706 19.5999 4.87397C19.5927 6.85162 19.5977 8.82928 19.5954 10.807C19.5941 11.955 19.1187 12.8663 18.1941 13.5386C16.927 14.46 15.6539 15.3733 14.3824 16.2887C14.0662 16.5163 13.9353 16.5149 13.6213 16.2886C12.35 15.3729 11.0773 14.4592 9.80892 13.5394C8.89203 12.8744 8.41275 11.9749 8.40548 10.8373C8.3993 9.88042 8.40423 8.92345 8.40401 7.96653C8.4038 6.94579 8.41182 5.92494 8.39915 4.90432C8.39505 4.57592 8.51995 4.3884 8.8228 4.25791C10.4437 3.5595 12.0593 2.849 13.6732 2.13473C13.788 2.08396 13.8957 2.05811 14.0036 2.05811ZM14.0023 15.3574C14.0615 15.3574 14.122 15.3318 14.1969 15.277C15.3361 14.4435 16.4838 13.6216 17.6289 12.7962C18.3216 12.297 18.6683 11.6241 18.6632 10.7671C18.658 9.90147 18.662 9.03583 18.6621 8.17019C18.6621 7.21343 18.6576 6.25667 18.6661 5.29998C18.6677 5.12132 18.6202 5.0278 18.4472 4.95326C17.027 4.34147 15.6132 3.71498 14.1927 3.10412C14.0852 3.05791 13.9237 3.05698 13.8166 3.10297C12.4043 3.70989 10.9988 4.33256 9.58711 4.94068C9.40287 5.02003 9.33145 5.10989 9.33254 5.31857C9.342 7.12265 9.34528 8.92689 9.33494 10.731C9.32982 11.6224 9.68659 12.3085 10.4073 12.8234C11.541 13.6334 12.6713 14.4483 13.7967 15.2698C13.8746 15.3266 13.9376 15.3574 14.0023 15.3574Z" fill="url(#paint7_linear_2660_189)"/>
</g>
<g id="Path 18468">
<path id="Vector_9" d="M13.0924 11.9967C13.0073 11.9967 12.893 11.9408 12.7326 11.8208L12.4302 11.5946C11.9848 11.2616 11.5243 10.9172 11.0738 10.5757C10.7766 10.3505 10.8887 10.1631 10.9255 10.1016C10.9855 10.0012 11.0731 9.94817 11.1788 9.94817C11.2653 9.94817 11.3594 9.98373 11.451 10.051C11.7781 10.2914 12.0965 10.5308 12.4336 10.7844C12.5757 10.8913 12.7189 10.999 12.8639 11.1075L12.9824 11.1963L13.0663 11.0743C13.0881 11.0426 13.1093 11.012 13.13 10.9821C13.1741 10.9184 13.2158 10.8582 13.257 10.7965C13.627 10.2417 13.9969 9.68689 14.3669 9.13207C15.0519 8.1046 15.737 7.07714 16.4224 6.04983C16.4305 6.03768 16.4385 6.02545 16.4466 6.0132C16.4866 5.95239 16.5244 5.89495 16.5679 5.84929C16.6319 5.78212 16.7148 5.74512 16.8012 5.74512C16.8642 5.74512 16.925 5.76526 16.9772 5.80337C17.1185 5.90669 17.1553 6.02975 17.0929 6.19063C17.0715 6.24588 17.0337 6.30172 16.9937 6.36084C16.9855 6.373 16.9773 6.38514 16.9692 6.39727C15.841 8.09117 14.6873 9.82251 13.442 11.6902C13.262 11.9603 13.1642 11.9967 13.0924 11.9967Z" fill="url(#paint8_linear_2660_189)"/>
<path id="Vector_10" d="M13.0921 11.8536C13.1037 11.8536 13.1692 11.8419 13.3235 11.6105C14.5688 9.74277 15.7225 8.01145 16.8506 6.3176C16.8589 6.30516 16.8673 6.29273 16.8758 6.28026C16.9111 6.22799 16.9446 6.17861 16.9602 6.13837C16.999 6.03814 16.9821 5.98234 16.8931 5.91728C16.8651 5.8968 16.8341 5.88642 16.801 5.88642C16.7539 5.88642 16.7076 5.90777 16.6706 5.9465C16.6359 5.98291 16.6016 6.03516 16.5652 6.09048C16.5569 6.10297 16.5487 6.11544 16.5404 6.12786C15.8551 7.15516 15.17 8.18261 14.485 9.21006C14.115 9.76489 13.7451 10.3197 13.3751 10.8746C13.3332 10.9373 13.2912 10.998 13.2467 11.0622C13.2261 11.092 13.205 11.1224 13.1833 11.154L13.0155 11.398L12.7785 11.2205C12.6334 11.1118 12.4902 11.0041 12.348 10.8971C12.0112 10.6438 11.6931 10.4046 11.3666 10.1647C11.3006 10.1162 11.2338 10.0895 11.1786 10.0895C11.1439 10.0895 11.0925 10.0982 11.0473 10.1737C11.0161 10.2259 10.9639 10.3132 11.1595 10.4615C11.6096 10.8027 12.0699 11.1469 12.5151 11.4798L12.8176 11.7061C12.9956 11.8393 13.0689 11.8536 13.0921 11.8536ZM13.0922 12.138C12.9673 12.138 12.8272 12.0684 12.6472 11.9337C12.0935 11.5194 11.5389 11.1059 10.9877 10.6881C10.7272 10.4907 10.6665 10.2565 10.8033 10.0277C10.9559 9.77267 11.2548 9.72973 11.535 9.93552C12.0035 10.2798 12.4665 10.6315 12.9489 10.9928C13.0167 10.8943 13.0788 10.8063 13.1385 10.7167C14.1937 9.13452 15.2484 7.55209 16.3039 5.97004C16.3543 5.89452 16.4027 5.8155 16.4648 5.75031C16.6274 5.5798 16.8764 5.55288 17.0609 5.68769C17.2527 5.82796 17.3117 6.01827 17.2253 6.24113C17.193 6.32447 17.1375 6.39977 17.0873 6.47519C15.9121 8.23983 14.7363 10.0042 13.5601 11.7682C13.3935 12.0181 13.256 12.138 13.0922 12.138Z" fill="url(#paint9_linear_2660_189)"/>
</g>
</g>
<defs>
<linearGradient id="paint0_linear_2660_189" x1="17.0167" y1="7.17475" x2="32.8365" y2="38.1321" gradientUnits="userSpaceOnUse">
<stop stop-color="#3463AF"/>
<stop offset="0.228" stop-color="#2C5391"/>
<stop offset="0.561" stop-color="#223655"/>
<stop offset="1" stop-color="#032146"/>
</linearGradient>
<linearGradient id="paint1_linear_2660_189" x1="16.9087" y1="6.93663" x2="32.9755" y2="38.5227" gradientUnits="userSpaceOnUse">
<stop stop-color="#3463AF"/>
<stop offset="0.228" stop-color="#2C5391"/>
<stop offset="0.561" stop-color="#223655"/>
<stop offset="1" stop-color="#032146"/>
</linearGradient>
<linearGradient id="paint2_linear_2660_189" x1="1.61927" y1="7.19488" x2="17.4215" y2="38.1258" gradientUnits="userSpaceOnUse">
<stop stop-color="#3463AF"/>
<stop offset="0.228" stop-color="#2C5391"/>
<stop offset="0.561" stop-color="#223655"/>
<stop offset="1" stop-color="#032146"/>
</linearGradient>
<linearGradient id="paint3_linear_2660_189" x1="1.51144" y1="6.95676" x2="17.5606" y2="38.5164" gradientUnits="userSpaceOnUse">
<stop stop-color="#3463AF"/>
<stop offset="0.228" stop-color="#2C5391"/>
<stop offset="0.561" stop-color="#223655"/>
<stop offset="1" stop-color="#032146"/>
</linearGradient>
<linearGradient id="paint4_linear_2660_189" x1="8.4296" y1="-6.03432" x2="27.1921" y2="30.7587" gradientUnits="userSpaceOnUse">
<stop stop-color="#3463AF"/>
<stop offset="0.228" stop-color="#2C5391"/>
<stop offset="0.561" stop-color="#223655"/>
<stop offset="1" stop-color="#032146"/>
</linearGradient>
<linearGradient id="paint5_linear_2660_189" x1="8.32164" y1="-6.27245" x2="27.3311" y2="31.1491" gradientUnits="userSpaceOnUse">
<stop stop-color="#3463AF"/>
<stop offset="0.228" stop-color="#2C5391"/>
<stop offset="0.561" stop-color="#223655"/>
<stop offset="1" stop-color="#032146"/>
</linearGradient>
<linearGradient id="paint6_linear_2660_189" x1="9.85112" y1="-2.54242" x2="24.516" y2="25.3454" gradientUnits="userSpaceOnUse">
<stop stop-color="#3463AF"/>
<stop offset="0.228" stop-color="#2C5391"/>
<stop offset="0.561" stop-color="#223655"/>
<stop offset="1" stop-color="#032146"/>
</linearGradient>
<linearGradient id="paint7_linear_2660_189" x1="9.74315" y1="-2.78054" x2="24.6545" y2="25.74" gradientUnits="userSpaceOnUse">
<stop stop-color="#3463AF"/>
<stop offset="0.228" stop-color="#2C5391"/>
<stop offset="0.561" stop-color="#223655"/>
<stop offset="1" stop-color="#032146"/>
</linearGradient>
<linearGradient id="paint8_linear_2660_189" x1="11.6238" y1="3.64458" x2="17.1274" y2="17.1709" gradientUnits="userSpaceOnUse">
<stop stop-color="#3463AF"/>
<stop offset="0.228" stop-color="#2C5391"/>
<stop offset="0.561" stop-color="#223655"/>
<stop offset="1" stop-color="#032146"/>
</linearGradient>
<linearGradient id="paint9_linear_2660_189" x1="11.5161" y1="3.40597" x2="17.2704" y2="17.5473" gradientUnits="userSpaceOnUse">
<stop stop-color="#3463AF"/>
<stop offset="0.228" stop-color="#2C5391"/>
<stop offset="0.561" stop-color="#223655"/>
<stop offset="1" stop-color="#032146"/>
</linearGradient>
</defs>
</svg>
