<svg width="22" height="30" viewBox="0 0 22 30" fill="none" xmlns="http://www.w3.org/2000/svg">
<g id="Group 25624">
<path id="Path 18489" d="M21.6989 21.0932L21.6706 21.0514C21.5533 20.8927 21.3895 20.7745 21.202 20.7129C21.0145 20.6514 20.8125 20.6496 20.624 20.7078C20.4723 20.5864 20.2865 20.5156 20.0925 20.5055C19.3505 20.4636 18.5366 21.2787 17.9437 21.8731L17.8712 21.9457C17.3729 22.4486 16.8128 22.8863 16.2045 23.2483C16.1432 23.284 16.0965 23.3401 16.0726 23.4067C15.626 23.074 14.9187 22.9936 14.5438 22.9508L14.3538 22.9294C14.2541 22.9189 14.143 22.9072 13.9861 22.8819C13.1897 22.7554 11.8596 22.3555 9.92106 21.6596C8.09358 21.0029 6.61268 20.8945 5.39436 21.3284C4.7222 21.5807 4.11269 21.9757 3.60783 22.4862C2.64426 23.4498 0.452423 24.1893 0.430442 24.1969L0.252186 24.2571L0.227191 24.4435C-0.115781 27.0069 1.91616 28.7973 2.00378 28.8723L2.15133 28.9997L2.32808 28.9178C2.35006 28.9075 4.55214 27.8867 5.67049 27.4083C6.50097 27.0526 8.15802 27.5633 9.76087 28.0575C10.1255 28.1698 10.5025 28.286 10.8705 28.3926C12.9235 28.9879 14.1322 28.3023 14.2936 28.2026C14.502 28.0948 17.3523 26.619 18.3346 26.1008C19.2599 25.6145 19.5249 25.1824 19.5993 25.0047L21.403 22.5118C21.6538 22.2239 21.9904 21.6178 21.6989 21.0932ZM20.9419 22.117L19.0838 24.6823L19.0458 24.7124L19.0368 24.7789C19.0112 24.8328 18.832 25.1556 18.0521 25.5654C17.0389 26.1002 14.0331 27.6561 14.003 27.6714L13.9729 27.6886C13.9627 27.6952 12.9319 28.3616 11.0355 27.8118C10.6727 27.707 10.2981 27.5913 9.93612 27.4805C8.15049 26.9301 6.46423 26.4098 5.4305 26.8533C4.49703 27.2529 2.81831 28.0256 2.25883 28.2836C1.8457 27.8645 0.654178 26.489 0.803833 24.7048C1.37776 24.4974 3.13116 23.815 4.02578 22.9189C4.46901 22.4697 5.00377 22.1211 5.5937 21.8969C6.67531 21.5118 8.02342 21.6199 9.71479 22.2281C11.6898 22.937 13.0572 23.3462 13.8889 23.4781C14.0599 23.5061 14.1867 23.5193 14.2885 23.5302L14.4739 23.5513C14.7829 23.5865 15.6031 23.6798 15.819 24.0002C15.8465 24.0437 15.8633 24.093 15.8681 24.1442C15.8729 24.1953 15.8656 24.2469 15.8467 24.2947C15.8261 24.3796 15.7877 24.4591 15.7342 24.528C15.6806 24.597 15.6131 24.6539 15.536 24.6949C15.2237 24.8692 14.5176 24.9795 12.9262 24.5178C12.4848 24.3904 12.0312 24.3096 11.573 24.2769C11.2103 24.248 10.8457 24.2525 10.4839 24.2902C9.97496 24.3471 9.07823 24.5284 8.78946 25.1059C8.77167 25.1413 8.76105 25.1799 8.75821 25.2194C8.75536 25.259 8.76035 25.2987 8.77288 25.3363C8.78541 25.3739 8.80525 25.4086 8.83124 25.4386C8.85724 25.4685 8.88888 25.493 8.92436 25.5106C8.95976 25.5284 8.99831 25.5389 9.03781 25.5418C9.07731 25.5446 9.11698 25.5396 9.15454 25.5271C9.19211 25.5145 9.22683 25.4947 9.25672 25.4687C9.28662 25.4428 9.3111 25.4112 9.32876 25.3757C9.42091 25.1914 9.83434 24.9695 10.5498 24.89C10.8749 24.8564 11.2023 24.8526 11.5281 24.8786C11.9446 24.9086 12.3568 24.9824 12.7579 25.0987C14.2168 25.5218 15.2213 25.5627 15.8293 25.2234C15.976 25.1436 16.1049 25.0345 16.2077 24.9029C16.3106 24.7713 16.3853 24.6199 16.4273 24.4582C16.4925 24.2452 16.4818 24.0162 16.3972 23.8102C16.4352 23.8046 16.4718 23.7917 16.505 23.7723C17.158 23.3839 17.7592 22.9143 18.2942 22.3748L18.3674 22.3016C18.8218 21.8463 19.5788 21.0797 20.0561 21.1101C20.111 21.1135 20.1645 21.1296 20.2122 21.1572C20.2599 21.1847 20.3005 21.2229 20.331 21.2688L20.5189 21.5037L20.754 21.3164C20.8236 21.2757 20.906 21.2628 20.9847 21.2801C21.0633 21.2975 21.1326 21.3439 21.1786 21.41C21.2894 21.6473 21.0404 22.008 20.9419 22.1194V22.117Z" fill="url(#paint0_linear_2660_163)" stroke="url(#paint1_linear_2660_163)" stroke-width="0.25"/>
<path id="Path 18490" d="M3.8616 20.0646L4.3735 20.3712L4.53068 20.2833C5.28167 19.8717 6.12739 19.664 6.98359 19.681C8.04094 19.7066 9.08583 19.9154 10.0718 20.298C13.1652 21.4094 13.9864 21.4986 14.3754 21.5407C14.4218 21.5464 14.5952 21.566 14.6049 21.5669C14.8528 21.5921 15.0991 21.6314 15.3426 21.6846L15.463 21.7124L18.2303 20.0947L18.2734 20.0646C18.4674 19.9021 18.6522 19.7289 18.8268 19.5458C20.0892 18.2383 20.793 16.4908 20.7892 14.6734V3.21472L11.4154 1.04006C11.1865 0.986648 10.9484 0.986648 10.7195 1.04006L1.34546 3.21502V14.6737C1.34429 15.7018 1.56906 16.7175 2.00385 17.6491C2.43865 18.5806 3.07286 19.4053 3.8616 20.0646ZM1.9733 3.71397L10.8629 1.65162C10.9978 1.62 11.1381 1.62 11.273 1.65162L20.1623 3.71397V14.6746C20.1655 16.3303 19.5241 17.9222 18.374 19.1131C18.2211 19.2733 18.0598 19.4252 17.8907 19.5681L15.3595 21.0478C15.0885 20.9924 14.8437 20.9641 14.6669 20.9439C14.6669 20.9439 14.4971 20.9246 14.448 20.9189C14.0782 20.8789 13.3083 20.7951 10.2847 19.7087C9.23083 19.3012 8.11415 19.0799 6.98449 19.0547C6.0828 19.0393 5.19095 19.244 4.38615 19.6509L4.24643 19.5684C3.53369 18.9678 2.96102 18.2185 2.5686 17.3731C2.17617 16.5277 1.97351 15.6067 1.97481 14.6746L1.9733 3.71397Z" fill="url(#paint2_linear_2660_163)" stroke="url(#paint3_linear_2660_163)" stroke-width="0.25"/>
<path id="Path 18491" d="M10.5962 9.24373C10.7236 9.20409 10.8563 9.18379 10.9897 9.1835C11.142 9.17397 11.2946 9.19615 11.4379 9.24863C11.5812 9.30112 11.712 9.38278 11.8221 9.48843C11.9322 9.59409 12.0192 9.72144 12.0775 9.86244C12.1359 10.0034 12.1643 10.155 12.1611 10.3076C12.151 10.5196 12.0986 10.7274 12.0067 10.9188C11.9149 11.1102 11.7857 11.2812 11.6266 11.4217C11.3427 11.6898 11.0296 11.9251 10.6931 12.1233C10.623 12.1667 10.5549 12.21 10.4884 12.2534C8.94423 13.2627 8.47087 14.282 8.5585 15.7144H13.6591L13.1042 14.5401H10.336L9.9864 14.5497C9.99121 14.5277 10.0292 14.4223 10.0352 14.4007C10.14 14.024 10.4757 13.7081 10.9988 13.332C11.2041 13.1854 11.4387 13.0309 11.6995 12.858C11.8637 12.75 12.0157 12.6434 12.1556 12.5382C13.0927 11.833 13.5004 11.1664 13.5007 10.2979C13.5007 9.02752 12.5221 8.03565 11.0153 8.03565C10.7049 8.0352 10.3977 8.09747 10.112 8.21872C9.66277 8.40992 9.28105 8.73114 9.0159 9.14105L9.61813 10.4157C9.65707 10.1491 9.76905 9.89847 9.94168 9.69162C10.1143 9.48476 10.3408 9.32974 10.5962 9.24373Z" fill="url(#paint4_linear_2660_163)" stroke="url(#paint5_linear_2660_163)" stroke-width="0.25"/>
<path id="Path 18492" d="M6.94766 11.888H9.94407L9.44421 10.832L9.43638 10.817H7.45563L8.44692 8.72328L8.90221 7.75971L8.29003 6.4649L8.28521 6.45557H8.0919L7.73326 7.21348L4.49927 14.0467H5.92627L6.94766 11.888Z" fill="url(#paint6_linear_2660_163)" stroke="url(#paint7_linear_2660_163)" stroke-width="0.25"/>
<path id="Path 18493" d="M13.0463 7.568H13.853V7.57132H15.2382L15.0494 7.74025L13.866 9.07961L14.2677 9.92786C14.3757 9.89887 14.4871 9.88459 14.5989 9.8854C14.8063 9.88021 15.0127 9.9162 15.2062 9.99129C15.3996 10.0664 15.5762 10.1791 15.7258 10.3229C15.8754 10.4667 15.995 10.6387 16.0777 10.829C16.1603 11.0193 16.2045 11.2242 16.2075 11.4316C16.2051 11.6759 16.1467 11.9163 16.0367 12.1344C15.9268 12.3526 15.7682 12.5425 15.5733 12.6897C15.548 12.709 15.5221 12.7279 15.4953 12.7457C15.2158 12.9339 14.8862 13.0336 14.5492 13.0318C14.3016 13.0292 14.0573 12.9747 13.8321 12.8718C13.6069 12.7689 13.4058 12.6199 13.2418 12.4344L12.3763 13.2669C12.9582 13.8395 13.7416 14.1608 14.558 14.1616C15.0623 14.1763 15.5624 14.0671 16.0147 13.8436C16.0433 13.8291 16.0714 13.8145 16.0991 13.7996C16.5253 13.57 16.881 13.2286 17.128 12.8122C17.3751 12.3958 17.5041 11.92 17.5014 11.4359C17.5014 10.3898 16.8717 9.29792 15.3935 8.99349L16.7456 7.47887V6.45508H12.5185L13.0304 7.53488L13.0463 7.568Z" fill="url(#paint8_linear_2660_163)" stroke="url(#paint9_linear_2660_163)" stroke-width="0.25"/>
</g>
<defs>
<linearGradient id="paint0_linear_2660_163" x1="2.78306" y1="17.6493" x2="6.12098" y2="38.5411" gradientUnits="userSpaceOnUse">
<stop stop-color="#3463AF"/>
<stop offset="0.228" stop-color="#2C5391"/>
<stop offset="0.561" stop-color="#223655"/>
<stop offset="1" stop-color="#032146"/>
</linearGradient>
<linearGradient id="paint1_linear_2660_163" x1="2.78306" y1="17.6493" x2="6.12098" y2="38.5411" gradientUnits="userSpaceOnUse">
<stop stop-color="#3463AF"/>
<stop offset="0.228" stop-color="#2C5391"/>
<stop offset="0.561" stop-color="#223655"/>
<stop offset="1" stop-color="#032146"/>
</linearGradient>
<linearGradient id="paint2_linear_2660_163" x1="3.67871" y1="-5.95935" x2="22.7305" y2="38.0213" gradientUnits="userSpaceOnUse">
<stop stop-color="#3463AF"/>
<stop offset="0.228" stop-color="#2C5391"/>
<stop offset="0.561" stop-color="#223655"/>
<stop offset="1" stop-color="#032146"/>
</linearGradient>
<linearGradient id="paint3_linear_2660_163" x1="3.67871" y1="-5.95935" x2="22.7305" y2="38.0213" gradientUnits="userSpaceOnUse">
<stop stop-color="#3463AF"/>
<stop offset="0.228" stop-color="#2C5391"/>
<stop offset="0.561" stop-color="#223655"/>
<stop offset="1" stop-color="#032146"/>
</linearGradient>
<linearGradient id="paint4_linear_2660_163" x1="9.16174" y1="5.45557" x2="17.7773" y2="19.5563" gradientUnits="userSpaceOnUse">
<stop stop-color="#3463AF"/>
<stop offset="0.228" stop-color="#2C5391"/>
<stop offset="0.561" stop-color="#223655"/>
<stop offset="1" stop-color="#032146"/>
</linearGradient>
<linearGradient id="paint5_linear_2660_163" x1="9.16174" y1="5.45557" x2="17.7773" y2="19.5563" gradientUnits="userSpaceOnUse">
<stop stop-color="#3463AF"/>
<stop offset="0.228" stop-color="#2C5391"/>
<stop offset="0.561" stop-color="#223655"/>
<stop offset="1" stop-color="#032146"/>
</linearGradient>
<linearGradient id="paint6_linear_2660_163" x1="5.15264" y1="3.90493" x2="13.3662" y2="18.392" gradientUnits="userSpaceOnUse">
<stop stop-color="#3463AF"/>
<stop offset="0.228" stop-color="#2C5391"/>
<stop offset="0.561" stop-color="#223655"/>
<stop offset="1" stop-color="#032146"/>
</linearGradient>
<linearGradient id="paint7_linear_2660_163" x1="5.15264" y1="3.90493" x2="13.3662" y2="18.392" gradientUnits="userSpaceOnUse">
<stop stop-color="#3463AF"/>
<stop offset="0.228" stop-color="#2C5391"/>
<stop offset="0.561" stop-color="#223655"/>
<stop offset="1" stop-color="#032146"/>
</linearGradient>
<linearGradient id="paint8_linear_2660_163" x1="12.9914" y1="3.86525" x2="21.6432" y2="18.0119" gradientUnits="userSpaceOnUse">
<stop stop-color="#3463AF"/>
<stop offset="0.228" stop-color="#2C5391"/>
<stop offset="0.561" stop-color="#223655"/>
<stop offset="1" stop-color="#032146"/>
</linearGradient>
<linearGradient id="paint9_linear_2660_163" x1="12.9914" y1="3.86525" x2="21.6432" y2="18.0119" gradientUnits="userSpaceOnUse">
<stop stop-color="#3463AF"/>
<stop offset="0.228" stop-color="#2C5391"/>
<stop offset="0.561" stop-color="#223655"/>
<stop offset="1" stop-color="#032146"/>
</linearGradient>
</defs>
</svg>
