<svg width="30" height="28" viewBox="0 0 30 28" fill="none" xmlns="http://www.w3.org/2000/svg">
<g id="Group 25623">
<path id="Path 18471" d="M19.6496 0.000676225C20.3073 0.075881 20.9704 0.119531 21.621 0.235695C22.3556 0.365289 23.0791 0.559007 23.8829 0.741983C23.7254 0.846061 23.6301 0.912529 23.5317 0.973969C22.537 1.54729 21.6176 2.24236 20.7948 3.04311C19.1543 4.69218 18.1444 6.86454 17.941 9.1817C17.6238 12.7909 18.8727 15.791 21.614 18.1425C23.0854 19.404 24.8991 20.1987 26.8239 20.4255C27.3396 20.4926 27.8623 20.5087 28.3824 20.5309C28.7601 20.547 29.1391 20.5339 29.5152 20.5339C29.5209 20.5675 29.533 20.5913 29.5256 20.6011C28.088 22.2327 26.467 23.6227 24.4368 24.4785C22.3648 25.3799 20.0845 25.6935 17.846 25.385C16.9705 25.2337 16.1036 25.0367 15.2488 24.7947C15.1822 24.766 15.1075 24.7623 15.0383 24.7841C14.9692 24.8059 14.9101 24.8519 14.8721 24.9136C13.608 26.5308 11.7673 27.5964 9.73532 27.8872C9.43719 27.9329 9.1367 27.9627 8.83722 28H8.26815C8.16743 27.9839 8.06436 27.9705 7.96297 27.9517C7.33575 27.8764 6.71481 27.7557 6.10501 27.5907C4.77283 27.1797 3.5723 26.4252 2.62407 25.4032C1.67584 24.3812 1.01329 23.1276 0.703028 21.7684C0.59425 21.3501 0.547586 20.9153 0.472046 20.4883V19.3501C0.52207 19.0335 0.554632 18.7122 0.624801 18.4007C1.34932 15.1776 3.2892 13.0799 6.4525 12.1224C6.53317 12.1095 6.60639 12.0677 6.65843 12.0047C6.71047 11.9417 6.73776 11.8619 6.73519 11.7803C6.79239 11.1772 6.88204 10.5776 7.00377 9.9841C7.58914 7.3442 9.01238 4.96432 11.0611 3.19957C12.8904 1.56798 15.1602 0.512137 17.5865 0.164179C18.1005 0.0872958 18.6206 0.0537177 19.1379 0L19.6496 0.000676225ZM15.7181 23.6398C17.5553 24.2611 19.5191 24.4112 21.4293 24.0763C23.2967 23.7573 26.0289 22.4795 26.5738 21.6925C21.8238 20.7609 18.4806 18.1086 17.1185 13.412C15.7564 8.71536 17.1568 4.68284 20.7525 1.33321C17.326 1.01896 14.3416 1.95096 11.7994 4.20912C9.58209 6.15726 8.20613 8.88896 7.96062 11.8303C14.111 11.3935 18.6155 17.8662 15.7181 23.6398ZM8.55923 26.744C10.3675 26.7346 12.0988 26.0116 13.3767 24.7321C14.6545 23.4527 15.3753 21.7204 15.3824 19.9121C15.3797 18.0992 14.6578 16.3615 13.3752 15.0803C12.0926 13.7991 10.354 13.0792 8.54111 13.0786C6.72813 13.0829 4.9911 13.8071 3.71197 15.0919C2.43283 16.3767 1.71632 18.1169 1.71997 19.9299C1.73016 21.7383 2.45475 23.4693 3.7358 24.7457C5.01685 26.0221 6.75084 26.7404 8.55923 26.744Z" fill="url(#paint0_linear_2660_169)"/>
<path id="Path 18472" d="M7.94252 14.9507H9.17399V15.276C9.17399 16.6589 9.16963 18.0418 9.18104 19.4244C9.18786 19.5688 9.24513 19.7062 9.34287 19.8128C10.0714 20.5575 10.8117 21.29 11.5527 22.0229C11.6284 22.086 11.7103 22.1412 11.7971 22.1878L10.8785 23.101C10.8449 23.0735 10.7818 23.0244 10.7248 22.9667C9.84087 22.0826 8.95879 21.1967 8.07849 20.309C7.99493 20.2256 7.94336 20.1154 7.93278 19.9978C7.92372 18.3594 7.92674 16.7207 7.92741 15.0823C7.92775 15.0457 7.9358 15.0081 7.94252 14.9507Z" fill="url(#paint1_linear_2660_169)"/>
</g>
<defs>
<linearGradient id="paint0_linear_2660_169" x1="1.83767" y1="-2.492" x2="23.7694" y2="30.3562" gradientUnits="userSpaceOnUse">
<stop stop-color="#3463AF"/>
<stop offset="0.453" stop-color="#2C5391"/>
<stop offset="0.764" stop-color="#223655"/>
<stop offset="1" stop-color="#032146"/>
</linearGradient>
<linearGradient id="paint1_linear_2660_169" x1="8.10831" y1="14.2253" x2="14.555" y2="18.6442" gradientUnits="userSpaceOnUse">
<stop stop-color="#3463AF"/>
<stop offset="0.453" stop-color="#2C5391"/>
<stop offset="0.764" stop-color="#223655"/>
<stop offset="1" stop-color="#032146"/>
</linearGradient>
</defs>
</svg>
