<svg width="30" height="30" viewBox="0 0 30 30" fill="none" xmlns="http://www.w3.org/2000/svg">
<g id="Group 25310">
<g id="Group 25312">
<path id="Path 18383" d="M14.9713 18.1167C14.825 18.1168 14.6847 18.175 14.5812 18.2785C14.4778 18.382 14.4197 18.5223 14.4197 18.6687V28.4379C14.4197 28.5842 14.4778 28.7246 14.5813 28.828C14.6848 28.9315 14.8251 28.9896 14.9715 28.9896C15.1178 28.9896 15.2582 28.9315 15.3616 28.828C15.4651 28.7246 15.5233 28.5842 15.5233 28.4379V18.6687C15.5233 18.5223 15.4651 18.382 15.3617 18.2785C15.2583 18.175 15.1176 18.1168 14.9713 18.1167Z" fill="url(#paint0_linear_2660_205)" stroke="url(#paint1_linear_2660_205)" stroke-width="0.25"/>
<g id="Path 18384">
<path d="M10.6482 4.51999C10.6514 3.94517 10.513 3.3784 10.2453 2.86975C9.97749 2.36111 9.58857 1.92623 9.11286 1.60355C8.63715 1.28086 8.08929 1.0803 7.51768 1.01958C6.94607 0.958864 6.36831 1.03985 5.83542 1.2554C5.30254 1.47094 4.83094 1.81441 4.46229 2.25546C4.09364 2.6965 3.83928 3.22155 3.72168 3.78422C3.60409 4.34689 3.62687 4.92986 3.78803 5.48163C3.94919 6.0334 4.24375 6.53699 4.64571 6.94792C2.0972 7.33691 0.75708 9.19153 0.75708 12.3754V17.2178C0.760678 17.8691 1.01813 18.4933 1.4747 18.9577C1.93128 19.4221 2.55098 19.6902 3.20209 19.7049V28.4477C3.20209 28.5202 3.21637 28.5919 3.2441 28.6589C3.27183 28.7258 3.31247 28.7867 3.36371 28.8379C3.41495 28.8891 3.47577 28.9298 3.54272 28.9575C3.60967 28.9852 3.68142 28.9995 3.75388 28.9995C3.82634 28.9995 3.89809 28.9852 3.96504 28.9575C4.03199 28.9298 4.09281 28.8891 4.14405 28.8379C4.19529 28.7867 4.23593 28.7258 4.26366 28.6589C4.29139 28.5919 4.30567 28.5202 4.30567 28.4477V11.7285C4.30567 11.6561 4.29139 11.5843 4.26366 11.5174C4.23593 11.4504 4.19529 11.3896 4.14405 11.3384C4.09281 11.2871 4.03199 11.2465 3.96504 11.2188C3.89809 11.191 3.82634 11.1767 3.75388 11.1767C3.68142 11.1767 3.60967 11.191 3.54272 11.2188C3.47577 11.2465 3.41495 11.2871 3.36371 11.3384C3.31247 11.3896 3.27183 11.4504 3.2441 11.5174C3.21637 11.5843 3.20209 11.6561 3.20209 11.7285V18.5984C2.84349 18.5847 2.50396 18.4333 2.25412 18.1757C2.00428 17.9181 1.86335 17.5741 1.86065 17.2152V12.3754C1.86065 9.3719 3.08382 7.97297 5.70986 7.97297H6.71125C6.85018 7.99113 6.99005 8.00112 7.13015 8.00287H7.14789C8.07284 8.00184 8.95988 7.63517 9.61558 6.98279C10.2713 6.33041 10.6425 5.44525 10.6482 4.52032M8.8343 6.20574C8.42482 6.60679 7.88591 6.84894 7.31413 6.88878C7.26946 6.87656 7.22343 6.87004 7.17713 6.86939H6.78781C6.21876 6.78425 5.6995 6.49674 5.32534 6.05963C4.95117 5.62252 4.7472 5.06513 4.75084 4.48976C4.75362 3.855 5.00827 3.24731 5.45884 2.80019C5.90941 2.35307 6.51904 2.1031 7.1538 2.1052H7.16004C7.63389 2.10803 8.09628 2.25116 8.48886 2.51653C8.88144 2.78189 9.18661 3.15761 9.36587 3.59625C9.54512 4.03489 9.59042 4.5168 9.49605 4.98117C9.40167 5.44553 9.17186 5.87153 8.83561 6.20541" fill="url(#paint2_linear_2660_205)"/>
<path d="M10.6482 4.51999C10.6514 3.94517 10.513 3.3784 10.2453 2.86975C9.97749 2.36111 9.58857 1.92623 9.11286 1.60355C8.63715 1.28086 8.08929 1.0803 7.51768 1.01958C6.94607 0.958864 6.36831 1.03985 5.83542 1.2554C5.30254 1.47094 4.83094 1.81441 4.46229 2.25546C4.09364 2.6965 3.83928 3.22155 3.72168 3.78422C3.60409 4.34689 3.62687 4.92986 3.78803 5.48163C3.94919 6.0334 4.24375 6.53699 4.64571 6.94792C2.0972 7.33691 0.75708 9.19153 0.75708 12.3754V17.2178C0.760678 17.8691 1.01813 18.4933 1.4747 18.9577C1.93128 19.4221 2.55098 19.6902 3.20209 19.7049V28.4477C3.20209 28.5202 3.21637 28.5919 3.2441 28.6589C3.27183 28.7258 3.31247 28.7867 3.36371 28.8379C3.41495 28.8891 3.47577 28.9298 3.54272 28.9575C3.60967 28.9852 3.68142 28.9995 3.75388 28.9995C3.82634 28.9995 3.89809 28.9852 3.96504 28.9575C4.03199 28.9298 4.09281 28.8891 4.14405 28.8379C4.19529 28.7867 4.23593 28.7258 4.26366 28.6589C4.29139 28.5919 4.30567 28.5202 4.30567 28.4477V11.7285C4.30567 11.6561 4.29139 11.5843 4.26366 11.5174C4.23593 11.4504 4.19529 11.3896 4.14405 11.3384C4.09281 11.2871 4.03199 11.2465 3.96504 11.2188C3.89809 11.191 3.82634 11.1767 3.75388 11.1767C3.68142 11.1767 3.60967 11.191 3.54272 11.2188C3.47577 11.2465 3.41495 11.2871 3.36371 11.3384C3.31247 11.3896 3.27183 11.4504 3.2441 11.5174C3.21637 11.5843 3.20209 11.6561 3.20209 11.7285V18.5984C2.84349 18.5847 2.50396 18.4333 2.25412 18.1757C2.00428 17.9181 1.86335 17.5741 1.86065 17.2152V12.3754C1.86065 9.3719 3.08382 7.97297 5.70986 7.97297H6.71125C6.85018 7.99113 6.99005 8.00112 7.13015 8.00287H7.14789C8.07284 8.00184 8.95988 7.63517 9.61558 6.98279C10.2713 6.33041 10.6425 5.44525 10.6482 4.52032M8.8343 6.20574C8.42482 6.60679 7.88591 6.84894 7.31413 6.88878C7.26946 6.87656 7.22343 6.87004 7.17713 6.86939H6.78781C6.21876 6.78425 5.6995 6.49674 5.32534 6.05963C4.95117 5.62252 4.7472 5.06513 4.75084 4.48976C4.75362 3.855 5.00827 3.24731 5.45884 2.80019C5.90941 2.35307 6.51904 2.1031 7.1538 2.1052H7.16004C7.63389 2.10803 8.09628 2.25116 8.48886 2.51653C8.88144 2.78189 9.18661 3.15761 9.36587 3.59625C9.54512 4.03489 9.59042 4.5168 9.49605 4.98117C9.40167 5.44553 9.17186 5.87153 8.83561 6.20541" stroke="url(#paint3_linear_2660_205)" stroke-width="0.25"/>
</g>
<g id="Path 18385">
<path d="M25.3556 6.94859C25.838 6.45564 26.1639 5.83115 26.2924 5.15357C26.421 4.47599 26.3465 3.77552 26.0782 3.14016C25.81 2.5048 25.3599 1.96287 24.7847 1.58245C24.2094 1.20203 23.5346 1.00008 22.8449 1.00197H22.8344C21.9117 1.01293 21.0307 1.38777 20.3829 2.04494C19.7351 2.70211 19.373 3.58846 19.3754 4.51121C19.3777 5.43396 19.7443 6.31847 20.3954 6.97235C21.0465 7.62623 21.9294 7.99659 22.8521 8.00288H22.8702C23.0103 8.00113 23.1502 7.99115 23.2891 7.97298H24.2902C26.9165 7.97298 28.1394 9.37191 28.1394 12.3754V17.2139C28.1371 17.5731 27.9964 17.9175 27.7465 18.1755C27.4966 18.4336 27.1568 18.5852 26.7979 18.599V11.7289C26.7979 11.5825 26.7398 11.4422 26.6363 11.3387C26.5328 11.2352 26.3925 11.1771 26.2461 11.1771C26.0998 11.1771 25.9594 11.2352 25.856 11.3387C25.7525 11.4422 25.6943 11.5825 25.6943 11.7289V28.4484C25.6943 28.5947 25.7525 28.7351 25.856 28.8386C25.9594 28.9421 26.0998 29.0002 26.2461 29.0002C26.3925 29.0002 26.5328 28.9421 26.6363 28.8386C26.7398 28.7351 26.7979 28.5947 26.7979 28.4484V19.7056C27.4499 19.692 28.0706 19.424 28.5275 18.9587C28.9844 18.4935 29.2412 17.8679 29.2429 17.2159V12.3761C29.2429 9.19187 27.9028 7.33758 25.3546 6.94924M20.4557 4.51474C20.4549 4.19903 20.5162 3.88624 20.6363 3.59426C20.7564 3.30228 20.9329 3.03683 21.1556 2.81309C21.3784 2.58934 21.643 2.41169 21.9344 2.29028C22.2259 2.16888 22.5384 2.1061 22.8541 2.10554H22.8603C23.4928 2.10632 24.0991 2.35746 24.5469 2.80406C24.9947 3.25066 25.2474 3.85638 25.2498 4.48879C25.2532 5.06408 25.0491 5.62133 24.675 6.05838C24.3009 6.49543 23.7818 6.78302 23.2129 6.86842H22.8245C22.7763 6.86918 22.7283 6.87625 22.6819 6.88945C22.0802 6.8459 21.5169 6.57715 21.1045 6.13678C20.6921 5.6964 20.4608 5.11676 20.4567 4.51343" fill="url(#paint4_linear_2660_205)"/>
<path d="M25.3556 6.94859C25.838 6.45564 26.1639 5.83115 26.2924 5.15357C26.421 4.47599 26.3465 3.77552 26.0782 3.14016C25.81 2.5048 25.3599 1.96287 24.7847 1.58245C24.2094 1.20203 23.5346 1.00008 22.8449 1.00197H22.8344C21.9117 1.01293 21.0307 1.38777 20.3829 2.04494C19.7351 2.70211 19.373 3.58846 19.3754 4.51121C19.3777 5.43396 19.7443 6.31847 20.3954 6.97235C21.0465 7.62623 21.9294 7.99659 22.8521 8.00288H22.8702C23.0103 8.00113 23.1502 7.99115 23.2891 7.97298H24.2902C26.9165 7.97298 28.1394 9.37191 28.1394 12.3754V17.2139C28.1371 17.5731 27.9964 17.9175 27.7465 18.1755C27.4966 18.4336 27.1568 18.5852 26.7979 18.599V11.7289C26.7979 11.5825 26.7398 11.4422 26.6363 11.3387C26.5328 11.2352 26.3925 11.1771 26.2461 11.1771C26.0998 11.1771 25.9594 11.2352 25.856 11.3387C25.7525 11.4422 25.6943 11.5825 25.6943 11.7289V28.4484C25.6943 28.5947 25.7525 28.7351 25.856 28.8386C25.9594 28.9421 26.0998 29.0002 26.2461 29.0002C26.3925 29.0002 26.5328 28.9421 26.6363 28.8386C26.7398 28.7351 26.7979 28.5947 26.7979 28.4484V19.7056C27.4499 19.692 28.0706 19.424 28.5275 18.9587C28.9844 18.4935 29.2412 17.8679 29.2429 17.2159V12.3761C29.2429 9.19187 27.9028 7.33758 25.3546 6.94924M20.4557 4.51474C20.4549 4.19903 20.5162 3.88624 20.6363 3.59426C20.7564 3.30228 20.9329 3.03683 21.1556 2.81309C21.3784 2.58934 21.643 2.41169 21.9344 2.29028C22.2259 2.16888 22.5384 2.1061 22.8541 2.10554H22.8603C23.4928 2.10632 24.0991 2.35746 24.5469 2.80406C24.9947 3.25066 25.2474 3.85638 25.2498 4.48879C25.2532 5.06408 25.0491 5.62133 24.675 6.05838C24.3009 6.49543 23.7818 6.78302 23.2129 6.86842H22.8245C22.7763 6.86918 22.7283 6.87625 22.6819 6.88945C22.0802 6.8459 21.5169 6.57715 21.1045 6.13678C20.6921 5.6964 20.4608 5.11676 20.4567 4.51343" stroke="url(#paint5_linear_2660_205)" stroke-width="0.25"/>
</g>
<g id="Path 18386">
<path d="M17.4757 6.94233C17.9563 6.44984 18.2809 5.82654 18.4089 5.15045C18.537 4.47436 18.4628 3.77553 18.1956 3.14142C17.9284 2.50732 17.4801 1.96611 16.9068 1.58555C16.3335 1.20499 15.6607 1.00199 14.9726 1.00195H14.963C14.2747 1.00314 13.602 1.20739 13.0292 1.58913C12.4564 1.97087 12.0089 2.51312 11.7429 3.14798C11.4769 3.78284 11.404 4.48208 11.5336 5.15813C11.6631 5.83419 11.9892 6.457 12.471 6.94857C9.92155 7.33625 8.58044 9.19087 8.58044 12.3758V17.2181C8.58279 17.8698 8.83982 18.4948 9.29665 18.9595C9.75349 19.4243 10.3739 19.692 11.0255 19.7055V28.4484C11.0255 28.5947 11.0836 28.7351 11.1871 28.8386C11.2906 28.942 11.4309 29.0002 11.5772 29.0002C11.7236 29.0002 11.8639 28.942 11.9674 28.8386C12.0709 28.7351 12.129 28.5947 12.129 28.4484V11.7289C12.129 11.5825 12.0709 11.4422 11.9674 11.3387C11.8639 11.2352 11.7236 11.1771 11.5772 11.1771C11.4309 11.1771 11.2906 11.2352 11.1871 11.3387C11.0836 11.4422 11.0255 11.5825 11.0255 11.7289V18.5993C10.6663 18.5872 10.3258 18.4363 10.0756 18.1784C9.82542 17.9204 9.68493 17.5755 9.68369 17.2162V12.3761C9.68369 9.37223 10.9069 7.97362 13.5332 7.97362H14.5343C14.6731 7.99186 14.8129 8.00174 14.9529 8.00319H14.9706C15.1152 8.00228 15.2596 7.99241 15.403 7.97362H16.4668C19.0931 7.97362 20.316 9.37256 20.316 12.3761V17.2136C20.3137 17.5749 20.1714 17.9214 19.9189 18.18C19.6665 18.4386 19.3236 18.5893 18.9624 18.6003V11.7289C18.9624 11.5825 18.9043 11.4422 18.8008 11.3387C18.6973 11.2352 18.5569 11.1771 18.4106 11.1771C18.2643 11.1771 18.1239 11.2352 18.0204 11.3387C17.9169 11.4422 17.8588 11.5825 17.8588 11.7289V18.6552C17.8588 18.6595 17.8588 18.6637 17.8588 18.6683C17.8588 18.6729 17.8588 18.6765 17.8588 18.6808V28.4484C17.8588 28.5947 17.9169 28.7351 18.0204 28.8386C18.1239 28.942 18.2643 29.0002 18.4106 29.0002C18.5569 29.0002 18.6973 28.942 18.8008 28.8386C18.9043 28.7351 18.9624 28.5947 18.9624 28.4484V19.7059C19.616 19.694 20.2391 19.4269 20.6983 18.9615C21.1575 18.4962 21.4164 17.8696 21.4196 17.2159V12.3761C21.4196 9.16952 20.0591 7.31227 17.4751 6.94233M12.5742 4.4891C12.575 4.17471 12.6379 3.86357 12.7591 3.57351C12.8804 3.28345 13.0577 3.02016 13.2809 2.79874C13.5041 2.57732 13.7688 2.40211 14.0598 2.28316C14.3508 2.1642 14.6624 2.10384 14.9768 2.10553H14.9834C15.5865 2.10873 16.1662 2.33933 16.6068 2.75127C17.0473 3.16321 17.3162 3.72618 17.3598 4.32772C17.4034 4.92927 17.2185 5.52513 16.842 5.99629C16.4655 6.46746 15.9251 6.77925 15.3287 6.86939H14.6135C14.0447 6.78326 13.5258 6.49554 13.1514 6.05871C12.7771 5.62188 12.5722 5.06504 12.5742 4.48976V4.4891Z" fill="url(#paint6_linear_2660_205)"/>
<path d="M17.4757 6.94233C17.9563 6.44984 18.2809 5.82654 18.409 5.15045C18.537 4.47436 18.4628 3.77553 18.1956 3.14142C17.9284 2.50732 17.4801 1.96611 16.9068 1.58555C16.3335 1.20499 15.6607 1.00199 14.9726 1.00195H14.963C14.2747 1.00314 13.602 1.20739 13.0292 1.58913C12.4564 1.97087 12.0089 2.51312 11.7429 3.14798C11.4769 3.78284 11.404 4.48208 11.5336 5.15813C11.6631 5.83419 11.9892 6.457 12.471 6.94857C9.92155 7.33625 8.58044 9.19087 8.58044 12.3758V17.2182C8.58279 17.8698 8.83982 18.4948 9.29665 18.9595C9.75349 19.4243 10.3739 19.692 11.0255 19.7055V28.4484C11.0255 28.5947 11.0836 28.7351 11.1871 28.8386C11.2906 28.942 11.4309 29.0002 11.5772 29.0002C11.7236 29.0002 11.8639 28.942 11.9674 28.8386C12.0709 28.7351 12.129 28.5947 12.129 28.4484V11.7289C12.129 11.5825 12.0709 11.4422 11.9674 11.3387C11.8639 11.2352 11.7236 11.1771 11.5772 11.1771C11.4309 11.1771 11.2906 11.2352 11.1871 11.3387C11.0836 11.4422 11.0255 11.5825 11.0255 11.7289V18.5993C10.6663 18.5872 10.3258 18.4363 10.0756 18.1784C9.82542 17.9204 9.68493 17.5755 9.68369 17.2162V12.3761C9.68369 9.37223 10.9069 7.97362 13.5332 7.97362H14.5343C14.6731 7.99186 14.8129 8.00174 14.9529 8.00319H14.9706C15.1152 8.00228 15.2596 7.99241 15.403 7.97362H16.4668C19.0931 7.97362 20.316 9.37256 20.316 12.3761V17.2136C20.3137 17.5749 20.1714 17.9214 19.9189 18.18C19.6665 18.4386 19.3236 18.5893 18.9624 18.6003V11.7289C18.9624 11.5825 18.9043 11.4422 18.8008 11.3387C18.6973 11.2352 18.5569 11.1771 18.4106 11.1771C18.2643 11.1771 18.1239 11.2352 18.0204 11.3387C17.9169 11.4422 17.8588 11.5825 17.8588 11.7289V18.6552C17.8588 18.6595 17.8588 18.6637 17.8588 18.6683C17.8588 18.6729 17.8588 18.6765 17.8588 18.6808V28.4484C17.8588 28.5947 17.9169 28.7351 18.0204 28.8386C18.1239 28.942 18.2643 29.0002 18.4106 29.0002C18.5569 29.0002 18.6973 28.942 18.8008 28.8386C18.9043 28.7351 18.9624 28.5947 18.9624 28.4484V19.7059C19.616 19.694 20.2391 19.4269 20.6983 18.9615C21.1575 18.4962 21.4164 17.8696 21.4196 17.2159V12.3761C21.4196 9.16952 20.0591 7.31227 17.4751 6.94233M12.5742 4.4891C12.575 4.17471 12.6379 3.86357 12.7591 3.57351C12.8804 3.28345 13.0577 3.02016 13.2809 2.79874C13.5041 2.57732 13.7688 2.40211 14.0598 2.28316C14.3508 2.1642 14.6624 2.10384 14.9768 2.10553H14.9834C15.5865 2.10873 16.1662 2.33933 16.6068 2.75127C17.0473 3.16321 17.3162 3.72618 17.3598 4.32773C17.4034 4.92927 17.2185 5.52513 16.842 5.99629C16.4655 6.46746 15.9251 6.77925 15.3287 6.86939H14.6135C14.0447 6.78326 13.5258 6.49554 13.1514 6.05871C12.7771 5.62188 12.5722 5.06504 12.5742 4.48976V4.4891Z" stroke="url(#paint7_linear_2660_205)" stroke-width="0.25"/>
</g>
</g>
</g>
<defs>
<linearGradient id="paint0_linear_2660_205" x1="14.5521" y1="14.4634" x2="20.9946" y2="16.0714" gradientUnits="userSpaceOnUse">
<stop stop-color="#3463AF"/>
<stop offset="0.228" stop-color="#2C5391"/>
<stop offset="0.561" stop-color="#223655"/>
<stop offset="1" stop-color="#032146"/>
</linearGradient>
<linearGradient id="paint1_linear_2660_205" x1="14.5521" y1="14.4634" x2="20.9946" y2="16.0714" gradientUnits="userSpaceOnUse">
<stop stop-color="#3463AF"/>
<stop offset="0.228" stop-color="#2C5391"/>
<stop offset="0.561" stop-color="#223655"/>
<stop offset="1" stop-color="#032146"/>
</linearGradient>
<linearGradient id="paint2_linear_2660_205" x1="1.94402" y1="-8.40784" x2="36.9025" y2="21.9607" gradientUnits="userSpaceOnUse">
<stop stop-color="#3463AF"/>
<stop offset="0.228" stop-color="#2C5391"/>
<stop offset="0.561" stop-color="#223655"/>
<stop offset="1" stop-color="#032146"/>
</linearGradient>
<linearGradient id="paint3_linear_2660_205" x1="1.94402" y1="-8.40784" x2="36.9025" y2="21.9607" gradientUnits="userSpaceOnUse">
<stop stop-color="#3463AF"/>
<stop offset="0.228" stop-color="#2C5391"/>
<stop offset="0.561" stop-color="#223655"/>
<stop offset="1" stop-color="#032146"/>
</linearGradient>
<linearGradient id="paint4_linear_2660_205" x1="20.5595" y1="-8.40545" x2="55.5048" y2="21.8807" gradientUnits="userSpaceOnUse">
<stop stop-color="#3463AF"/>
<stop offset="0.228" stop-color="#2C5391"/>
<stop offset="0.561" stop-color="#223655"/>
<stop offset="1" stop-color="#032146"/>
</linearGradient>
<linearGradient id="paint5_linear_2660_205" x1="20.5595" y1="-8.40545" x2="55.5048" y2="21.8807" gradientUnits="userSpaceOnUse">
<stop stop-color="#3463AF"/>
<stop offset="0.228" stop-color="#2C5391"/>
<stop offset="0.561" stop-color="#223655"/>
<stop offset="1" stop-color="#032146"/>
</linearGradient>
<linearGradient id="paint6_linear_2660_205" x1="10.1211" y1="-8.40545" x2="45.1716" y2="31.1196" gradientUnits="userSpaceOnUse">
<stop stop-color="#3463AF"/>
<stop offset="0.228" stop-color="#2C5391"/>
<stop offset="0.561" stop-color="#223655"/>
<stop offset="1" stop-color="#032146"/>
</linearGradient>
<linearGradient id="paint7_linear_2660_205" x1="10.1211" y1="-8.40545" x2="45.1716" y2="31.1196" gradientUnits="userSpaceOnUse">
<stop stop-color="#3463AF"/>
<stop offset="0.228" stop-color="#2C5391"/>
<stop offset="0.561" stop-color="#223655"/>
<stop offset="1" stop-color="#032146"/>
</linearGradient>
</defs>
</svg>
