<svg width="14" height="11" viewBox="0 0 14 11" fill="none" xmlns="http://www.w3.org/2000/svg">
<path d="M7.51332 5.87318C7.72731 5.6805 7.92601 5.50245 8.12352 5.32275C8.22583 5.22335 8.35623 5.16681 8.49214 5.16292C8.62804 5.15903 8.76089 5.20803 8.86768 5.30145C8.9156 5.34064 8.95436 5.39201 8.98071 5.45127C9.00706 5.51052 9.02022 5.57593 9.01911 5.642C9.01799 5.70807 9.00263 5.77289 8.9743 5.831C8.94597 5.88912 8.9055 5.93885 8.85629 5.97601C8.36418 6.43393 7.87057 6.89019 7.37546 7.34478C7.27083 7.44492 7.1373 7.5 6.99918 7.5C6.86105 7.5 6.72752 7.44492 6.6229 7.34478C6.12759 6.88864 5.63418 6.43172 5.14266 5.97402C5.0935 5.93681 5.05312 5.88702 5.02494 5.82884C4.99676 5.77065 4.9816 5.7058 4.98075 5.63974C4.9799 5.57368 4.99338 5.50837 5.02004 5.44932C5.04671 5.39026 5.08579 5.3392 5.13397 5.30045C5.23931 5.20826 5.37018 5.15947 5.50428 5.16238C5.63838 5.16529 5.76743 5.21973 5.86944 5.31642C6.06725 5.49613 6.26326 5.6775 6.46046 5.85787C6.46286 5.8602 6.46795 5.85987 6.47515 5.8612C6.50092 5.82559 6.48623 5.78499 6.48623 5.74772C6.48623 4.01721 6.48623 2.28736 6.48623 0.558179C6.47564 0.435152 6.50638 0.312119 6.57255 0.212742C6.64071 0.128292 6.72786 0.0654813 6.82508 0.0307455C6.9223 -0.00399027 7.02608 -0.00940208 7.1258 0.0150646C7.21904 0.0299668 7.30577 0.0768046 7.37389 0.149047C7.44201 0.22129 7.48814 0.315337 7.50583 0.418074C7.51121 0.468764 7.51362 0.519789 7.51302 0.570825C7.51302 2.29712 7.51302 4.02331 7.51302 5.74938L7.51332 5.87318Z" fill="white"/>
<path d="M6.99828 10.9992C5.39156 10.9992 3.7847 10.9992 2.1777 10.9992C1.73544 11.0093 1.29991 10.92 0.932583 10.744C0.565255 10.5679 0.284682 10.314 0.130469 10.018C0.0435891 9.84973 1.65738e-05 9.67161 0.00184917 9.49225C-0.000616389 9.00487 -0.000616389 8.51691 0.00184917 8.02984C-0.00913555 7.91579 0.0357657 7.80256 0.128868 7.70954C0.22197 7.61651 0.357485 7.54947 0.512219 7.51988C0.654612 7.49029 0.806507 7.49381 0.945913 7.52992C1.08532 7.56603 1.205 7.63287 1.28764 7.72076C1.37712 7.82406 1.41921 7.94472 1.40804 8.0659C1.40804 8.51848 1.40804 8.97086 1.40804 9.42304C1.39222 9.50112 1.40224 9.58075 1.4373 9.65557C1.47236 9.73038 1.53148 9.7983 1.60992 9.85388C1.68837 9.90947 1.78397 9.95117 1.88905 9.97565C1.99414 10.0001 2.1058 10.0067 2.2151 9.99487C5.40717 9.99487 8.5987 9.99487 11.7897 9.99487C11.899 10.0063 12.0105 9.99923 12.1153 9.97436C12.2201 9.94948 12.3154 9.90745 12.3933 9.85163C12.4713 9.7958 12.5299 9.72773 12.5645 9.65285C12.599 9.57797 12.6085 9.49837 12.5922 9.4204C12.5922 8.96001 12.5893 8.49991 12.5922 8.03981C12.5839 7.96759 12.5978 7.89495 12.6328 7.82694C12.6679 7.75894 12.7233 7.6972 12.7952 7.64604C12.867 7.59487 12.9537 7.5555 13.0491 7.53068C13.1445 7.50585 13.2463 7.49616 13.3475 7.50229C13.5039 7.50922 13.6522 7.55418 13.7677 7.62969C13.8832 7.7052 13.959 7.80669 13.9824 7.91723C13.996 8.02191 14.0012 8.12707 13.998 8.23217C13.998 8.64272 14.0025 9.05121 13.998 9.46058C14.0063 9.66469 13.9559 9.86785 13.85 10.0575C13.7441 10.2472 13.5848 10.4194 13.3821 10.5635C13.1793 10.7076 12.9374 10.8206 12.6712 10.8954C12.4049 10.9702 12.12 11.0054 11.8341 10.9986C10.2216 11.0016 8.60952 10.9986 6.99704 10.9986" fill="white"/>
</svg>
