<svg width="32" height="32" viewBox="0 0 32 32" fill="none" xmlns="http://www.w3.org/2000/svg">
<path d="M16 12.8C19.5289 12.8 22.4 9.92887 22.4 6.4C22.4 2.87112 19.5289 0 16 0C12.4711 0 9.59998 2.87112 9.59998 6.4C9.59998 9.92887 12.4711 12.8 16 12.8ZM16 1.06669C18.9409 1.06669 21.3333 3.45913 21.3333 6.4C21.3333 9.34088 18.9409 11.7333 16 11.7333C13.0591 11.7333 10.6667 9.34088 10.6667 6.4C10.6667 3.45913 13.0591 1.06669 16 1.06669Z" fill="#032146"/>
<path d="M16 19.2C12.4711 19.2 9.59998 22.0711 9.59998 25.6C9.59998 29.1289 12.4711 32 16 32C19.5289 32 22.4 29.1289 22.4 25.6C22.4 22.0711 19.5289 19.2 16 19.2ZM16 30.9333C13.0591 30.9333 10.6667 28.5409 10.6667 25.6C10.6667 22.6591 13.0591 20.2667 16 20.2667C18.9409 20.2667 21.3333 22.6591 21.3333 25.6C21.3333 28.5409 18.9409 30.9333 16 30.9333Z" fill="#032146"/>
<path d="M25.6 9.59998C22.071 9.59998 19.2 12.4711 19.2 16C19.2 19.5289 22.0711 22.4 25.6 22.4C29.1288 22.4 32 19.5289 32 16C32 12.4711 29.1289 9.59998 25.6 9.59998ZM25.6 21.3333C22.6591 21.3333 20.2666 18.9409 20.2666 16C20.2666 13.0591 22.6591 10.6667 25.6 10.6667C28.5408 10.6667 30.9333 13.0591 30.9333 16C30.9333 18.9409 28.5408 21.3333 25.6 21.3333Z" fill="#032146"/>
<path d="M25.5999 11.7333C23.2473 11.7333 21.3333 13.6474 21.3333 16C21.3333 18.3526 23.2473 20.2667 25.5999 20.2667C27.9526 20.2667 29.8666 18.3526 29.8666 16C29.8666 13.6474 27.9526 11.7333 25.5999 11.7333ZM25.5999 19.2C23.8354 19.2 22.3999 17.7646 22.3999 16C22.3999 14.2355 23.8354 12.8 25.5999 12.8C27.3645 12.8 28.7999 14.2355 28.7999 16C28.7999 17.7646 27.3645 19.2 25.5999 19.2Z" fill="#032146"/>
<path d="M12.8 16C12.8 12.4711 9.92887 9.59998 6.4 9.59998C2.87112 9.59998 0 12.4711 0 16C0 19.5289 2.87112 22.4 6.4 22.4C9.92887 22.4 12.8 19.5289 12.8 16ZM6.4 21.3333C3.45913 21.3333 1.06669 18.9409 1.06669 16C1.06669 13.0591 3.45913 10.6667 6.4 10.6667C9.34088 10.6667 11.7333 13.0591 11.7333 16C11.7333 18.9409 9.34088 21.3333 6.4 21.3333Z" fill="#032146"/>
<path d="M12.8 8.53359H19.2C19.2039 8.53334 19.207 8.53334 19.2107 8.53359C19.5052 8.53359 19.744 8.29478 19.744 8.00028C19.744 7.86434 19.6932 7.7404 19.6096 7.64609L16.4572 2.39215C16.2646 2.07078 15.7354 2.07078 15.5427 2.39215L12.3427 7.72578C12.2437 7.89065 12.2411 8.09584 12.3359 8.26303C12.4305 8.43022 12.6078 8.53359 12.8 8.53359ZM16 3.7034L18.258 7.46697H13.7419L16 3.7034Z" fill="#032146"/>
<path d="M9.06664 12.8H3.73326C3.4387 12.8 3.19995 13.0388 3.19995 13.3333V18.6666C3.19995 18.9612 3.43876 19.1999 3.73326 19.1999H9.06658C9.36114 19.1999 9.59989 18.9611 9.59989 18.6666V13.3333C9.59995 13.0388 9.36114 12.8 9.06664 12.8ZM8.53326 18.1333H4.26664V13.8666H8.53333L8.53326 18.1333Z" fill="#032146"/>
<path d="M19.0438 22.5563C18.8355 22.3479 18.498 22.3479 18.2896 22.5563L16 24.8458L13.7105 22.5563C13.5022 22.3479 13.1647 22.3479 12.9563 22.5563C12.748 22.7646 12.748 23.1021 12.9563 23.3104L15.2458 25.6L12.9563 27.8896C12.748 28.0979 12.748 28.4354 12.9563 28.6438C13.0605 28.7479 13.1969 28.8 13.3333 28.8C13.4698 28.8 13.6063 28.7479 13.7104 28.6438L16 26.3542L18.2896 28.6438C18.3938 28.7479 18.5302 28.8 18.6667 28.8C18.8031 28.8 18.9396 28.7479 19.0437 28.6438C19.252 28.4354 19.252 28.0979 19.0437 27.8896L16.7542 25.6L19.0438 23.3104C19.2521 23.1021 19.2521 22.7646 19.0438 22.5563Z" fill="#032146"/>
</svg>
