<svg width="28" height="32" viewBox="0 0 28 32" fill="none" xmlns="http://www.w3.org/2000/svg">
<g clip-path="url(#clip0_37_1688)">
<path d="M19.2042 23.6741L18.256 22.7259L17.219 23.7629L18.6857 25.2295C18.7537 25.2977 18.8346 25.3517 18.9235 25.3885C19.0125 25.4254 19.1079 25.4444 19.2042 25.4444C19.3004 25.4444 19.3958 25.4254 19.4848 25.3885C19.5737 25.3517 19.6546 25.2977 19.7226 25.2295L23.3893 21.5629L22.3523 20.5259L19.2042 23.6741Z" fill="#032146"/>
<path d="M23.1942 17.2481C23.8026 15.663 24.2129 14.0089 24.4156 12.3232L24.8481 8.66371C24.867 8.50327 24.8323 8.34109 24.7496 8.20234C24.6669 8.0636 24.5406 7.95604 24.3905 7.89636L19.7936 6.07019C18.0621 5.38922 16.4648 4.40715 15.0756 3.16943L13.1327 1.43135C12.9984 1.31118 12.8247 1.24464 12.6445 1.24445C12.4643 1.24425 12.2904 1.3104 12.1559 1.43028L10.2029 3.16979C8.81385 4.4072 7.21683 5.38913 5.48568 6.07019L0.895181 7.89636C0.745364 7.95596 0.619393 8.06332 0.536794 8.2018C0.454194 8.34027 0.419579 8.50212 0.438313 8.66227L0.863698 12.3232C1.66292 19.0808 5.73349 25.1111 12.0349 28.8694L12.2698 29.0087C12.3846 29.0767 12.5159 29.1121 12.6494 29.1111C12.7829 29.1101 12.9136 29.0727 13.0274 29.003L13.2466 28.8683C13.9763 28.4296 14.6826 27.9532 15.3628 27.441C15.9935 28.2075 16.7889 28.8217 17.69 29.238C18.591 29.6543 19.5743 29.8619 20.5667 29.8453C21.5591 29.8287 22.535 29.5884 23.4216 29.1423C24.3083 28.6962 25.0828 28.0557 25.6875 27.2687C26.2922 26.4816 26.7115 25.5683 26.9142 24.5966C27.1168 23.625 27.0976 22.6202 26.858 21.657C26.6183 20.6938 26.1644 19.7971 25.5301 19.0338C24.8957 18.2704 24.0972 17.66 23.1942 17.2481ZM12.6393 27.5216C6.817 23.9942 3.05937 18.4012 2.32031 12.1528L1.96007 9.0515L6.02849 7.43304C7.91924 6.68844 9.66342 5.61535 11.1805 4.26335L12.6428 2.96068L14.0966 4.26192C15.6144 5.61466 17.3596 6.68824 19.2514 7.43304L23.3256 9.05117L22.9589 12.1521C22.768 13.7383 22.3793 15.2944 21.8021 16.7841C21.3584 16.6913 20.9064 16.6445 20.4531 16.6444C20.4097 16.6444 20.3676 16.6501 20.3243 16.651C20.7436 15.5353 21.0266 14.373 21.1671 13.1894L21.4751 10.6081C21.4943 10.4474 21.4599 10.2849 21.3771 10.1459C21.2943 10.0069 21.1679 9.89923 21.0175 9.83963L17.7704 8.54984C16.5725 8.07768 15.4669 7.39858 14.5041 6.54355L13.1334 5.31179C12.9993 5.19085 12.8252 5.12376 12.6446 5.12343C12.464 5.1231 12.2897 5.18955 12.1551 5.31L10.7744 6.54355C9.81219 7.39843 8.70703 8.07731 7.5095 8.54913L4.26823 9.83962C4.11839 9.8993 3.99242 10.0067 3.90983 10.1453C3.82723 10.2838 3.79262 10.4457 3.81136 10.6059L4.11214 13.1883C4.43964 15.6412 5.33007 17.9851 6.71381 20.0367C8.09755 22.0884 9.93709 23.7921 12.0886 25.0148L12.2505 25.1176C12.3683 25.1923 12.5049 25.2319 12.6444 25.2318C12.784 25.2316 12.9205 25.1918 13.0382 25.1168L13.1779 25.0269C13.4454 24.8687 13.7131 24.6989 13.9794 24.5197C14.0963 25.1071 14.2933 25.6756 14.5649 26.2093C13.9457 26.6792 13.303 27.1172 12.6393 27.5216ZM13.8744 22.8251L13.8596 22.8054C13.4636 23.1034 13.0596 23.3798 12.6436 23.6365C10.7358 22.5194 9.10734 20.9827 7.88157 19.1429C6.6558 17.3031 5.86489 15.2084 5.56875 13.0175L5.33314 10.9944L8.0538 9.91123C9.41084 9.37599 10.6629 8.60581 11.7527 7.63604L12.6422 6.84184L13.5244 7.63461C14.6153 8.6052 15.8686 9.37609 17.2269 9.91196L19.9519 10.9944L19.7105 13.0172C19.5476 14.3603 19.1836 15.6713 18.6306 16.9061C17.3253 17.2837 16.1681 18.0546 15.317 19.1139C14.4658 20.1731 13.9621 21.4691 13.8744 22.8251ZM20.4531 28.3778C19.4378 28.3778 18.4454 28.0767 17.6012 27.5126C16.757 26.9486 16.0991 26.1469 15.7105 25.2089C15.322 24.2709 15.2204 23.2387 15.4184 22.243C15.6165 21.2472 16.1054 20.3325 16.8233 19.6146C17.5412 18.8967 18.4559 18.4078 19.4517 18.2097C20.4474 18.0117 21.4796 18.1133 22.4176 18.5019C23.3556 18.8904 24.1573 19.5483 24.7213 20.3925C25.2854 21.2367 25.5865 22.2292 25.5865 23.2444C25.5849 24.6054 25.0435 25.9102 24.0812 26.8725C23.1188 27.8348 21.8141 28.3762 20.4531 28.3778Z" fill="#032146"/>
</g>
<defs>
<clipPath id="clip0_37_1688">
<rect width="26.6667" height="32" fill="white" transform="translate(0.666626)"/>
</clipPath>
</defs>
</svg>
