<svg width="32" height="32" viewBox="0 0 32 32" fill="none" xmlns="http://www.w3.org/2000/svg">
<g clip-path="url(#clip0_37_1663)">
<path d="M24.3363 18.5703L22.2063 18.0363L20.7778 17.0843C20.6528 17.0008 20.4943 16.9853 20.3498 17.0298C20.3248 17.0378 20.3063 17.0578 20.2828 17.0693L19.9158 15.6013C20.8923 14.6452 21.6693 13.3842 21.9123 11.9422C22.7753 11.7032 23.3128 10.7927 23.4683 9.89517C23.5063 9.64867 23.5168 9.39616 23.4638 9.11216C23.3978 8.75515 23.2518 8.55515 23.0203 8.38265C23.0798 7.07263 23.0828 2.41705 20.3208 0.116017C20.0963 -0.070986 19.7513 -0.0279853 19.5848 0.222519C18.7327 1.49954 16.8647 1.49954 14.5002 1.49954C10.9536 1.49954 9.00009 3.45307 9.00009 6.99962V8.36965C8.75208 8.54565 8.60308 8.75265 8.53708 9.11266C8.48408 9.39666 8.49458 9.64867 8.53208 9.89467C8.68708 10.7937 9.22309 11.7002 10.0846 11.9407C10.3256 13.4242 11.1151 14.6657 12.0856 15.5973L11.7191 17.0628C11.6991 17.0528 11.6841 17.0348 11.6621 17.0273C11.5151 16.9768 11.3521 16.9973 11.2226 17.0843L9.7941 18.0363L7.66407 18.5703C5.21203 19.1843 3.5 21.3778 3.5 23.9059V31.5C3.5 31.7765 3.7235 32 4.00001 32C4.27651 32 4.50002 31.7765 4.50002 31.5V29H8.50008V31.5C8.50008 31.7765 8.72358 32 9.00009 32C9.27659 32 9.50009 31.7765 9.50009 31.5V25.9999C9.50009 25.7234 9.27659 25.4999 9.00009 25.4999C8.72358 25.4999 8.50008 25.7234 8.50008 25.9999V28H6.50005V23.9059C6.50005 22.7569 7.27906 21.7594 8.39358 21.4799L11.4266 20.7193C12.4656 21.5784 13.9432 22.5009 15.8792 22.9844C15.9187 22.9949 15.9597 22.9994 16.0002 22.9994C16.0407 22.9994 16.0817 22.9944 16.1212 22.9844C18.0572 22.5004 19.5343 21.5784 20.5738 20.7193L23.6073 21.4799C24.7218 21.7594 25.5003 22.7569 25.5003 23.9059V28H23.5003V25.9999C23.5003 25.7234 23.2768 25.4999 23.0003 25.4999C22.7238 25.4999 22.5003 25.7234 22.5003 25.9999V31.5C22.5003 31.7765 22.7238 32 23.0003 32C23.2768 32 23.5003 31.7765 23.5003 31.5V29H27.5004V31.5C27.5004 31.7765 27.7239 32 28.0004 32C28.2769 32 28.5004 31.7765 28.5004 31.5V23.9059C28.5004 21.3778 26.7879 19.1843 24.3363 18.5703ZM19.3692 17.5383C19.4047 17.6823 19.4653 17.8178 19.5408 17.9438C19.0237 18.4473 17.9952 19.1968 16.0002 19.9653C14.0027 19.1958 12.9746 18.4453 12.4586 17.9453C12.5346 17.8188 12.5946 17.6828 12.6306 17.5393L12.9386 16.3063C14.0082 17.0758 15.1597 17.5003 16.0002 17.5003C16.9257 17.5003 18.0452 17.0683 19.0657 16.3228L19.3692 17.5383ZM22.4448 9.19216C22.5128 9.35566 22.5088 9.56616 22.4798 9.73967C22.4193 10.1002 22.2613 10.4827 21.9998 10.7482V9.28716C22.0958 9.23916 22.3648 9.12116 22.4448 9.19216ZM10.0001 10.7497C9.7376 10.4842 9.5806 10.1027 9.5201 9.74067C9.49059 9.56567 9.48709 9.35716 9.5551 9.19166C9.6331 9.12316 9.8936 9.23366 10.0001 9.28666V10.7497ZM10.0001 8.22514V6.99962C10.0001 4.01358 11.5141 2.49955 14.5002 2.49955C16.8102 2.49955 18.8352 2.49955 20.0523 1.23153C21.9993 3.26557 22.0613 6.97812 22.0228 8.21914C21.8138 8.26964 21.8958 8.25414 21.7758 8.30064C21.5688 7.77664 21.2263 7.01862 20.8538 6.64612C20.2233 6.01561 18.7202 5.87561 16.3202 5.7196C14.7162 5.6156 12.8986 5.4976 12.2776 5.08359C11.9406 4.85959 11.5001 5.10609 11.5001 5.4996C11.5001 6.79462 10.7751 7.87864 10.3861 8.36765C10.1271 8.24664 10.0891 8.24764 10.0001 8.22514ZM11.0001 9.19266C11.3426 8.80415 12.2051 7.70714 12.4406 6.23761C13.3917 6.53212 14.7922 6.62312 16.2547 6.71812C17.7242 6.81362 19.7368 6.94412 20.1463 7.35363C20.4363 7.64363 20.8113 8.53815 20.9998 9.08516V11.0002C20.9998 14.0442 17.9207 16.5003 15.9997 16.5003C14.2882 16.5003 10.9996 14.1777 10.9996 11.0002L11.0001 9.19266ZM8.15007 20.5103C6.58955 20.9008 5.50003 22.2974 5.50003 23.9059V28H4.50002V23.9059C4.50002 21.8379 5.90104 20.0423 7.90707 19.5403L9.7966 19.0663C9.9556 19.2708 10.2006 19.5648 10.5406 19.9113L8.15007 20.5103ZM16.0002 21.9839C13.1702 21.2383 11.3971 19.4243 10.7231 18.6188L11.3456 18.2043C12.3101 19.4598 14.3347 20.4098 15.8242 20.9683C15.9377 21.0103 16.0627 21.0103 16.1757 20.9683C17.6652 20.4098 19.6898 19.4593 20.6543 18.2043L21.2778 18.6198C20.6078 19.4243 18.8417 21.2353 16.0002 21.9839ZM26.5004 28V23.9059C26.5004 22.2974 25.4103 20.9008 23.8503 20.5103L21.4593 19.9113C21.7993 19.5648 22.0443 19.2708 22.2033 19.0663L24.0928 19.5403C26.0994 20.0423 27.5004 21.8379 27.5004 23.9059V28H26.5004Z" fill="#032146"/>
<path d="M20.0003 25.4999C19.1733 25.4999 18.5002 26.1729 18.5002 27C18.5002 27.827 19.1733 28.5 20.0003 28.5C20.8273 28.5 21.5003 27.827 21.5003 27C21.5003 26.1729 20.8273 25.4999 20.0003 25.4999ZM20.0003 27.5C19.7243 27.5 19.5003 27.276 19.5003 27C19.5003 26.724 19.7243 26.5 20.0003 26.5C20.2763 26.5 20.5003 26.724 20.5003 27C20.5003 27.276 20.2758 27.5 20.0003 27.5Z" fill="#032146"/>
<path d="M17.0003 4.49961C19.2443 4.49961 19.8823 3.35359 19.9478 3.22309C20.0688 2.98108 19.9718 2.69258 19.7328 2.56508C19.4948 2.43708 19.1938 2.52958 19.0593 2.76408C19.0418 2.79458 18.6198 3.49959 17.0003 3.49959C16.7242 3.49959 16.5002 3.7236 16.5002 3.9996C16.5002 4.2756 16.7237 4.49961 17.0003 4.49961Z" fill="#032146"/>
</g>
<defs>
<clipPath id="clip0_37_1663">
<rect width="32" height="32" fill="white"/>
</clipPath>
</defs>
</svg>
