<svg width="24" height="24" viewBox="0 0 24 24" fill="none" xmlns="http://www.w3.org/2000/svg">
<g id="fi_38002" clip-path="url(#clip0_2255_586)">
<g id="Group">
<g id="Group_2">
<path id="Vector" d="M3.33166 7.77393C2.91814 7.77393 2.56729 7.91813 2.27888 8.20654C1.99047 8.49495 1.84622 8.84103 1.84622 9.24496V15.4468C1.84622 15.8609 1.99043 16.2114 2.27888 16.4999C2.56729 16.7883 2.91814 16.9325 3.33166 16.9325C3.74488 16.9325 4.09361 16.7883 4.37755 16.4999C4.66092 16.2115 4.803 15.8609 4.803 15.4468V9.24496C4.803 8.84099 4.6588 8.49495 4.37034 8.20654C4.08189 7.91813 3.73559 7.77393 3.33166 7.77393Z" fill="white"/>
<path id="Vector_2" d="M15.2741 2.20654L16.2982 0.317431C16.3654 0.192364 16.3415 0.0964594 16.2262 0.0290222C16.1011 -0.0291283 16.005 0.00033753 15.9378 0.115337L14.8994 2.01955C13.9857 1.61558 13.0194 1.41322 12.0003 1.41322C10.981 1.41322 10.0145 1.61562 9.10119 2.01955L8.06277 0.115337C7.99529 0.00033753 7.89917 -0.0288679 7.77436 0.0290222C7.65884 0.0967632 7.63493 0.192364 7.70241 0.317431L8.72651 2.20654C7.68809 2.7361 6.86105 3.47361 6.2457 4.42068C5.63035 5.36828 5.32254 6.40379 5.32254 7.52904H18.6636C18.6636 6.40405 18.3557 5.36849 17.7404 4.42068C17.125 3.47361 16.3027 2.7361 15.2741 2.20654ZM9.3535 4.95428C9.24275 5.06529 9.11048 5.12053 8.95673 5.12053C8.80267 5.12053 8.67309 5.06529 8.56738 4.95428C8.46167 4.84379 8.40881 4.71204 8.40881 4.55777C8.40881 4.40402 8.46167 4.27201 8.56738 4.16126C8.67309 4.05078 8.80298 3.99554 8.95673 3.99554C9.11048 3.99554 9.24275 4.05078 9.3535 4.16126C9.46398 4.27227 9.51949 4.40402 9.51949 4.55777C9.51918 4.71178 9.46372 4.84379 9.3535 4.95428ZM15.4327 4.95428C15.3267 5.06529 15.1968 5.12053 15.0433 5.12053C14.8892 5.12053 14.757 5.06529 14.6465 4.95428C14.5358 4.84379 14.4805 4.71204 14.4805 4.55777C14.4805 4.40402 14.5358 4.27201 14.6465 4.16126C14.757 4.05078 14.8892 3.99554 15.0433 3.99554C15.1971 3.99554 15.3267 4.05078 15.4327 4.16126C15.5384 4.27227 15.5912 4.40402 15.5912 4.55777C15.5912 4.71178 15.5384 4.84379 15.4327 4.95428Z" fill="white"/>
<path id="Vector_3" d="M5.37982 17.6537C5.37982 18.0964 5.53357 18.4712 5.84112 18.7787C6.14893 19.0863 6.52369 19.24 6.96611 19.24H8.03348L8.0481 22.5144C8.0481 22.9279 8.19231 23.279 8.48072 23.5675C8.76913 23.8559 9.11547 24.0001 9.51914 24.0001C9.9324 24.0001 10.2835 23.8559 10.5719 23.5675C10.8604 23.279 11.0046 22.9279 11.0046 22.5144V19.2403H12.9949V22.5144C12.9949 22.9279 13.139 23.279 13.4275 23.5675C13.716 23.8559 14.0667 24.0001 14.4803 24.0001C14.8935 24.0001 15.2446 23.8559 15.5331 23.5675C15.8215 23.279 15.9657 22.9279 15.9657 22.5144V19.2403H17.0475C17.4801 19.2403 17.85 19.0865 18.1581 18.779C18.4656 18.4715 18.6195 18.0967 18.6195 17.654V8.04785H5.37982V17.6537Z" fill="white"/>
<path id="Vector_4" d="M20.6683 7.77393C20.2644 7.77393 19.9183 7.916 19.6299 8.19938C19.3415 8.48327 19.1973 8.832 19.1973 9.24496V15.4468C19.1973 15.8609 19.3414 16.2114 19.6299 16.4999C19.9183 16.7883 20.2646 16.9325 20.6683 16.9325C21.0816 16.9325 21.4327 16.7883 21.7211 16.4999C22.0096 16.2114 22.1537 15.8609 22.1537 15.4468V9.24496C22.1537 8.83196 22.0096 8.48327 21.7211 8.19938C21.4327 7.916 21.0816 7.77393 20.6683 7.77393Z" fill="white"/>
</g>
</g>
</g>
<defs>
<clipPath id="clip0_2255_586">
<rect width="24" height="24" fill="white"/>
</clipPath>
</defs>
</svg>
