<svg width="24" height="24" viewBox="0 0 24 24" fill="none" xmlns="http://www.w3.org/2000/svg">
<g id="fi_731985" clip-path="url(#clip0_2255_593)">
<g id="Group">
<g id="Group_2">
<path id="Vector" d="M16.499 0C15.2195 0.0884995 13.724 0.907495 12.8525 1.97399C12.0575 2.94148 11.4035 4.37847 11.6585 5.77497C13.0565 5.81847 14.501 4.97997 15.338 3.89548C16.121 2.88598 16.7135 1.45799 16.499 0Z" fill="white"/>
</g>
</g>
<g id="Group_3">
<g id="Group_4">
<path id="Vector_2" d="M21.5554 8.05216C20.327 6.51167 18.6005 5.61768 16.97 5.61768C14.8175 5.61768 13.907 6.64817 12.4115 6.64817C10.8695 6.64817 9.69801 5.62068 7.83652 5.62068C6.00803 5.62068 4.06105 6.73817 2.82655 8.64916C1.09106 11.3401 1.38806 16.3996 4.20055 20.7091C5.20704 22.2511 6.55103 23.9851 8.30902 24.0001C9.87351 24.0151 10.3145 22.9966 12.434 22.9861C14.5535 22.9741 14.9555 24.0136 16.517 23.9971C18.2765 23.9836 19.694 22.0621 20.7004 20.5201C21.4219 19.4146 21.6904 18.8581 22.2499 17.6101C18.1805 16.0606 17.528 10.2736 21.5554 8.05216Z" fill="white"/>
</g>
</g>
</g>
<defs>
<clipPath id="clip0_2255_593">
<rect width="24" height="24" fill="white"/>
</clipPath>
</defs>
</svg>
