<svg width="20" height="20" viewBox="0 0 20 20" fill="none" xmlns="http://www.w3.org/2000/svg">
<path fill-rule="evenodd" clip-rule="evenodd" d="M13.125 2.5V18.3333C13.125 18.6783 12.845 18.9583 12.5 18.9583H2.49999C2.11332 18.9583 1.74249 18.805 1.46916 18.5308C1.19499 18.2575 1.04166 17.8867 1.04166 17.5V2.5C1.04166 2.11334 1.19499 1.7425 1.46916 1.46917C1.74249 1.19501 2.11332 1.04167 2.49999 1.04167H11.6667C12.0533 1.04167 12.4242 1.19501 12.6975 1.46917C12.9717 1.7425 13.125 2.11334 13.125 2.5ZM11.875 2.5C11.875 2.445 11.8533 2.39167 11.8142 2.3525C11.775 2.31334 11.7217 2.29167 11.6667 2.29167H2.49999C2.44499 2.29167 2.39166 2.31334 2.35249 2.3525C2.31332 2.39167 2.29166 2.445 2.29166 2.5V17.5C2.29166 17.555 2.31332 17.6083 2.35249 17.6475C2.39166 17.6867 2.44499 17.7083 2.49999 17.7083H11.875V2.5Z" fill="white"/>
<path fill-rule="evenodd" clip-rule="evenodd" d="M9.79167 12.9167V18.3333C9.79167 18.6783 9.51167 18.9583 9.16667 18.9583H5C4.655 18.9583 4.375 18.6783 4.375 18.3333V12.9167C4.375 12.64 4.485 12.3758 4.68 12.18C4.87583 11.985 5.14083 11.875 5.41667 11.875H8.75C9.02583 11.875 9.29083 11.985 9.48667 12.18C9.68167 12.3758 9.79167 12.64 9.79167 12.9167ZM5.625 13.125V17.7083H8.54167V13.125H5.625Z" fill="white"/>
<path fill-rule="evenodd" clip-rule="evenodd" d="M18.9583 7.50001V17.5C18.9583 18.3058 18.305 18.9583 17.5 18.9583H12.5C12.155 18.9583 11.875 18.6783 11.875 18.3333V6.66667C11.875 6.32167 12.155 6.04167 12.5 6.04167H17.5C18.305 6.04167 18.9583 6.69417 18.9583 7.50001ZM17.7083 7.50001C17.7083 7.38501 17.615 7.29167 17.5 7.29167H13.125V17.7083H17.5C17.615 17.7083 17.7083 17.615 17.7083 17.5V7.50001Z" fill="white"/>
</svg>
