<svg xmlns="http://www.w3.org/2000/svg" xmlns:xlink="http://www.w3.org/1999/xlink" width="126" height="67" viewBox="0 0 126 67">
  <defs>
    <linearGradient id="linear-gradient" x1="0.5" y1="1" x2="0.5" gradientUnits="objectBoundingBox">
      <stop offset="0" stop-color="#116427"/>
      <stop offset="1" stop-color="#00b22f"/>
    </linearGradient>
  </defs>
  <g id="Group_25627" data-name="Group 25627" transform="translate(-889.78 -885)">
    <rect id="Rectangle_8325" data-name="Rectangle 8325" width="126" height="67" rx="15" transform="translate(889.78 885)" fill="url(#linear-gradient)"/>
    <g id="Group_23657" data-name="Group 23657" transform="translate(933.367 901.187)">
      <path id="Path_8705" data-name="Path 8705" d="M1348.107,948.379a2.242,2.242,0,0,1,3.283-3.055l5.345,5.724V935.085a2.247,2.247,0,0,1,4.494,0v15.963l5.345-5.724a2.242,2.242,0,0,1,3.283,3.055q-4.617,4.943-9.233,9.888c-.036.039-.074.077-.114.114a2.242,2.242,0,0,1-3.169-.114Z" transform="translate(-1340.473 -932.838)" fill="#fff"/>
      <path id="Path_8706" data-name="Path 8706" d="M1362.585,988.994a2.247,2.247,0,0,1,4.494,0v4.9a5.854,5.854,0,0,1-5.843,5.842H1335.9a5.854,5.854,0,0,1-5.843-5.842v-4.9a2.247,2.247,0,0,1,4.494,0v4.9a1.358,1.358,0,0,0,1.348,1.348h25.332a1.358,1.358,0,0,0,1.348-1.348Z" transform="translate(-1330.062 -965.01)" fill="#fff"/>
    </g>
  </g>
</svg>
