<svg width="16" height="16" viewBox="0 0 16 16" fill="none" xmlns="http://www.w3.org/2000/svg">
<g clip-path="url(#clip0_226_190)">
<path d="M12.054 5.68117e-05H3.97146C3.90518 -0.000411939 3.83802 0.00140056 3.7708 0.00565057C2.3847 0.0955258 1.29889 1.28803 1.29889 2.72078V11.5208C1.29889 12.392 1.8902 13.1277 2.69267 13.3474V15.5C2.69267 15.6915 2.80217 15.8662 2.97442 15.9498C3.04374 15.9835 3.11833 16 3.19255 16C3.30292 16 3.4123 15.9636 3.50224 15.8927L6.6459 13.4145H10.7373C11.7815 13.4145 12.631 12.565 12.631 11.5208V4.1746H14.2012C14.3337 4.1746 14.4609 4.12197 14.5547 4.02813C14.6484 3.93438 14.7011 3.80719 14.7011 3.67463V2.64728C14.7012 1.18759 13.5137 5.68117e-05 12.054 5.68117e-05ZM10.7373 12.4145H6.47259C6.36027 12.4145 6.25127 12.4523 6.16302 12.5217L3.69267 14.4692V12.9145C3.69267 12.6383 3.4688 12.4145 3.19267 12.4145C2.69986 12.4145 2.29886 12.0136 2.29886 11.5208V2.72078C2.29886 1.81369 2.9738 1.0594 3.83549 1.00375C3.87136 1.00128 3.90714 1.00009 3.94277 1.00009C3.94386 1.00009 3.94496 1.00009 3.94605 1.00009H3.95386C4.37196 1.00193 4.76527 1.15756 5.07202 1.44515C5.40805 1.76009 5.59312 2.18709 5.59312 2.64731V3.67466C5.59312 3.95078 5.81699 4.17466 6.09312 4.17466H11.6309V11.5208H11.631C11.631 12.0136 11.2301 12.4145 10.7373 12.4145ZM13.7012 3.17463H6.59318V2.64728C6.59318 2.04803 6.38687 1.4654 6.01787 1.00006H12.054C12.9623 1.00006 13.7012 1.73894 13.7012 2.64728L13.7012 3.17463Z" fill="white"/>
<path d="M10.05 5.68753H4.17499C3.9678 5.68753 3.79999 5.8555 3.79999 6.06253C3.79999 6.26956 3.96783 6.43753 4.17499 6.43753H10.05C10.2571 6.43753 10.425 6.26956 10.425 6.06253C10.425 5.8555 10.2571 5.68753 10.05 5.68753Z" fill="white"/>
<path d="M10.0499 7.78133H4.17499C3.96783 7.78133 3.79999 7.9493 3.79999 8.15633C3.79999 8.36336 3.96783 8.53133 4.17499 8.53133H10.05C10.2571 8.53133 10.425 8.36336 10.425 8.15633C10.425 7.9493 10.2571 7.78133 10.0499 7.78133Z" fill="white"/>
<path d="M10.0499 9.87505H4.17499C3.96783 9.87505 3.79999 10.043 3.79999 10.25C3.79999 10.4571 3.96783 10.625 4.17499 10.625H10.05C10.2571 10.625 10.425 10.4571 10.425 10.25C10.4249 10.043 10.2571 9.87505 10.0499 9.87505Z" fill="white"/>
</g>
<defs>
<clipPath id="clip0_226_190">
<rect width="16" height="16" fill="white"/>
</clipPath>
</defs>
</svg>
